<svg width="68" height="76" viewBox="0 0 68 76" fill="none" xmlns="http://www.w3.org/2000/svg">
<g clip-path="url(#clip0)" filter="url(#filter0_d)">
<path d="M44.9545 52H23.7513C19.9477 52 16.8529 48.9157 16.8529 45.125V14.875C16.8529 11.0843 19.9477 8 23.7513 8H44.9545C48.7581 8 51.8529 11.0843 51.8529 14.875V36.5312C51.8529 37.4809 51.0803 38.25 50.1283 38.25C49.1755 38.25 48.4037 37.4809 48.4037 36.5312V14.875C48.4037 12.9801 46.8559 11.4375 44.9545 11.4375H23.7513C21.8499 11.4375 20.3021 12.9801 20.3021 14.875V45.125C20.3021 47.0199 21.8499 48.5625 23.7513 48.5625H44.9545C46.8559 48.5625 48.4037 47.0199 48.4037 45.125C48.4037 44.1754 49.1755 43.4062 50.1283 43.4062C51.0803 43.4062 51.8529 44.1754 51.8529 45.125C51.8529 48.9157 48.7581 52 44.9545 52ZM32.9728 38.1495C34.2076 38.0678 35.3596 37.4697 36.1349 36.5089C36.1547 36.484 36.1737 36.4582 36.1926 36.4324L44.7277 24.5507C45.2822 23.779 45.1037 22.7048 44.3293 22.153C43.555 21.6005 42.4771 21.7784 41.9235 22.5501L33.4229 34.3828C33.191 34.6509 32.8995 34.7085 32.7434 34.7188C32.583 34.73 32.2717 34.7094 32.0044 34.4559L26.5012 29.1896C25.814 28.5322 24.7223 28.5545 24.0626 29.2386C23.403 29.9227 23.4254 31.0115 24.1118 31.6689L29.6202 36.9403C30.4454 37.7232 31.5465 38.1589 32.6796 38.1589C32.7779 38.1589 32.8753 38.1563 32.9728 38.1495Z" fill="#EF2A50"/>
</g>
<defs>
<filter id="filter0_d" x="0.852905" y="0" width="67" height="76" filterUnits="userSpaceOnUse" color-interpolation-filters="sRGB">
<feFlood flood-opacity="0" result="BackgroundImageFix"/>
<feColorMatrix in="SourceAlpha" type="matrix" values="0 0 0 0 0 0 0 0 0 0 0 0 0 0 0 0 0 0 127 0"/>
<feOffset dy="8"/>
<feGaussianBlur stdDeviation="8"/>
<feColorMatrix type="matrix" values="0 0 0 0 0.9375 0 0 0 0 0.164062 0 0 0 0 0.313439 0 0 0 0.16 0"/>
<feBlend mode="normal" in2="BackgroundImageFix" result="effect1_dropShadow"/>
<feBlend mode="normal" in="SourceGraphic" in2="effect1_dropShadow" result="shape"/>
</filter>
<clipPath id="clip0">
<rect width="35" height="44" fill="white" transform="translate(16.8529 8)"/>
</clipPath>
</defs>
</svg>
