<svg width="24" height="24" viewBox="0 0 24 24" fill="none" xmlns="http://www.w3.org/2000/svg">
<path d="M12.522 23.9011C12.4447 23.9011 12.368 23.9011 12.2903 23.9007C10.4675 23.9052 8.78316 23.8589 7.14474 23.759C5.64304 23.6677 4.27216 23.1485 3.18019 22.2582C2.12637 21.3993 1.40686 20.2374 1.04166 18.8062C0.723693 17.5598 0.706886 16.3366 0.690534 15.1534C0.679178 14.3045 0.666914 13.2984 0.664642 12.2755C0.666914 11.2481 0.679178 10.242 0.690988 9.39304C0.70734 8.20981 0.724147 6.98661 1.04211 5.74024C1.40731 4.30855 2.12682 3.14712 3.18064 2.2882C4.27262 1.39794 5.64349 0.878769 7.14564 0.787472C8.78361 0.687998 10.4684 0.641668 12.2953 0.645756C14.1186 0.641668 15.8024 0.687998 17.4408 0.787472C18.9425 0.878769 20.3134 1.39794 21.4054 2.2882C22.4592 3.14712 23.1787 4.30901 23.5439 5.74024C23.8619 6.98661 23.8787 8.21026 23.895 9.39304C23.9069 10.242 23.9191 11.2481 23.9214 12.271C23.9191 13.2984 23.9069 14.3045 23.895 15.1534C23.8882 15.6553 23.474 16.0564 22.9743 16.0496C22.4724 16.0428 22.0713 15.6303 22.0781 15.1289C22.0895 14.2849 22.1017 13.2852 22.104 12.2714C22.1017 11.2617 22.0895 10.2624 22.0781 9.41802C22.0636 8.34108 22.0481 7.22689 21.7833 6.18946C21.5162 5.14294 21.0029 4.30401 20.2571 3.69627C19.4508 3.03856 18.466 2.6702 17.3305 2.60115C15.7311 2.50395 14.0845 2.45898 12.2953 2.46262C10.502 2.45853 8.85538 2.50395 7.25557 2.60115C6.11999 2.6702 5.13521 3.03856 4.32894 3.69627C3.58355 4.30446 3.06981 5.1434 2.80272 6.18991C2.5379 7.22734 2.52291 8.34108 2.50792 9.41848C2.49657 10.2624 2.4843 11.2621 2.48203 12.2759C2.4843 13.2857 2.49657 14.2849 2.50792 15.1293C2.52246 16.2063 2.5379 17.3205 2.80272 18.3579C3.06981 19.4044 3.58309 20.2433 4.32894 20.8511C5.13566 21.5088 6.11999 21.8772 7.25557 21.9462C8.85492 22.0434 10.5024 22.0888 12.2907 22.0843C14.0841 22.0884 15.7307 22.0434 17.33 21.9462C18.4656 21.8772 19.4504 21.5088 20.2566 20.8511C20.7935 20.4132 21.2133 19.8509 21.504 19.18C21.7034 18.7199 22.238 18.5082 22.6986 18.7076C23.1592 18.907 23.3704 19.4417 23.1715 19.9022C22.7645 20.8425 22.1699 21.6355 21.4049 22.2592C20.313 23.1499 18.9421 23.6686 17.4404 23.7599C15.8715 23.8548 14.2598 23.9011 12.522 23.9011ZM17.9251 12.2732C17.9251 9.14231 15.3782 6.59553 12.2471 6.59553C9.11656 6.59553 6.56922 9.14231 6.56922 12.2732C6.56922 15.4041 9.11656 17.9509 12.2471 17.9509C15.3777 17.9509 17.9251 15.4037 17.9251 12.2732ZM16.1081 12.2732C16.1081 14.4021 14.3761 16.1341 12.2471 16.1341C10.1181 16.1341 8.38616 14.4021 8.38616 12.2732C8.38616 10.1443 10.1181 8.41239 12.2471 8.41239C14.3761 8.41239 16.1081 10.1443 16.1081 12.2732ZM18.561 4.77866C17.8083 4.77866 17.1983 5.38868 17.1983 6.14131C17.1983 6.89395 17.8083 7.50396 18.561 7.50396C19.3136 7.50396 19.9237 6.89395 19.9237 6.14131C19.9237 5.38868 19.3136 4.77866 18.561 4.77866Z" fill="#FB4E4E"/>
</svg>
