<svg width="24" height="24" viewBox="0 0 24 24" fill="none" xmlns="http://www.w3.org/2000/svg">
<path d="M14.387 5.64551C15.3637 5.83607 16.2614 6.31376 16.9651 7.01744C17.6687 7.72112 18.1464 8.61877 18.337 9.59551M14.387 1.64551C16.4163 1.87094 18.3086 2.77968 19.7532 4.22252C21.1979 5.66535 22.109 7.55652 22.337 9.58551M21.337 17.5655V20.5655C21.3381 20.844 21.2811 21.1197 21.1695 21.3749C21.0579 21.63 20.8943 21.8591 20.6891 22.0474C20.4839 22.2356 20.2416 22.379 19.9777 22.4682C19.7139 22.5574 19.4344 22.5906 19.157 22.5655C16.0798 22.2311 13.124 21.1797 10.527 19.4955C8.11083 17.9602 6.06234 15.9117 4.527 13.4955C2.83698 10.8867 1.78524 7.9165 1.457 4.82551C1.43201 4.54897 1.46487 4.27027 1.5535 4.00713C1.64213 3.744 1.78457 3.5022 1.97177 3.29713C2.15896 3.09206 2.3868 2.92822 2.64079 2.81603C2.89478 2.70384 3.16934 2.64577 3.447 2.64551H6.447C6.93231 2.64073 7.40279 2.81259 7.77076 3.12904C8.13873 3.44549 8.37908 3.88495 8.447 4.36551C8.57362 5.32557 8.80845 6.26823 9.147 7.17551C9.28154 7.53343 9.31066 7.92242 9.23091 8.29639C9.15115 8.67035 8.96586 9.01362 8.697 9.28551L7.427 10.5555C8.85056 13.0591 10.9235 15.132 13.427 16.5555L14.697 15.2855C14.9689 15.0166 15.3122 14.8314 15.6861 14.7516C16.0601 14.6718 16.4491 14.701 16.807 14.8355C17.7143 15.1741 18.6569 15.4089 19.617 15.5355C20.1028 15.604 20.5464 15.8487 20.8635 16.223C21.1807 16.5973 21.3492 17.0751 21.337 17.5655Z" stroke="#FB4E4E" stroke-width="2" stroke-linecap="round" stroke-linejoin="round"/>
</svg>
