<svg width="83" height="82" viewBox="0 0 83 82" fill="none" xmlns="http://www.w3.org/2000/svg">
<g clip-path="url(#clip0)" filter="url(#filter0_d)">
<path d="M38.4551 49.0672C28.498 48.6466 20.6973 40.4905 20.6973 30.4983C20.6973 20.2498 29.0205 11.9127 39.252 11.9127C47.8789 11.9127 55.4971 18.0254 57.3652 26.4466C57.5996 27.5011 58.6426 28.1663 59.6953 27.9325C60.748 27.6977 61.4121 26.653 61.1787 25.5986C60.0879 20.6812 57.3252 16.2158 53.4004 13.024C49.416 9.78421 44.3916 8 39.252 8C33.252 8 27.6123 10.3398 23.3701 14.5891C19.127 18.8393 16.791 24.4883 16.791 30.4983C16.791 36.34 19.0156 41.8756 23.0557 46.0867C27.084 50.285 32.4941 52.7315 38.291 52.976C38.3193 52.977 38.3467 52.978 38.375 52.978C39.416 52.978 40.2803 52.1553 40.3252 51.1038C40.3701 50.0248 39.5332 49.1122 38.4551 49.0672Z" fill="#EF2A50"/>
<path d="M39.252 15.8403C38.1729 15.8403 37.2988 16.7158 37.2988 17.7967V29.6885L30.9893 36.0086C30.2266 36.7725 30.2266 38.0109 30.9893 38.7749C31.3701 39.1564 31.8701 39.3481 32.3701 39.3481C32.8701 39.3481 33.3701 39.1574 33.751 38.7749L40.6328 31.8816C40.999 31.5148 41.2051 31.0169 41.2051 30.4985V17.7967C41.2051 16.7158 40.3311 15.8403 39.252 15.8403Z" fill="#EF2A50"/>
<path d="M62.7734 32.2934C60.7373 31.461 58.0713 31.0022 55.2686 31.0022C52.4658 31.0022 49.7998 31.461 47.7637 32.2934C44.2676 33.7225 43.7451 35.7748 43.7451 36.8713V52.131C43.7451 53.2276 44.2676 55.2798 47.7637 56.7089C49.7998 57.5414 52.4658 58.0001 55.2686 58.0001C58.0713 58.0001 60.7373 57.5414 62.7734 56.7089C66.2695 55.2798 66.792 53.2266 66.792 52.131V36.8713C66.791 35.7748 66.2686 33.7225 62.7734 32.2934ZM62.8848 52.0684C62.5625 52.67 59.9365 54.0864 55.2676 54.0864C50.5986 54.0864 47.9727 52.67 47.6504 52.0684V48.9333C47.6885 48.949 47.7236 48.9656 47.7627 48.9813C49.7988 49.8137 52.4648 50.2725 55.2676 50.2725C55.9434 50.2725 56.6211 50.2461 57.2793 50.1923C58.3545 50.1062 59.1563 49.1632 59.0703 48.0852C58.9844 47.0083 58.0439 46.2052 56.9668 46.2913C56.4121 46.3362 55.8398 46.3587 55.2676 46.3587C50.5977 46.3587 47.9717 44.9414 47.6504 44.3398V41.4003C47.6885 41.416 47.7236 41.4326 47.7627 41.4482C49.7988 42.2807 52.4648 42.7395 55.2676 42.7395C55.9434 42.7395 56.6211 42.713 57.2793 42.6592C58.3545 42.5732 59.1563 41.6302 59.0703 40.5522C58.9844 39.4752 58.0439 38.6722 56.9668 38.7582C56.4121 38.8032 55.8398 38.8257 55.2676 38.8257C50.752 38.8257 48.1475 37.5003 47.6904 36.8694C48.1484 36.2384 50.7529 34.913 55.2676 34.913C59.9365 34.913 62.5625 36.3294 62.8848 36.931V52.0684Z" fill="#EF2A50"/>
</g>
<defs>
<filter id="filter0_d" x="0.791016" y="0" width="82" height="82" filterUnits="userSpaceOnUse" color-interpolation-filters="sRGB">
<feFlood flood-opacity="0" result="BackgroundImageFix"/>
<feColorMatrix in="SourceAlpha" type="matrix" values="0 0 0 0 0 0 0 0 0 0 0 0 0 0 0 0 0 0 127 0"/>
<feOffset dy="8"/>
<feGaussianBlur stdDeviation="8"/>
<feColorMatrix type="matrix" values="0 0 0 0 0.9375 0 0 0 0 0.164062 0 0 0 0 0.313439 0 0 0 0.16 0"/>
<feBlend mode="normal" in2="BackgroundImageFix" result="effect1_dropShadow"/>
<feBlend mode="normal" in="SourceGraphic" in2="effect1_dropShadow" result="shape"/>
</filter>
<clipPath id="clip0">
<rect width="50" height="50" fill="white" transform="translate(16.791 8)"/>
</clipPath>
</defs>
</svg>
