<svg width="33" height="27" viewBox="0 0 33 27" fill="none" xmlns="http://www.w3.org/2000/svg">
<path d="M15.0078 20.7839C15.0078 19.1727 14.5723 17.7792 13.6796 16.647C12.3297 14.9487 9.69516 14.731 8.17106 15.0794C7.53964 11.4868 10.5879 6.91452 14.5288 4.95495L11.5023 0.709229C5.5583 3.53971 -0.298617 10.028 0.702938 18.2364C1.33435 23.4184 4.33902 26.8368 8.58474 26.8368C10.4354 26.8368 11.9813 26.2924 13.2006 25.2038C14.4199 24.1151 15.0078 22.6346 15.0078 20.7839ZM32.535 20.7839C32.535 19.1727 32.0995 17.7792 31.2068 16.647C29.8351 14.9487 27.2224 14.731 25.6983 15.0794C25.0669 11.4868 28.1151 6.91452 32.056 4.95495L29.0295 0.709229C23.0855 3.53971 17.2504 10.028 18.2519 18.2364C18.8833 23.4184 21.8662 26.8368 26.112 26.8368C27.9627 26.8368 29.5085 26.2924 30.7278 25.2038C31.9471 24.1151 32.535 22.6346 32.535 20.7839Z" fill="#E93737"/>
</svg>
