<svg width="86" height="86" viewBox="0 0 86 86" fill="none" xmlns="http://www.w3.org/2000/svg">
<path d="M59.8212 44.7787C61.8783 43.653 63.5943 41.9939 64.7887 39.9759C65.9832 37.9579 66.6121 35.6554 66.6093 33.3104C66.6093 16.2519 40.578 15.9319 40.578 33.3104C40.5794 35.6547 41.2102 37.9556 42.4045 39.973C43.5987 41.9903 45.3127 43.65 47.3674 44.7787C43.6591 46.071 40.4477 48.4904 38.1825 51.6982C35.9173 54.9059 34.7116 58.7417 34.7343 62.6686V74.4119C34.7343 74.7641 34.8742 75.1019 35.1233 75.351C35.3723 75.6001 35.7101 75.74 36.0624 75.74H40.578C40.1863 73.8111 40.2283 71.8192 40.7008 69.9085C41.1734 67.9978 42.0647 66.216 43.3103 64.692C44.5559 63.168 46.1247 61.9399 47.9032 61.0966C49.6817 60.2533 51.6253 59.8158 53.5936 59.8158C55.5619 59.8158 57.5056 60.2533 59.2841 61.0966C61.0625 61.9399 62.6313 63.168 63.8769 64.692C65.1226 66.216 66.0139 67.9978 66.4864 69.9085C66.959 71.8192 67.0009 73.8111 66.6093 75.74H71.1249C71.4771 75.74 71.8149 75.6001 72.064 75.351C72.3131 75.1019 72.453 74.7641 72.453 74.4119V62.6686C72.4757 58.7418 71.2703 54.9062 69.0053 51.6985C66.7403 48.4907 63.5292 46.0713 59.8212 44.7787Z" fill="#A3C1FF"/>
<path d="M53.5938 83.7087C59.4618 83.7087 64.2188 78.9517 64.2188 73.0837C64.2188 67.2157 59.4618 62.4587 53.5938 62.4587C47.7257 62.4587 42.9688 67.2157 42.9688 73.0837C42.9688 78.9517 47.7257 83.7087 53.5938 83.7087Z" fill="#A3C1FF"/>
<path d="M73.9618 38.9509C76.1686 37.6746 77.8936 35.7071 78.8704 33.3523C79.8472 30.9976 80.0214 28.3868 79.366 25.9232C78.7107 23.4596 77.2623 21.2804 75.2446 19.7222C73.227 18.164 70.7523 17.3137 68.2031 17.3025C65.7022 17.3033 63.27 18.1213 61.2769 19.632C63.3675 20.8121 65.1598 22.4556 66.5164 24.4361C67.8729 26.4167 68.7576 28.6818 69.1026 31.0575C69.4476 33.4332 69.2436 35.8564 68.5063 38.141C67.7691 40.4256 66.5182 42.5109 64.8496 44.2369C67.9912 46.1775 70.5834 48.8904 72.3794 52.1168C74.1754 55.3433 75.1152 58.9759 75.1094 62.6686V69.8683H82.8125C83.1647 69.8683 83.5025 69.7284 83.7516 69.4794C84.0007 69.2303 84.1406 68.8925 84.1406 68.5402V53.8605C84.1387 50.6402 83.1666 47.4953 81.3509 44.8357C79.5352 42.1762 76.9603 40.1254 73.9618 38.9509Z" fill="#A3C1FF"/>
<path d="M42.3379 44.2368C40.6694 42.5108 39.4185 40.4254 38.6814 38.1408C37.9442 35.8561 37.7404 33.4329 38.0855 31.0572C38.4306 28.6815 39.3154 26.4164 40.6721 24.4359C42.0288 22.4553 43.8212 20.812 45.9119 19.632C44.1954 18.3356 42.1505 17.5451 40.0083 17.3498C37.8661 17.1546 35.712 17.5624 33.7894 18.5271C31.8669 19.4919 30.2524 20.9751 29.1286 22.8092C28.0047 24.6434 27.4163 26.7553 27.4297 28.9063C27.4303 30.9418 27.9661 32.9413 28.9834 34.7043C30.0007 36.4673 31.4637 37.9318 33.2256 38.9509C30.2272 40.1254 27.6523 42.1761 25.8366 44.8357C24.0209 47.4953 23.0487 50.6402 23.0469 53.8604V68.5402C23.0469 68.8925 23.1868 69.2303 23.4359 69.4793C23.6849 69.7284 24.0228 69.8683 24.375 69.8683H32.0781V62.6686C32.0721 58.9759 33.0119 55.3432 34.8079 52.1167C36.6039 48.8902 39.1962 46.1774 42.3379 44.2368Z" fill="#A3C1FF"/>
<path d="M56.8769 23.6775C59.1641 22.3687 60.9547 20.3407 61.9702 17.909C62.9856 15.4773 63.1691 12.7781 62.4919 10.2314C61.8148 7.68464 60.315 5.43306 58.2259 3.82683C56.1367 2.22059 53.5754 1.34975 50.9402 1.34975C48.3049 1.34975 45.7436 2.22059 43.6544 3.82683C41.5653 5.43306 40.0655 7.68464 39.3884 10.2314C38.7112 12.7781 38.8947 15.4773 39.9101 17.909C40.9256 20.3407 42.7162 22.3687 45.0034 23.6775C42.4186 24.6249 40.0993 26.1795 38.2406 28.2104C36.0991 27.8631 33.9155 27.8631 31.774 28.2104C29.9224 26.1658 27.5962 24.6081 25.0005 23.6748C27.2876 22.3649 29.0776 20.3358 30.092 17.9032C31.1064 15.4706 31.2884 12.771 30.6096 10.2243C29.9309 7.67755 28.4294 5.42657 26.3389 3.82154C24.2483 2.2165 21.6859 1.34741 19.0503 1.34948C16.4147 1.35154 13.8537 2.22465 11.7656 3.83296C9.67762 5.44126 8.1797 7.69459 7.50493 10.2424C6.83016 12.7901 7.01638 15.4895 8.03461 17.9205C9.05284 20.3515 10.846 22.3778 13.1351 23.6841C9.81521 24.8996 6.94809 27.1043 4.9206 30.0005C2.89311 32.8967 1.80282 36.3452 1.79688 39.8806V50.5056C1.79688 50.8579 1.9368 51.1957 2.18587 51.4447C2.43495 51.6938 2.77276 51.8337 3.125 51.8337H15.4952C16.4104 56.3315 18.8521 60.3748 22.4066 63.2788C25.9611 66.1828 30.41 67.7691 35 67.7691C39.59 67.7691 44.0389 66.1828 47.5934 63.2788C51.1479 60.3748 53.5896 56.3315 54.5048 51.8337H66.875C67.2272 51.8337 67.5651 51.6938 67.8141 51.4447C68.0632 51.1957 68.2031 50.8579 68.2031 50.5056V39.8806C68.2128 36.3424 67.1302 32.8874 65.103 29.9875C63.0759 27.0875 60.2031 24.8839 56.8769 23.6775ZM41.6406 13.3181C41.6406 11.4794 42.1859 9.68191 43.2074 8.15305C44.229 6.62419 45.681 5.43258 47.3797 4.72892C49.0785 4.02527 50.9478 3.84116 52.7512 4.19988C54.5546 4.5586 56.2112 5.44404 57.5114 6.74423C58.8116 8.04442 59.697 9.70097 60.0557 11.5044C60.4145 13.3078 60.2304 15.1771 59.5267 16.8759C58.823 18.5747 57.6314 20.0266 56.1026 21.0482C54.5737 22.0697 52.7762 22.615 50.9375 22.615C48.4727 22.6122 46.1096 21.6318 44.3667 19.8889C42.6238 18.146 41.6434 15.7829 41.6406 13.3181ZM9.76562 13.3181C9.76562 11.4794 10.3109 9.68191 11.3324 8.15305C12.354 6.62419 13.806 5.43258 15.5047 4.72892C17.2035 4.02527 19.0728 3.84116 20.8762 4.19988C22.6796 4.5586 24.3362 5.44404 25.6364 6.74423C26.9366 8.04442 27.822 9.70097 28.1807 11.5044C28.5395 13.3078 28.3554 15.1771 27.6517 16.8759C26.948 18.5747 25.7564 20.0266 24.2276 21.0482C22.6987 22.0697 20.9012 22.615 19.0625 22.615C16.5977 22.6122 14.2346 21.6318 12.4917 19.8889C10.7488 18.146 9.76844 15.7829 9.76562 13.3181ZM4.45312 49.1775V39.8806C4.45522 37.0678 5.26868 34.3153 6.79594 31.9533C8.3232 29.5913 10.4994 27.7199 13.0636 26.5637C15.6278 25.4075 18.471 25.0156 21.2524 25.4349C24.0338 25.8541 26.6351 27.0669 28.7445 28.9276C24.778 30.2628 21.3282 32.8046 18.8777 36.1974C16.4272 39.5902 15.0987 43.6642 15.0781 47.8494C15.0781 48.2876 15.0927 48.7326 15.122 49.1775H4.45312ZM35 65.115C31.5852 65.115 28.2471 64.1024 25.4077 62.2052C22.5684 60.308 20.3554 57.6115 19.0486 54.4566C17.7418 51.3018 17.3999 47.8302 18.0661 44.481C18.7323 41.1318 20.3767 38.0554 22.7914 35.6407C25.206 33.2261 28.2824 31.5817 31.6316 30.9155C34.9808 30.2493 38.4524 30.5912 41.6073 31.898C44.7621 33.2048 47.4587 35.4178 49.3558 38.2571C51.253 41.0964 52.2656 44.4345 52.2656 47.8494C52.2537 52.4248 50.4308 56.8095 47.1955 60.0448C43.9601 63.2802 39.5755 65.1031 35 65.115ZM65.5469 49.1775H54.878C54.9073 48.7326 54.9219 48.2876 54.9219 47.8494C54.8979 43.6661 53.5688 39.5946 51.1198 36.203C48.6708 32.8114 45.2241 30.2689 41.2608 28.9302C43.3686 27.0666 45.9697 25.8514 48.7516 25.4304C51.5335 25.0094 54.3777 25.4007 56.9425 26.5572C59.5074 27.7136 61.6838 29.5861 63.2101 31.9496C64.7365 34.3131 65.5479 37.0671 65.5469 39.8806V49.1775Z" fill="#0A2761"/>
<path d="M31.2734 59.2115C28.878 58.4289 26.792 56.9081 25.3142 54.867C23.8364 52.8259 23.0427 50.3693 23.047 47.8494C23.047 47.4971 22.907 47.1593 22.658 46.9102C22.4089 46.6612 22.0711 46.5212 21.7188 46.5212C21.3666 46.5212 21.0288 46.6612 20.7797 46.9102C20.5306 47.1593 20.3907 47.4971 20.3907 47.8494C20.3852 50.9293 21.3552 53.9318 23.1616 56.4264C24.968 58.9209 27.518 60.7793 30.446 61.7349C30.6128 61.7936 30.7896 61.8184 30.9661 61.8079C31.1426 61.7974 31.3153 61.7517 31.4739 61.6735C31.6325 61.5954 31.7739 61.4864 31.8899 61.3528C32.0058 61.2193 32.0939 61.064 32.149 60.896C32.2041 60.7279 32.2251 60.5506 32.2107 60.3743C32.1964 60.1981 32.1469 60.0265 32.0654 59.8696C31.9838 59.7127 31.8718 59.5737 31.7358 59.4607C31.5998 59.3476 31.4426 59.2629 31.2734 59.2115Z" fill="#0A2761"/>
</svg>
