<svg width="86" height="86" viewBox="0 0 86 86" fill="none" xmlns="http://www.w3.org/2000/svg">
<path d="M79.5594 45.2721H72.7034V43.9009C72.7034 41.6384 70.8523 39.7873 68.5898 39.7873C66.3273 39.7873 64.4762 41.6384 64.4762 43.9009V45.2721H56.249V42.5297C56.249 41.7755 55.632 41.1585 54.8778 41.1585H50.7642V38.4161H58.9914C61.2539 38.4161 63.105 36.565 63.105 34.3025V21.9617C63.105 19.6992 61.2539 17.8481 58.9914 17.8481H39.7946C37.5322 17.8481 35.6811 19.6992 35.6811 21.9617V34.3025C35.6811 36.565 37.5322 38.4161 39.7946 38.4161H48.0218V41.1585H43.9082C43.1541 41.1585 42.537 41.7755 42.537 42.5297V45.2721H19.2267C16.9642 45.2721 15.1131 47.1232 15.1131 49.3857V56.2417H83.673V49.3857C83.673 47.1232 81.8219 45.2721 79.5594 45.2721Z" fill="#A3C1FF"/>
<path d="M15.1131 80.9233C15.1131 83.1857 16.9642 85.0369 19.2267 85.0369H35.6811C37.9435 85.0369 39.7946 83.1857 39.7946 80.9233V58.9841H15.1131V80.9233ZM24.7115 71.3249H30.1963C30.9504 71.3249 31.5675 71.9419 31.5675 72.6961C31.5675 73.4502 30.9504 74.0673 30.1963 74.0673H24.7115C23.9573 74.0673 23.3403 73.4502 23.3403 72.6961C23.3403 71.9419 23.9573 71.3249 24.7115 71.3249Z" fill="#A3C1FF"/>
<path d="M58.9915 80.9233C58.9915 83.1857 60.8426 85.0369 63.1051 85.0369H79.5595C81.8219 85.0369 83.6731 83.1857 83.6731 80.9233V58.9841H58.9915V80.9233ZM68.5899 71.3249H74.0747C74.8288 71.3249 75.4459 71.9419 75.4459 72.6961C75.4459 73.4502 74.8288 74.0673 74.0747 74.0673H68.5899C67.8357 74.0673 67.2187 73.4502 67.2187 72.6961C67.2187 71.9419 67.8357 71.3249 68.5899 71.3249Z" fill="#A3C1FF"/>
<path d="M24.7115 21.9617C29.145 21.9617 33.1443 19.2878 34.8355 15.1971C36.5266 11.1064 35.5896 6.37572 32.4587 3.24481C29.3278 0.113908 24.5972 -0.823079 20.5065 0.868067C16.4157 2.55921 13.7419 6.55854 13.7419 10.9921C13.7419 17.0482 18.6553 21.9617 24.7115 21.9617ZM24.7115 2.76489C28.0481 2.76489 31.0418 4.77598 32.3216 7.83833C33.6014 10.9235 32.893 14.4429 30.5391 16.7968C28.1852 19.1507 24.6429 19.8592 21.5805 18.5794C18.4953 17.2996 16.5072 14.3058 16.5072 10.9692C16.4843 6.44428 20.1637 2.76489 24.7115 2.76489Z" fill="#0A2761"/>
<path d="M34.3099 46.6432C34.3099 47.3974 34.9269 48.0144 35.6811 48.0144H54.8779C55.3121 48.0144 55.7234 47.8088 55.9976 47.4431L66.9672 32.3599C67.4015 31.7429 67.2872 30.8973 66.6702 30.4402C66.0532 30.006 65.2076 30.1203 64.7505 30.7373L54.1923 45.2492H35.6811C34.9269 45.272 34.3099 45.8891 34.3099 46.6432Z" fill="#0A2761"/>
<path d="M63.1051 50.7568H38.4235C36.161 50.7568 34.3099 52.6079 34.3099 54.8704C34.3099 57.1329 36.161 58.984 38.4235 58.984H63.1051C65.3675 58.984 67.2187 57.1329 67.2187 54.8704C67.2187 52.6079 65.3675 50.7568 63.1051 50.7568ZM63.1051 56.2416H38.4235C37.6693 56.2416 37.0523 55.6246 37.0523 54.8704C37.0523 54.1163 37.6693 53.4992 38.4235 53.4992H63.1051C63.8592 53.4992 64.4763 54.1163 64.4763 54.8704C64.4763 55.6246 63.8592 56.2416 63.1051 56.2416Z" fill="#0A2761"/>
<path d="M52.1355 35.6737C52.1355 31.8801 49.0731 28.8177 45.2795 28.8177H28.1166C25.2599 25.3211 20.9864 23.3101 16.4843 23.3329C8.16567 23.3329 1.40109 30.0975 1.40109 38.4161V67.2113C1.40109 67.9654 2.01813 68.5825 2.77229 68.5825H30.1963C30.9504 68.5825 31.5675 67.9654 31.5675 67.2113V42.5297H45.2795C49.0731 42.5297 52.1355 39.4674 52.1355 35.6737ZM30.1963 39.7873C29.4421 39.7873 28.8251 40.4043 28.8251 41.1585V65.8401H4.14349V38.4161C4.14349 31.6058 9.67399 26.0753 16.4843 26.0753C20.3693 26.0525 24.0259 27.8807 26.3341 31.0116C26.5855 31.3544 26.9968 31.5601 27.431 31.5601H45.2795C47.5419 31.5601 49.3931 33.4112 49.3931 35.6737C49.3931 37.9362 47.5419 39.7873 45.2795 39.7873H30.1963Z" fill="#0A2761"/>
</svg>
