<svg width="86" height="86" viewBox="0 0 86 86" fill="none" xmlns="http://www.w3.org/2000/svg">
<path d="M73.0841 31.3547C71.1488 31.358 69.2508 31.8878 67.5937 32.8874C67.5751 32.7466 67.5512 32.6045 67.5273 32.4637C66.8849 28.6792 64.9997 25.2166 62.1695 22.6233C59.3393 20.0299 55.7256 18.4537 51.8994 18.1437C48.0733 17.8336 44.253 18.8075 41.0422 20.9114C37.8314 23.0153 35.4133 26.1292 34.1701 29.761C32.5445 29.0256 30.7749 28.6635 28.9912 28.7012C27.2074 28.7388 25.4547 29.1753 23.8616 29.9786C22.2685 30.7819 20.8755 31.9317 19.7846 33.3436C18.6938 34.7554 17.9329 36.3936 17.5577 38.1378C17.1824 39.8821 17.2025 41.6882 17.6162 43.4237C18.03 45.1592 18.827 46.7801 19.9489 48.1675C21.0707 49.5548 22.4889 50.6734 24.0994 51.4412C25.7099 52.2091 27.4718 52.6066 29.256 52.6047H30.7169V42.9094C30.7169 41.2539 31.3746 39.6662 32.5452 38.4955C33.7159 37.3249 35.3036 36.6672 36.9591 36.6672H56.3365C57.1592 36.6647 57.9742 36.8255 58.7343 37.1404C59.4944 37.4552 60.1845 37.9178 60.7644 38.5014L68.4676 46.2045C69.0491 46.7843 69.51 47.4735 69.8236 48.2323C70.1373 48.9912 70.2975 49.8047 70.2951 50.6258V52.6047H73.0841C75.9021 52.6047 78.6046 51.4853 80.5971 49.4928C82.5897 47.5002 83.7091 44.7977 83.7091 41.9797C83.7091 39.1618 82.5897 36.4593 80.5971 34.4667C78.6046 32.4742 75.9021 31.3547 73.0841 31.3547Z" fill="#A3C1FF"/>
<path d="M58.8838 40.378C58.5501 40.0423 58.1532 39.7762 57.7159 39.5952C57.2786 39.4142 56.8097 39.3218 56.3364 39.3235H36.9591C36.008 39.3235 35.0959 39.7013 34.4234 40.3738C33.7509 41.0463 33.3731 41.9584 33.3731 42.9094V80.8938C33.3731 81.8448 33.7509 82.7569 34.4234 83.4294C35.0959 84.1019 36.008 84.4797 36.9591 84.4797H64.0528C65.0039 84.4797 65.916 84.1019 66.5885 83.4294C67.261 82.7569 67.6388 81.8448 67.6388 80.8938V50.6258C67.6403 50.1529 67.5479 49.6843 67.3672 49.2473C67.1864 48.8103 66.9207 48.4135 66.5856 48.0798L58.8838 40.378ZM57.7814 73.8547H44.5002C44.1479 73.8547 43.8101 73.7148 43.561 73.4657C43.312 73.2166 43.172 72.8788 43.172 72.5266C43.172 72.1744 43.312 71.8365 43.561 71.5875C43.8101 71.3384 44.1479 71.1985 44.5002 71.1985H57.7814C58.1337 71.1985 58.4715 71.3384 58.7205 71.5875C58.9696 71.8365 59.1095 72.1744 59.1095 72.5266C59.1095 72.8788 58.9696 73.2166 58.7205 73.4657C58.4715 73.7148 58.1337 73.8547 57.7814 73.8547ZM57.7814 63.2297H44.5002C44.1479 63.2297 43.8101 63.0898 43.561 62.8407C43.312 62.5916 43.172 62.2538 43.172 61.9016C43.172 61.5493 43.312 61.2115 43.561 60.9625C43.8101 60.7134 44.1479 60.5735 44.5002 60.5735H57.7814C58.1337 60.5735 58.4715 60.7134 58.7205 60.9625C58.9696 61.2115 59.1095 61.5493 59.1095 61.9016C59.1095 62.2538 58.9696 62.5916 58.7205 62.8407C58.4715 63.0898 58.1337 63.2297 57.7814 63.2297ZM57.7814 52.6047H44.5002C44.1479 52.6047 43.8101 52.4648 43.561 52.2157C43.312 51.9666 43.172 51.6288 43.172 51.2766C43.172 50.9243 43.312 50.5865 43.561 50.3375C43.8101 50.0884 44.1479 49.9485 44.5002 49.9485H57.7814C58.1337 49.9485 58.4715 50.0884 58.7205 50.3375C58.9696 50.5865 59.1095 50.9243 59.1095 51.2766C59.1095 51.6288 58.9696 51.9666 58.7205 52.2157C58.4715 52.4648 58.1337 52.6047 57.7814 52.6047Z" fill="#A3C1FF"/>
<path d="M55.979 12.3718L46.9106 3.30341C46.5415 2.93234 46.1025 2.63811 45.6189 2.43773C45.1354 2.23735 44.617 2.13479 44.0936 2.13599H21.2871C20.2303 2.13599 19.2169 2.55577 18.4697 3.30299C17.7225 4.0502 17.3027 5.06364 17.3027 6.12036V12.761H5.34955C4.29283 12.761 3.27939 13.1808 2.53217 13.928C1.78495 14.6752 1.36517 15.6886 1.36517 16.7454V64.5579C1.36517 65.6146 1.78495 66.628 2.53217 67.3752C3.27939 68.1225 4.29283 68.5422 5.34955 68.5422H37.2246C38.2813 68.5422 39.2947 68.1225 40.0419 67.3752C40.7891 66.628 41.2089 65.6146 41.2089 64.5579V57.9172H53.1621C54.2188 57.9172 55.2322 57.4975 55.9794 56.7502C56.7266 56.003 57.1464 54.9896 57.1464 53.9329V15.1888C57.1476 14.6654 57.0451 14.147 56.8447 13.6635C56.6443 13.18 56.3501 12.741 55.979 12.3718ZM38.5527 64.5579C38.5527 64.9101 38.4128 65.2479 38.1637 65.497C37.9146 65.7461 37.5768 65.886 37.2246 65.886H5.34955C4.99731 65.886 4.65949 65.7461 4.41042 65.497C4.16135 65.2479 4.02142 64.9101 4.02142 64.5579V16.7454C4.02142 16.3931 4.16135 16.0553 4.41042 15.8062C4.65949 15.5572 4.99731 15.4172 5.34955 15.4172H28.1535C28.3298 15.4174 28.5044 15.4528 28.667 15.5212C28.8296 15.5896 28.9769 15.6897 29.1004 15.8157L38.1582 24.8735C38.2842 24.997 38.3843 25.1443 38.4527 25.3069C38.5211 25.4695 38.5565 25.6441 38.5567 25.8204L38.5527 64.5579ZM54.4902 53.9329C54.4902 54.2851 54.3503 54.6229 54.1012 54.872C53.8521 55.1211 53.5143 55.261 53.1621 55.261H41.2089V25.8165C41.2103 25.2914 41.1073 24.7713 40.906 24.2863C40.7046 23.8014 40.409 23.3613 40.0362 22.9915L30.9824 13.9337C30.6121 13.5604 30.1714 13.2645 29.6857 13.0632C29.2001 12.8618 28.6792 12.7591 28.1535 12.761H19.9589V6.12036C19.9589 5.76812 20.0989 5.43031 20.3479 5.18124C20.597 4.93217 20.9348 4.79224 21.2871 4.79224H44.0936C44.4458 4.79231 44.7836 4.93229 45.0326 5.18138L54.101 14.2498C54.3501 14.4988 54.4901 14.8366 54.4902 15.1888V53.9329Z" fill="#0A2761"/>
<path d="M26.5995 28.6985H13.3183C12.9661 28.6985 12.6282 28.8384 12.3792 29.0875C12.1301 29.3366 11.9902 29.6744 11.9902 30.0266C11.9902 30.3789 12.1301 30.7167 12.3792 30.9657C12.6282 31.2148 12.9661 31.3547 13.3183 31.3547H26.5995C26.9518 31.3547 27.2896 31.2148 27.5387 30.9657C27.7877 30.7167 27.9277 30.3789 27.9277 30.0266C27.9277 29.6744 27.7877 29.3366 27.5387 29.0875C27.2896 28.8384 26.9518 28.6985 26.5995 28.6985Z" fill="#0A2761"/>
<path d="M26.5995 39.3235H13.3183C12.9661 39.3235 12.6282 39.4634 12.3792 39.7125C12.1301 39.9616 11.9902 40.2994 11.9902 40.6516C11.9902 41.0039 12.1301 41.3417 12.3792 41.5907C12.6282 41.8398 12.9661 41.9797 13.3183 41.9797H26.5995C26.9518 41.9797 27.2896 41.8398 27.5387 41.5907C27.7877 41.3417 27.9277 41.0039 27.9277 40.6516C27.9277 40.2994 27.7877 39.9616 27.5387 39.7125C27.2896 39.4634 26.9518 39.3235 26.5995 39.3235Z" fill="#0A2761"/>
<path d="M26.5995 49.9485H13.3183C12.9661 49.9485 12.6282 50.0884 12.3792 50.3375C12.1301 50.5866 11.9902 50.9244 11.9902 51.2766C11.9902 51.6289 12.1301 51.9667 12.3792 52.2157C12.6282 52.4648 12.9661 52.6047 13.3183 52.6047H26.5995C26.9518 52.6047 27.2896 52.4648 27.5387 52.2157C27.7877 51.9667 27.9277 51.6289 27.9277 51.2766C27.9277 50.9244 27.7877 50.5866 27.5387 50.3375C27.2896 50.0884 26.9518 49.9485 26.5995 49.9485Z" fill="#0A2761"/>
</svg>
