<svg width="86" height="86" viewBox="0 0 86 86" fill="none" xmlns="http://www.w3.org/2000/svg">
<path d="M80.4114 71.7556H21.4985C20.4377 71.7525 19.419 72.1702 18.6658 72.9171C17.9127 73.6641 17.4865 74.6793 17.4809 75.74V78.3963C17.4865 79.457 17.9127 80.4722 18.6658 81.2192C19.419 81.9661 20.4377 82.3838 21.4985 82.3806H80.4114C81.472 82.3835 82.4903 81.9656 83.2432 81.2187C83.9961 80.4718 84.4221 79.4568 84.4277 78.3963V75.74C84.4221 74.6795 83.9961 73.6645 83.2432 72.9176C82.4903 72.1707 81.472 71.7528 80.4114 71.7556Z" fill="#A3C1FF"/>
<path d="M28.1815 69.0994H73.7269C74.7876 69.1025 75.8061 68.6848 76.5591 67.9378C77.3121 67.1908 77.7379 66.1756 77.7432 65.115V62.4587C77.7379 61.3981 77.3121 60.3829 76.5591 59.6359C75.8061 58.8889 74.7876 58.4712 73.7269 58.4744H28.1815C27.121 58.4715 26.1026 58.8894 25.3498 59.6363C24.5969 60.3832 24.1709 61.3982 24.1653 62.4587V65.115C24.1709 66.1755 24.5969 67.1905 25.3498 67.9374C26.1026 68.6843 27.121 69.1022 28.1815 69.0994Z" fill="#A3C1FF"/>
<path d="M36.1943 55.8181H65.7158C66.7764 55.8209 67.7947 55.4031 68.5476 54.6562C69.3005 53.9093 69.7265 52.8943 69.7321 51.8337V49.1775C69.7265 48.117 69.3005 47.102 68.5476 46.3551C67.7947 45.6081 66.7764 45.1903 65.7158 45.1931H36.1943C35.1336 45.1899 34.1151 45.6077 33.3621 46.3547C32.6091 47.1017 32.1833 48.1169 32.178 49.1775V51.8337C32.1833 52.8944 32.6091 53.9096 33.3621 54.6566C34.1151 55.4035 35.1336 55.8213 36.1943 55.8181Z" fill="#A3C1FF"/>
<path d="M48.2762 27.9275C48.2762 27.7521 48.3109 27.5784 48.3784 27.4165C48.4459 27.2546 48.5448 27.1076 48.6694 26.9841C48.794 26.8606 48.9418 26.7631 49.1043 26.697C49.2669 26.631 49.4408 26.5978 49.6163 26.5994H52.2938C52.4691 26.598 52.6429 26.6313 52.8053 26.6974C52.9676 26.7635 53.1153 26.8611 53.2398 26.9846C53.3642 27.1081 53.463 27.255 53.5304 27.4168C53.5978 27.5786 53.6325 27.7522 53.6325 27.9275V27.9421H65.6826V25.2713C65.6773 24.2106 65.2515 23.1954 64.4985 22.4484C63.7455 21.7014 62.727 21.2837 61.6663 21.2869H57.6488V19.9588C57.6435 18.8981 57.2176 17.8829 56.4647 17.1359C55.7117 16.3889 54.6931 15.9712 53.6325 15.9744H48.2762C47.2157 15.9716 46.1973 16.3894 45.4444 17.1363C44.6915 17.8832 44.2656 18.8982 44.2599 19.9588V21.2869H40.2437C39.1829 21.2837 38.1642 21.7014 37.411 22.4484C36.6579 23.1953 36.2317 24.2105 36.2261 25.2713V27.9421H48.2762V27.9275ZM46.9374 19.9588C46.9395 19.6053 47.0816 19.2671 47.3325 19.0182C47.5834 18.7693 47.9227 18.6299 48.2762 18.6306H53.6325C53.8078 18.6292 53.9817 18.6625 54.144 18.7287C54.3064 18.7948 54.4541 18.8924 54.5785 19.0159C54.703 19.1393 54.8017 19.2862 54.8692 19.448C54.9366 19.6099 54.9713 19.7834 54.9713 19.9588V21.2869H46.9374V19.9588Z" fill="#A3C1FF"/>
<path d="M40.2437 42.5369H61.6663C62.727 42.5401 63.7455 42.1223 64.4985 41.3753C65.2515 40.6283 65.6773 39.6131 65.6826 38.5525V30.5984H54.9341C54.5889 30.5984 54.2578 30.7355 54.0137 30.9796C53.7696 31.2237 53.6325 31.5547 53.6325 31.8999V31.9119C53.6325 32.2641 53.4926 32.6019 53.2435 32.851C52.9944 33.1001 52.6566 33.24 52.3044 33.24H49.6163C49.2614 33.239 48.9214 33.0976 48.6703 32.8468C48.4193 32.596 48.2776 32.2561 48.2762 31.9013C48.2762 31.5561 48.1391 31.225 47.895 30.9809C47.6509 30.7368 47.3198 30.5997 46.9746 30.5997H36.2261V38.5525C36.2317 39.6132 36.6579 40.6285 37.411 41.3754C38.1642 42.1224 39.1829 42.5401 40.2437 42.5369Z" fill="#A3C1FF"/>
<path d="M60.7127 32.0805L49.6587 21.2869C47.903 19.5747 45.5449 18.6208 43.0925 18.6306H42.1841C43.0859 17.7752 43.8045 16.7455 44.2962 15.604C44.788 14.4625 45.0427 13.2329 45.0448 11.99C45.0032 9.50106 43.9852 7.12817 42.2104 5.38279C40.4356 3.6374 38.046 2.65929 35.5567 2.65929C33.0675 2.65929 30.6779 3.6374 28.903 5.38279C27.1282 7.12817 26.1102 9.50106 26.0686 11.99C26.0708 13.2329 26.3254 14.4625 26.8172 15.604C27.309 16.7455 28.0276 17.7752 28.9294 18.6306H28.0209C25.569 18.6208 23.2113 19.5748 21.456 21.2869L10.4034 32.0779C9.70082 32.7466 9.19903 33.5983 8.95452 34.5369C8.71 35.4756 8.73249 36.4638 9.01945 37.3904C8.18353 37.6223 7.44613 38.1206 6.91925 38.8098C6.39238 39.499 6.10481 40.3412 6.10023 41.2087V42.5368C5.03971 42.534 4.02134 42.9519 3.26846 43.6988C2.51557 44.4457 2.08961 45.4607 2.08398 46.5212V53.1618C2.08961 54.2224 2.51557 55.2374 3.26846 55.9843C4.02134 56.7312 5.03971 57.149 6.10023 57.1462H16.8116C17.8723 57.1494 18.891 56.7317 19.6442 55.9847C20.3974 55.2378 20.8235 54.2226 20.8291 53.1618V46.5212C20.8235 45.4605 20.3974 44.4453 19.6442 43.6983C18.891 42.9514 17.8723 42.5337 16.8116 42.5368V41.2087C16.801 41.0347 16.7784 40.8616 16.7438 40.6908C17.2643 40.4448 17.7426 40.118 18.1609 39.7226L23.3526 34.6385V63.7868C23.3839 65.2018 23.968 66.5483 24.9798 67.5379C25.9916 68.5275 27.3507 69.0817 28.766 69.0817C30.1813 69.0817 31.5404 68.5275 32.5522 67.5379C33.564 66.5483 34.1481 65.2018 34.1795 63.7868V47.8493H36.934V63.7868C36.9562 65.2081 37.5364 66.5635 38.5494 67.5607C39.5623 68.5579 40.9267 69.1168 42.3481 69.1168C43.7695 69.1168 45.1339 68.5579 46.1468 67.5607C47.1597 66.5635 47.7399 65.2081 47.7622 63.7868V34.6385L52.9578 39.7279C54.0001 40.7301 55.39 41.2898 56.8359 41.2898C58.2819 41.2898 59.6717 40.7301 60.7141 39.7279C61.2277 39.2322 61.6362 38.6382 61.9152 37.9812C62.1942 37.3242 62.3379 36.6177 62.3378 35.9039C62.3377 35.1901 62.1937 34.4837 61.9145 33.8268C61.6353 33.1699 61.2266 32.576 60.7127 32.0805ZM37.6777 21.2869L35.5527 23.3933L33.4277 21.2869H37.6777ZM28.7461 11.99C28.7956 10.2166 29.5349 8.53251 30.8067 7.2957C32.0786 6.05889 33.7827 5.36693 35.5567 5.36693C37.3308 5.36693 39.0349 6.05889 40.3067 7.2957C41.5785 8.53251 42.3178 10.2166 42.3673 11.99C42.3178 13.7633 41.5785 15.4474 40.3067 16.6843C39.0349 17.9211 37.3308 18.613 35.5567 18.613C33.7827 18.613 32.0786 17.9211 30.8067 16.6843C29.5349 15.4474 28.7956 13.7633 28.7461 11.99ZM18.1543 46.5212V53.1618C18.1522 53.5155 18.0099 53.8539 17.7587 54.1029C17.5075 54.3518 17.1679 54.491 16.8142 54.49H6.10023C5.7468 54.4907 5.40748 54.3513 5.15656 54.1024C4.90565 53.8535 4.76359 53.5153 4.76148 53.1618V46.5212C4.76359 46.1678 4.90565 45.8296 5.15656 45.5807C5.40748 45.3317 5.7468 45.1924 6.10023 45.1931H16.8116C17.1657 45.1913 17.506 45.3302 17.7578 45.5793C18.0096 45.8283 18.1522 46.1671 18.1543 46.5212ZM8.77906 42.5368V41.2087C8.77906 41.0334 8.81376 40.8598 8.88117 40.698C8.94857 40.5362 9.04736 40.3893 9.17181 40.2658C9.29627 40.1424 9.44393 40.0447 9.6063 39.9786C9.76866 39.9125 9.94251 39.8792 10.1178 39.8806H10.5973C11.5733 40.7503 12.8271 41.2442 14.1341 41.2738V42.5368H8.77906ZM31.502 63.7868C31.4798 64.4977 31.1818 65.172 30.6712 65.667C30.1605 66.162 29.4772 66.4388 28.766 66.4388C28.0548 66.4388 27.3715 66.162 26.8609 65.667C26.3502 65.172 26.0522 64.4977 26.0301 63.7868V47.8493H31.502V63.7868ZM45.0834 63.7868C45.0676 64.5018 44.7725 65.1823 44.2613 65.6824C43.75 66.1825 43.0633 66.4625 42.3481 66.4625C41.6329 66.4625 40.9462 66.1825 40.4349 65.6824C39.9237 65.1823 39.6286 64.5018 39.6128 63.7868V47.8493H45.0834V63.7868ZM58.8334 37.8326C58.2957 38.3488 57.5793 38.637 56.8339 38.637C56.0886 38.637 55.3721 38.3488 54.8344 37.8326L47.3637 30.516C47.1759 30.3319 46.9381 30.207 46.6799 30.157C46.4217 30.1069 46.1545 30.1339 45.9115 30.2345C45.6685 30.3352 45.4604 30.505 45.3132 30.7229C45.1659 30.9409 45.086 31.1973 45.0834 31.4603V45.1931H26.0301V31.4603C26.0278 31.1973 25.9481 30.9408 25.8011 30.7227C25.654 30.5047 25.446 30.3347 25.203 30.234C24.96 30.1333 24.6928 30.1064 24.4346 30.1565C24.1764 30.2067 23.9387 30.3317 23.751 30.516L16.2843 37.8286C15.7462 38.3461 15.0287 38.6351 14.2821 38.6351C13.5356 38.6351 12.8181 38.3461 12.28 37.8286C12.0208 37.5793 11.8146 37.2802 11.6738 36.9493C11.533 36.6184 11.4604 36.2625 11.4604 35.9029C11.4604 35.5432 11.533 35.1873 11.6738 34.8564C11.8146 34.5255 12.0208 34.2264 12.28 33.9771L23.334 23.1861C24.5867 21.9627 26.27 21.2806 28.0209 21.2869H29.6466L34.6098 26.2102C34.8617 26.4599 35.202 26.5999 35.5567 26.5999C35.9114 26.5999 36.2517 26.4599 36.5037 26.2102L41.4669 21.2869H43.0925C44.8439 21.2805 46.5276 21.9626 47.7808 23.1861L58.8374 33.9771C59.0971 34.2266 59.3037 34.5261 59.4447 34.8576C59.5856 35.189 59.6581 35.5455 59.6577 35.9057C59.6574 36.2659 59.5841 36.6223 59.4425 36.9534C59.3008 37.2845 59.0937 37.5836 58.8334 37.8326Z" fill="#0A2761"/>
</svg>
