<svg width="86" height="86" viewBox="0 0 86 86" fill="none" xmlns="http://www.w3.org/2000/svg">
<path d="M67.5391 31.3547H40.9766C40.2431 31.3547 39.6484 31.9494 39.6484 32.6829V37.9954C39.6484 38.7289 40.2431 39.3235 40.9766 39.3235H67.5391C68.2726 39.3235 68.8672 38.7289 68.8672 37.9954V32.6829C68.8672 31.9494 68.2726 31.3547 67.5391 31.3547Z" fill="#A3C1FF"/>
<path d="M76.8359 18.0735H34.3359C33.4636 18.0726 32.5997 18.2438 31.7936 18.5772C30.9876 18.9106 30.2552 19.3997 29.6383 20.0165C29.0215 20.6333 28.5324 21.3657 28.199 22.1718C27.8656 22.9779 27.6944 23.8418 27.6953 24.7141V71.4641C28.6196 70.5336 29.7196 69.7961 30.9315 69.2945C32.1433 68.7929 33.4428 68.5372 34.7543 68.5422H80.8203V22.0578C80.8203 21.0011 80.4005 19.9877 79.6533 19.2405C78.9061 18.4933 77.8927 18.0735 76.8359 18.0735ZM47.6172 52.6047C47.6172 52.2525 47.7571 51.9147 48.0062 51.6656C48.2552 51.4165 48.5931 51.2766 48.9453 51.2766H59.5703C59.9225 51.2766 60.2604 51.4165 60.5094 51.6656C60.7585 51.9147 60.8984 52.2525 60.8984 52.6047C60.8984 52.957 60.7585 53.2948 60.5094 53.5438C60.2604 53.7929 59.9225 53.9328 59.5703 53.9328H48.9453C48.5931 53.9328 48.2552 53.7929 48.0062 53.5438C47.7571 53.2948 47.6172 52.957 47.6172 52.6047ZM71.5234 37.9953C71.5234 39.0521 71.1037 40.0655 70.3564 40.8127C69.6092 41.5599 68.5958 41.9797 67.5391 41.9797H40.9766C39.9198 41.9797 38.9064 41.5599 38.1592 40.8127C37.412 40.0655 36.9922 39.0521 36.9922 37.9953V32.6828C36.9922 31.6261 37.412 30.6127 38.1592 29.8655C38.9064 29.1183 39.9198 28.6985 40.9766 28.6985H67.5391C68.5958 28.6985 69.6092 29.1183 70.3564 29.8655C71.1037 30.6127 71.5234 31.6261 71.5234 32.6828V37.9953Z" fill="#A3C1FF"/>
<path d="M27.6953 77.8391C27.7546 79.6545 28.5307 81.3724 29.8537 82.617C31.1766 83.8615 32.9387 84.5313 34.7543 84.4797H78.1641C78.8679 84.4776 79.5423 84.1971 80.04 83.6994C80.5377 83.2017 80.8182 82.5273 80.8203 81.8235V79.1672H38.3203C37.9681 79.1672 37.6303 79.0273 37.3812 78.7782C37.1321 78.5292 36.9922 78.1914 36.9922 77.8391C36.9922 77.4869 37.1321 77.1491 37.3812 76.9C37.6303 76.6509 37.9681 76.511 38.3203 76.511H80.8203V71.1985H34.7543C32.9383 71.1455 31.1754 71.8148 29.8522 73.0597C28.5289 74.3045 27.7533 76.0233 27.6953 77.8391Z" fill="#A3C1FF"/>
<path d="M67.5391 2.13599H43.6328C42.5981 2.13889 41.5784 2.38444 40.6558 2.85291C39.7331 3.32138 38.9332 3.99971 38.3203 4.83341C37.7074 3.99971 36.9075 3.32138 35.9849 2.85291C35.0622 2.38444 34.0426 2.13889 33.0078 2.13599H9.10156C8.04484 2.13599 7.0314 2.55577 6.28418 3.30298C5.53697 4.0502 5.11719 5.06364 5.11719 6.12036V59.2454C5.11719 60.3021 5.53697 61.3155 6.28418 62.0627C7.0314 62.81 8.04484 63.2297 9.10156 63.2297H32.458L37.3813 68.1531C37.6304 68.4021 37.9681 68.542 38.3203 68.542C38.6725 68.542 39.0102 68.4021 39.2593 68.1531L44.1827 63.2297H67.5391C68.5958 63.2297 69.6092 62.81 70.3564 62.0627C71.1037 61.3155 71.5234 60.3021 71.5234 59.2454V6.12036C71.5234 5.06364 71.1037 4.0502 70.3564 3.30298C69.6092 2.55577 68.5958 2.13599 67.5391 2.13599ZM7.77344 59.2454V6.12036C7.77344 5.76812 7.91336 5.43031 8.16244 5.18124C8.41151 4.93216 8.74932 4.79224 9.10156 4.79224H33.0078C34.0645 4.79224 35.078 5.21202 35.8252 5.95923C36.5724 6.70645 36.9922 7.71989 36.9922 8.77661V60.5735H9.10156C8.74932 60.5735 8.41151 60.4336 8.16244 60.1845C7.91336 59.9354 7.77344 59.5976 7.77344 59.2454ZM38.3203 65.3361L36.2139 63.2297H40.4267L38.3203 65.3361ZM68.8672 59.2454C68.8672 59.5976 68.7273 59.9354 68.4782 60.1845C68.2291 60.4336 67.8913 60.5735 67.5391 60.5735H39.6484V8.77661C39.6484 7.71989 40.0682 6.70645 40.8154 5.95923C41.5626 5.21202 42.5761 4.79224 43.6328 4.79224H67.5391C67.8913 4.79224 68.2291 4.93216 68.4782 5.18124C68.7273 5.43031 68.8672 5.76812 68.8672 6.12036V59.2454Z" fill="#0A2761"/>
<path d="M30.3516 20.7297H15.7422C15.3899 20.7297 15.0521 20.8697 14.8031 21.1187C14.554 21.3678 14.4141 21.7056 14.4141 22.0579C14.4141 22.4101 14.554 22.7479 14.8031 22.997C15.0521 23.2461 15.3899 23.386 15.7422 23.386H30.3516C30.7038 23.386 31.0416 23.2461 31.2907 22.997C31.5398 22.7479 31.6797 22.4101 31.6797 22.0579C31.6797 21.7056 31.5398 21.3678 31.2907 21.1187C31.0416 20.8697 30.7038 20.7297 30.3516 20.7297Z" fill="#0A2761"/>
<path d="M30.3516 31.3547H15.7422C15.3899 31.3547 15.0521 31.4947 14.8031 31.7437C14.554 31.9928 14.4141 32.3306 14.4141 32.6829C14.4141 33.0351 14.554 33.3729 14.8031 33.622C15.0521 33.8711 15.3899 34.011 15.7422 34.011H30.3516C30.7038 34.011 31.0416 33.8711 31.2907 33.622C31.5398 33.3729 31.6797 33.0351 31.6797 32.6829C31.6797 32.3306 31.5398 31.9928 31.2907 31.7437C31.0416 31.4947 30.7038 31.3547 30.3516 31.3547Z" fill="#0A2761"/>
<path d="M30.3516 41.9797H15.7422C15.3899 41.9797 15.0521 42.1197 14.8031 42.3687C14.554 42.6178 14.4141 42.9556 14.4141 43.3079C14.4141 43.6601 14.554 43.9979 14.8031 44.247C15.0521 44.4961 15.3899 44.636 15.7422 44.636H30.3516C30.7038 44.636 31.0416 44.4961 31.2907 44.247C31.5398 43.9979 31.6797 43.6601 31.6797 43.3079C31.6797 42.9556 31.5398 42.6178 31.2907 42.3687C31.0416 42.1197 30.7038 41.9797 30.3516 41.9797Z" fill="#0A2761"/>
<path d="M62.2266 20.7297H47.6172C47.2649 20.7297 46.9271 20.8697 46.6781 21.1187C46.429 21.3678 46.2891 21.7056 46.2891 22.0579C46.2891 22.4101 46.429 22.7479 46.6781 22.997C46.9271 23.2461 47.2649 23.386 47.6172 23.386H62.2266C62.5788 23.386 62.9166 23.2461 63.1657 22.997C63.4148 22.7479 63.5547 22.4101 63.5547 22.0579C63.5547 21.7056 63.4148 21.3678 63.1657 21.1187C62.9166 20.8697 62.5788 20.7297 62.2266 20.7297Z" fill="#0A2761"/>
<path d="M62.2266 31.3547H47.6172C47.2649 31.3547 46.9271 31.4947 46.6781 31.7437C46.429 31.9928 46.2891 32.3306 46.2891 32.6829C46.2891 33.0351 46.429 33.3729 46.6781 33.622C46.9271 33.8711 47.2649 34.011 47.6172 34.011H62.2266C62.5788 34.011 62.9166 33.8711 63.1657 33.622C63.4148 33.3729 63.5547 33.0351 63.5547 32.6829C63.5547 32.3306 63.4148 31.9928 63.1657 31.7437C62.9166 31.4947 62.5788 31.3547 62.2266 31.3547Z" fill="#0A2761"/>
<path d="M62.2266 41.9797H47.6172C47.2649 41.9797 46.9271 42.1197 46.6781 42.3687C46.429 42.6178 46.2891 42.9556 46.2891 43.3079C46.2891 43.6601 46.429 43.9979 46.6781 44.247C46.9271 44.4961 47.2649 44.636 47.6172 44.636H62.2266C62.5788 44.636 62.9166 44.4961 63.1657 44.247C63.4148 43.9979 63.5547 43.6601 63.5547 43.3079C63.5547 42.9556 63.4148 42.6178 63.1657 42.3687C62.9166 42.1197 62.5788 41.9797 62.2266 41.9797Z" fill="#0A2761"/>
</svg>
