<svg width="82" height="86" viewBox="0 0 82 86" fill="none" xmlns="http://www.w3.org/2000/svg">
<path d="M56.419 39.4018V49.9484H46.3846C46.6744 47.2562 47.8247 44.747 49.6475 42.8312C51.4702 40.9154 53.8575 39.7063 56.419 39.4018Z" fill="#A3C1FF"/>
<path d="M64.7727 60.6067C63.1858 61.9436 61.2865 62.8081 59.2731 63.1097C57.2597 63.4113 55.2062 63.1391 53.3271 62.3214C51.4481 61.5037 49.8125 60.1705 48.5912 58.4613C47.3699 56.752 46.6079 54.7294 46.3846 52.6047H57.1594L64.7727 60.6067Z" fill="#A3C1FF"/>
<path d="M58.9465 39.4018C60.9679 39.6364 62.8923 40.4374 64.5185 41.721C66.1448 43.0046 67.4131 44.7238 68.1911 46.6987C68.9691 48.6737 69.2281 50.8321 68.9412 52.9483C68.6542 55.0644 67.8317 57.0608 66.5597 58.7286L58.9465 50.7267V39.4018Z" fill="#A3C1FF"/>
<path d="M13.4564 32.6829V69.8704C13.4564 70.9271 13.8558 71.9405 14.5667 72.6877C15.2776 73.435 16.2419 73.8547 17.2473 73.8547H43.7831V81.8235H37.465C37.1299 81.8235 36.8085 81.9634 36.5715 82.2125C36.3346 82.4616 36.2014 82.7994 36.2014 83.1516C36.2014 83.5039 36.3346 83.8417 36.5715 84.0907C36.8085 84.3398 37.1299 84.4797 37.465 84.4797H52.6284C52.9635 84.4797 53.2849 84.3398 53.5219 84.0907C53.7589 83.8417 53.892 83.5039 53.892 83.1516C53.892 82.7994 53.7589 82.4616 53.5219 82.2125C53.2849 81.9634 52.9635 81.8235 52.6284 81.8235H46.3103V73.8547H72.8462C73.8516 73.8547 74.8158 73.435 75.5267 72.6877C76.2376 71.9405 76.637 70.9271 76.637 69.8704V32.6829C76.637 31.6261 76.2376 30.6127 75.5267 29.8655C74.8158 29.1183 73.8516 28.6985 72.8462 28.6985H17.2473C16.2419 28.6985 15.2776 29.1183 14.5667 29.8655C13.8558 30.6127 13.4564 31.6261 13.4564 32.6829ZM43.7831 51.2766C43.7812 48.8747 44.3427 46.5093 45.4181 44.3898C46.4934 42.2704 48.0493 40.4624 49.9481 39.1258C51.8468 37.7891 54.0299 36.9652 56.3039 36.7269C58.5779 36.4886 60.8727 36.8433 62.9852 37.7596C65.0976 38.6759 66.9626 40.1255 68.4148 41.98C69.8671 43.8346 70.862 46.0369 71.3113 48.3919C71.7606 50.747 71.6505 53.1822 70.9907 55.4819C70.331 57.7815 69.142 59.8748 67.5289 61.5762C67.5213 61.5855 67.5188 61.5975 67.5099 61.6054C67.5011 61.6134 67.491 61.6174 67.4821 61.6254C65.5373 63.6636 63.0612 65.0502 60.3669 65.6098C57.6725 66.1694 54.8808 65.8769 52.3445 64.7694C49.8082 63.6619 47.6412 61.789 46.1174 59.3874C44.5935 56.9858 43.7812 54.1633 43.7831 51.2766ZM18.5109 59.2454C18.5109 58.8931 18.644 58.5553 18.881 58.3062C19.1179 58.0572 19.4393 57.9172 19.7745 57.9172H37.465C37.8002 57.9172 38.1216 58.0572 38.3586 58.3062C38.5955 58.5553 38.7287 58.8931 38.7287 59.2454C38.7287 59.5976 38.5955 59.9354 38.3586 60.1845C38.1216 60.4336 37.8002 60.5735 37.465 60.5735H19.7745C19.4393 60.5735 19.1179 60.4336 18.881 60.1845C18.644 59.9354 18.5109 59.5976 18.5109 59.2454ZM37.465 52.6047H28.6198C28.2846 52.6047 27.9632 52.4648 27.7263 52.2157C27.4893 51.9667 27.3562 51.6289 27.3562 51.2766C27.3562 50.9244 27.4893 50.5866 27.7263 50.3375C27.9632 50.0884 28.2846 49.9485 28.6198 49.9485H37.465C37.8002 49.9485 38.1216 50.0884 38.3586 50.3375C38.5955 50.5866 38.7287 50.9244 38.7287 51.2766C38.7287 51.6289 38.5955 51.9667 38.3586 52.2157C38.1216 52.4648 37.8002 52.6047 37.465 52.6047ZM18.5109 43.3079C18.5109 42.9556 18.644 42.6178 18.881 42.3687C19.1179 42.1197 19.4393 41.9797 19.7745 41.9797H37.465C37.8002 41.9797 38.1216 42.1197 38.3586 42.3687C38.5955 42.6178 38.7287 42.9556 38.7287 43.3079C38.7287 43.6601 38.5955 43.9979 38.3586 44.247C38.1216 44.4961 37.8002 44.636 37.465 44.636H19.7745C19.4393 44.636 19.1179 44.4961 18.881 44.247C18.644 43.9979 18.5109 43.6601 18.5109 43.3079Z" fill="#A3C1FF"/>
<path d="M45.0467 2.13599H9.66559C8.6602 2.13599 7.69599 2.55577 6.98507 3.30298C6.27415 4.0502 5.87476 5.06364 5.87476 6.12036V64.5579C5.87476 65.6146 6.27415 66.628 6.98507 67.3752C7.69599 68.1225 8.6602 68.5422 9.66559 68.5422H45.0467C46.0521 68.5422 47.0163 68.1225 47.7272 67.3752C48.4382 66.628 48.8376 65.6146 48.8376 64.5579V6.12036C48.8376 5.06364 48.4382 4.0502 47.7272 3.30298C47.0163 2.55577 46.0521 2.13599 45.0467 2.13599ZM46.3103 64.5579C46.3103 64.9101 46.1772 65.2479 45.9402 65.497C45.7033 65.7461 45.3819 65.886 45.0467 65.886H9.66559C9.33046 65.886 9.00906 65.7461 8.77208 65.497C8.53511 65.2479 8.40198 64.9101 8.40198 64.5579V6.12036C8.40198 5.76812 8.53511 5.43031 8.77208 5.18124C9.00906 4.93216 9.33046 4.79224 9.66559 4.79224H45.0467C45.3819 4.79224 45.7033 4.93216 45.9402 5.18124C46.1772 5.43031 46.3103 5.76812 46.3103 6.12036V64.5579Z" fill="#0A2761"/>
<path d="M19.7745 30.0266V22.0579C19.7745 21.7056 19.6414 21.3678 19.4044 21.1187C19.1674 20.8697 18.846 20.7297 18.5109 20.7297H13.4564C13.1213 20.7297 12.7999 20.8697 12.5629 21.1187C12.3259 21.3678 12.1928 21.7056 12.1928 22.0579V30.0266C12.1928 30.3789 12.3259 30.7167 12.5629 30.9657C12.7999 31.2148 13.1213 31.3547 13.4564 31.3547H18.5109C18.846 31.3547 19.1674 31.2148 19.4044 30.9657C19.6414 30.7167 19.7745 30.3789 19.7745 30.0266ZM17.2473 28.6985H14.72V23.386H17.2473V28.6985Z" fill="#0A2761"/>
<path d="M24.8289 31.3547H29.8834C30.2185 31.3547 30.5399 31.2148 30.7769 30.9657C31.0139 30.7167 31.147 30.3789 31.147 30.0266V16.7454C31.147 16.3931 31.0139 16.0553 30.7769 15.8062C30.5399 15.5572 30.2185 15.4172 29.8834 15.4172H24.8289C24.4938 15.4172 24.1724 15.5572 23.9354 15.8062C23.6984 16.0553 23.5653 16.3931 23.5653 16.7454V30.0266C23.5653 30.3789 23.6984 30.7167 23.9354 30.9657C24.1724 31.2148 24.4938 31.3547 24.8289 31.3547ZM26.0925 18.0735H28.6198V28.6985H26.0925V18.0735Z" fill="#0A2761"/>
<path d="M41.2559 10.1047H36.2014C35.8663 10.1047 35.5449 10.2447 35.3079 10.4937C35.071 10.7428 34.9378 11.0806 34.9378 11.4329V30.0266C34.9378 30.3789 35.071 30.7167 35.3079 30.9657C35.5449 31.2148 35.8663 31.3547 36.2014 31.3547H41.2559C41.591 31.3547 41.9124 31.2148 42.1494 30.9657C42.3864 30.7167 42.5195 30.3789 42.5195 30.0266V11.4329C42.5195 11.0806 42.3864 10.7428 42.1494 10.4937C41.9124 10.2447 41.591 10.1047 41.2559 10.1047ZM39.9923 28.6985H37.4651V12.761H39.9923V28.6985Z" fill="#0A2761"/>
<path d="M37.465 39.3235H17.2473C16.9121 39.3235 16.5907 39.4634 16.3537 39.7125C16.1168 39.9616 15.9836 40.2994 15.9836 40.6516C15.9836 41.0039 16.1168 41.3417 16.3537 41.5907C16.5907 41.8398 16.9121 41.9797 17.2473 41.9797H37.465C37.8002 41.9797 38.1216 41.8398 38.3586 41.5907C38.5955 41.3417 38.7287 41.0039 38.7287 40.6516C38.7287 40.2994 38.5955 39.9616 38.3586 39.7125C38.1216 39.4634 37.8002 39.3235 37.465 39.3235Z" fill="#0A2761"/>
<path d="M37.465 47.2922H17.2473C16.9121 47.2922 16.5907 47.4322 16.3537 47.6812C16.1168 47.9303 15.9836 48.2681 15.9836 48.6204C15.9836 48.9726 16.1168 49.3104 16.3537 49.5595C16.5907 49.8086 16.9121 49.9485 17.2473 49.9485H37.465C37.8002 49.9485 38.1216 49.8086 38.3586 49.5595C38.5955 49.3104 38.7287 48.9726 38.7287 48.6204C38.7287 48.2681 38.5955 47.9303 38.3586 47.6812C38.1216 47.4322 37.8002 47.2922 37.465 47.2922Z" fill="#0A2761"/>
<path d="M37.465 55.261H17.2473C16.9121 55.261 16.5907 55.4009 16.3537 55.65C16.1168 55.8991 15.9836 56.2369 15.9836 56.5891C15.9836 56.9414 16.1168 57.2792 16.3537 57.5282C16.5907 57.7773 16.9121 57.9172 17.2473 57.9172H37.465C37.8002 57.9172 38.1216 57.7773 38.3586 57.5282C38.5955 57.2792 38.7287 56.9414 38.7287 56.5891C38.7287 56.2369 38.5955 55.8991 38.3586 55.65C38.1216 55.4009 37.8002 55.261 37.465 55.261Z" fill="#0A2761"/>
</svg>
