<svg width="101" height="101" viewBox="0 0 101 101" fill="none" xmlns="http://www.w3.org/2000/svg">
<g clip-path="url(#clip0)">
<path d="M98.277 53.6399C93.9413 42.5076 83.5709 34.3636 71.2084 33.309L68.2789 27.2744L65.3494 33.1334H62.4199L56.561 47.7809L68.2789 59.4989L98.277 53.6399ZM97.5739 80.0054H88.7854V71.2169C88.7854 69.5977 87.4752 68.2874 85.8559 68.2874C84.2367 68.2874 82.9264 69.5977 82.9264 71.2169V80.0054H65.3494V71.2169C65.3494 69.5977 64.0392 68.2874 62.4199 68.2874C60.8007 68.2874 59.4905 69.5977 59.4905 71.2169V80.0054H50.702C49.0827 80.0054 47.7725 81.3157 47.7725 82.9349C47.7725 84.5541 49.0827 85.8644 50.702 85.8644H97.5739C99.1932 85.8644 100.503 84.5541 100.503 82.9349C100.503 81.3157 99.1932 80.0054 97.5739 80.0054Z" fill="url(#paint0_linear)"/>
<path d="M38.9843 27.2746H65.3498V33.1336H68.2793C69.2751 33.1336 70.2715 33.1922 71.2088 33.3092V27.2746H97.5743C99.215 27.2746 100.504 25.9855 100.504 24.3451C100.504 22.7044 99.215 21.4156 97.5743 21.4156H71.2088V18.4861C71.2088 16.8454 69.92 15.5566 68.2793 15.5566C66.6386 15.5566 65.3498 16.8454 65.3498 18.4861V21.4156H38.9843C37.3436 21.4156 36.0548 22.7044 36.0548 24.3451C36.0548 25.9855 37.3436 27.2746 38.9843 27.2746ZM74.1383 53.6401C67.6936 53.6401 62.4203 48.3668 62.4203 41.9221V33.1336H56.5613C51.9329 33.1336 47.5968 35.3601 44.8433 38.9926H19.9035L14.8648 28.915C14.3373 27.9191 13.3414 27.2746 12.2282 27.2746H3.43973C2.56068 27.2746 1.68203 27.6848 1.15472 28.3878C0.569017 29.0909 0.393051 30.0282 0.569017 30.907L6.42801 54.343C6.77955 55.632 7.95135 56.5694 9.29892 56.5694H43.4373C47.0699 66.9983 57.0302 74.1464 68.2795 74.1464H91.7155C96.5788 74.1464 100.504 70.2205 100.504 65.3579C100.504 61.1978 99.7423 57.2725 98.2776 53.6399H74.1383V53.6401Z" fill="url(#paint1_linear)"/>
</g>
<defs>
<linearGradient id="paint0_linear" x1="74.1379" y1="85.8644" x2="74.1379" y2="27.274" gradientUnits="userSpaceOnUse">
<stop stop-color="#FFBEF9"/>
<stop offset="1" stop-color="#FFF1FF"/>
</linearGradient>
<linearGradient id="paint1_linear" x1="50.5039" y1="74.1462" x2="50.5039" y2="15.5566" gradientUnits="userSpaceOnUse">
<stop stop-color="#A93AFF"/>
<stop offset="1" stop-color="#FF81FF"/>
</linearGradient>
<clipPath id="clip0">
<rect width="100" height="100" fill="white" transform="translate(0.503906 0.710938)"/>
</clipPath>
</defs>
</svg>
