<svg width="101" height="101" viewBox="0 0 101 101" fill="none" xmlns="http://www.w3.org/2000/svg">
<g clip-path="url(#clip0)">
<path d="M89.0312 21.522C74.6174 12.3814 49.1293 14.5493 31.6098 22.0492C30.7887 22.3421 18.0742 21.4634 18.0742 21.4634L11.8916 39.0415H3.03516C1.41582 39.0415 0.105469 40.3519 0.105469 41.9712C0.105469 42.2781 0.152539 42.5736 0.239844 42.8515C0.613086 44.04 1.72266 44.9009 3.03516 44.9009H11.6146L12.2148 56.6197L31.6098 61.8929C36.4729 64.0025 41.9223 65.5843 47.3711 66.639L64.2461 74.3148L76.668 67.2251C91.199 64.1195 99.3438 55.7406 99.9881 43.5531C99.9881 43.5531 100.032 42.7169 100.089 41.6523C100.013 33.0122 96.2088 26.0949 89.0312 21.522Z" fill="url(#paint0_linear)"/>
<path d="M100.105 41.9717C100.105 45.7217 97.9961 50.7607 88.0348 53.866C82.058 55.6824 73.7383 56.6787 63.9535 56.6787C47.7816 56.6787 12.2148 52.9873 12.2148 41.9717C12.2148 30.9561 47.7816 27.2646 63.9535 27.2646C73.7383 27.2646 82.058 28.2605 88.0348 30.077C97.9961 33.1826 100.105 38.2215 100.105 41.9717Z" fill="url(#paint1_linear)"/>
<path d="M29.2074 23.1043C29.9691 22.7527 30.7888 22.3426 31.6099 22.0496C28.6802 18.0066 23.9926 15.6045 18.8361 15.6045H9.28533C8.40623 15.6045 7.52732 16.0146 7.00017 16.7178C6.41443 17.4209 6.23845 18.3582 6.41443 19.2373L12.2152 41.9717C12.215 34.999 18.2504 28.2605 29.2074 23.1043ZM7.00017 67.2256C7.52732 67.9287 8.40642 68.3389 9.28533 68.3389H18.8361C23.9924 68.3389 28.6802 65.9363 31.6099 61.8934C30.7888 61.6004 29.9691 61.1902 29.2074 60.8387C18.2504 55.741 12.215 49.0029 12.215 41.9717L6.41423 64.7061C6.23826 65.5848 6.41423 66.5225 7.00017 67.2256ZM74.2076 67.6943C71.0433 68.2215 67.7031 68.4557 64.2463 68.4557C59.5592 68.4557 54.6955 67.9871 49.773 67.1082C48.9533 66.9908 48.1916 66.8152 47.3713 66.6393V82.9871C47.3713 84.6275 48.6601 85.9168 50.301 85.9168H73.7385C75.3793 85.9168 76.6681 84.6275 76.6681 82.9871V67.2254C75.8478 67.4012 75.0273 67.577 74.2076 67.6943Z" fill="url(#paint2_linear)"/>
</g>
<defs>
<linearGradient id="paint0_linear" x1="50.0971" y1="74.3146" x2="50.0971" y2="15.5048" gradientUnits="userSpaceOnUse">
<stop stop-color="#A93AFF"/>
<stop offset="1" stop-color="#FF81FF"/>
</linearGradient>
<linearGradient id="paint1_linear" x1="56.1602" y1="56.6787" x2="56.1602" y2="27.2645" gradientUnits="userSpaceOnUse">
<stop stop-color="#FFBEF9"/>
<stop offset="1" stop-color="#FFF1FF"/>
</linearGradient>
<linearGradient id="paint2_linear" x1="41.5088" y1="85.917" x2="41.5088" y2="27.2645" gradientUnits="userSpaceOnUse">
<stop stop-color="#FFBEF9"/>
<stop offset="1" stop-color="#FFF1FF"/>
</linearGradient>
<clipPath id="clip0">
<rect width="100" height="100" fill="white" transform="translate(0.105469 0.710938)"/>
</clipPath>
</defs>
</svg>
