<svg width="101" height="71" viewBox="0 0 101 71" fill="none" xmlns="http://www.w3.org/2000/svg">
<path d="M68.4961 18.1328H65.5664V6.41406H68.4961C70.1154 6.41406 71.4258 5.10371 71.4258 3.48438C71.4258 1.86504 70.1154 0.554688 68.4961 0.554688H27.2852C25.6658 0.554688 24.3555 1.86504 24.3555 3.48438C24.3555 5.10371 25.6658 6.41406 27.2852 6.41406H30.2148V18.1328H20.307L16.877 15.2031H3.84766C2.22832 15.2031 0.917969 19.4432 0.917969 21.0625V26.9219C0.917969 27.4998 1.08965 28.0662 1.41016 28.5469C3.60918 31.8457 6.25488 34.7281 9.18711 37.2352L9.75254 39.7104L15.3891 41.6271C20.3361 44.5074 25.8281 46.4215 31.6172 47.1152L45.3469 60.6496C45.226 61.1186 45.0586 61.5713 45.0586 62.0781C45.0586 65.3143 47.6818 67.9375 50.918 67.9375C54.1541 67.9375 56.7773 65.3143 56.7773 62.0781C56.7773 61.5713 56.61 61.1186 56.4891 60.6498L69.8004 47.3385C79.2703 46.924 87.0281 42.1732 88.7977 35.7109L92.1289 32.7812L88.7977 29.8516C86.9457 23.0889 78.5852 18.1328 68.4961 18.1328ZM36.0742 21.0625V6.41406H59.707V18.1328H57.9904L51.7756 16.0607L53.7365 22.1645C53.1879 26.4867 49.5279 29.8516 45.0586 29.8516C40.2121 29.8516 36.0742 25.909 36.0742 21.0625ZM52.3463 56.507C51.8775 56.3861 51.4248 56.2188 50.918 56.2188C50.4111 56.2188 49.9584 56.3861 49.4896 56.507L40.4123 47.4297H61.4236L52.3463 56.507ZM97.9883 18.1328C96.3689 18.1328 95.0586 19.4432 95.0586 21.0625V29.8516L92.1289 32.7273L95.0586 35.7109V44.5C95.0586 46.1193 96.3689 47.4297 97.9883 47.4297C99.6076 47.4297 100.918 46.1193 100.918 44.5V21.0625C100.918 19.4432 99.6076 18.1328 97.9883 18.1328Z" fill="url(#paint0_linear)"/>
<path d="M0.91748 50.3594C0.91748 51.9787 2.22783 53.2891 3.84717 53.2891C5.4665 53.2891 6.77686 51.9787 6.77686 50.3594C6.77686 45.7059 10.4265 41.9244 15.3886 41.6271C13.1995 40.3525 11.1235 38.8912 9.18662 37.2352C4.31182 39.6166 0.91748 44.5791 0.91748 50.3594H0.91748ZM53.736 22.1643C53.7825 21.7994 53.8472 21.4396 53.8472 21.0625C53.8472 19.4432 55.1575 18.1328 56.7769 18.1328H57.9899L52.989 13.1318C51.8446 11.9875 49.9905 11.9875 48.8462 13.1318C47.7019 14.2762 47.7019 16.1303 48.8462 17.2746L53.736 22.1643ZM50.9175 53.2891C46.071 53.2891 42.1284 57.2316 42.1284 62.0781C42.1284 66.9246 46.071 70.8672 50.9175 70.8672C55.764 70.8672 59.7065 66.9246 59.7065 62.0781C59.7065 57.2316 55.764 53.2891 50.9175 53.2891ZM50.9175 65.0078C49.3011 65.0078 47.9878 63.6945 47.9878 62.0781C47.9878 60.4617 49.3011 59.1484 50.9175 59.1484C52.5339 59.1484 53.8472 60.4617 53.8472 62.0781C53.8472 63.6945 52.5339 65.0078 50.9175 65.0078ZM88.7972 29.8516C89.0558 30.7965 89.1987 31.7746 89.1987 32.7812C89.1987 33.7879 89.0558 34.766 88.7972 35.7109H95.0581V29.8516H88.7972ZM12.6362 6.41406H3.84717C2.22783 6.41406 0.91748 7.72441 0.91748 9.34375V21.0625C0.91748 19.4432 2.22783 18.1328 3.84717 18.1328H20.3065L15.2569 8.0334C14.7591 7.04063 13.7464 6.41406 12.6362 6.41406Z" fill="url(#paint1_linear)"/>
<defs>
<linearGradient id="paint0_linear" x1="50.918" y1="67.9373" x2="50.918" y2="0.554611" gradientUnits="userSpaceOnUse">
<stop stop-color="#A93AFF"/>
<stop offset="1" stop-color="#FF81FF"/>
</linearGradient>
<linearGradient id="paint1_linear" x1="47.9878" y1="70.8672" x2="47.9878" y2="6.41364" gradientUnits="userSpaceOnUse">
<stop stop-color="#FFBEF9"/>
<stop offset="1" stop-color="#FFF1FF"/>
</linearGradient>
</defs>
</svg>
