<svg width="101" height="101" viewBox="0 0 101 101" fill="none" xmlns="http://www.w3.org/2000/svg">
<g clip-path="url(#clip0)">
<path d="M38.6929 36.0625C30.6161 36.0625 24.0444 42.6341 24.0444 50.7109V62.4296C24.0444 63.4453 24.5708 64.3867 25.4349 64.9216C26.2806 65.4476 27.3573 65.5107 28.2845 65.0504L40.0032 59.191L38.6929 36.0625ZM57.412 30.2031L65.0601 24.3437V22.7959C65.0601 13.5976 59.9503 5.13394 51.722 1.01987C50.898 0.607959 49.9253 0.607959 49.1013 1.01987C40.8729 5.13394 35.7632 13.5976 35.7632 22.7959V24.3437L42.7019 30.2031H57.412ZM59.2007 56.2156V36.0625H41.6226V56.2156L38.7815 67.5797C38.5612 68.455 38.7587 69.3822 39.3138 70.0916C39.8688 70.8039 40.7214 71.2187 41.6226 71.2187L46.2407 74.1484H54.2896L59.2007 71.2187C60.1019 71.2187 60.9544 70.8039 61.5095 70.0916C62.0646 69.382 62.262 68.455 62.0417 67.5797L59.2007 56.2156ZM62.1304 36.0625L60.82 59.191L72.5388 65.0504C73.4638 65.5097 74.5407 65.4488 75.3884 64.9216C76.2524 64.3867 76.7788 63.4453 76.7788 62.4296V50.7109C76.7788 42.6341 70.2071 36.0625 62.1304 36.0625Z" fill="url(#paint0_linear)"/>
<path d="M76.7788 77.0781C73.2683 77.0781 69.9724 78.6373 67.7351 81.3611C67.2515 81.9506 66.253 82.9375 64.9827 82.9375C61.7956 82.9375 59.2007 80.3426 59.2007 77.1555V71.2188H41.6226V77.1555C41.6226 80.3426 39.0276 82.9375 35.8405 82.9375C34.5702 82.9375 33.5718 81.9504 33.0854 81.3582C30.8509 78.6373 27.555 77.0781 24.0444 77.0781C17.5813 77.0781 12.3257 82.3338 12.3257 88.7969C12.3257 95.26 17.5813 100.711 24.0444 100.711H76.7788C83.2419 100.711 88.4976 95.26 88.4976 88.7969C88.4976 82.3338 83.2419 77.0781 76.7788 77.0781ZM38.6929 59.5H62.1304C63.7497 59.5 65.0601 58.1896 65.0601 56.5703V24.3438H35.7632V56.5703C35.7632 58.1896 37.0735 59.5 38.6929 59.5ZM50.4116 36.0621C52.0296 36.0621 53.3413 37.3738 53.3413 38.9918C53.3413 40.6102 52.0296 41.9215 50.4116 41.9215C48.7933 41.9215 47.4819 40.6102 47.4819 38.9918C47.4819 37.3738 48.7933 36.0621 50.4116 36.0621Z" fill="url(#paint1_linear)"/>
</g>
<defs>
<linearGradient id="paint0_linear" x1="50.4116" y1="74.1482" x2="50.4116" y2="0.710854" gradientUnits="userSpaceOnUse">
<stop stop-color="#A93AFF"/>
<stop offset="1" stop-color="#FF81FF"/>
</linearGradient>
<linearGradient id="paint1_linear" x1="50.4116" y1="100.711" x2="50.4116" y2="24.3432" gradientUnits="userSpaceOnUse">
<stop stop-color="#FFBEF9"/>
<stop offset="1" stop-color="#FFF1FF"/>
</linearGradient>
<clipPath id="clip0">
<rect width="100" height="100" fill="white" transform="translate(0.411621 0.710938)"/>
</clipPath>
</defs>
</svg>
