<svg width="101" height="101" viewBox="0 0 101 101" fill="none" xmlns="http://www.w3.org/2000/svg">
<path d="M50.8232 65.1645C49.2039 65.1645 47.8936 66.4748 47.8936 68.0942V85.6723C47.8936 87.2916 49.2039 88.602 50.8232 88.602C52.4426 88.602 53.7529 87.2916 53.7529 85.6723V68.0942C53.7529 66.4748 52.4426 65.1645 50.8232 65.1645ZM68.0523 65.4363C66.576 64.7555 64.8422 65.3963 64.1613 66.8641C61.06 73.5787 59.6123 79.5555 59.6123 85.6723C59.6123 87.2916 60.9227 88.602 62.542 88.602C64.1613 88.602 65.4717 87.2916 65.4717 85.6723C65.4717 80.3621 66.7076 75.3211 69.4828 69.3244C70.158 67.8567 69.5229 66.1143 68.0523 65.4363ZM33.5941 65.4363C32.1236 66.1145 31.4885 67.8568 32.1637 69.3244C34.9389 75.3211 36.1748 80.3623 36.1748 85.6723C36.1748 87.2916 37.4852 88.602 39.1045 88.602C40.7238 88.602 42.0342 87.2916 42.0342 85.6723C42.0342 79.5555 40.5865 73.5787 37.4852 66.8639C36.8043 65.3963 35.0705 64.7553 33.5941 65.4363ZM94.5861 77.2609C93.4875 73.6561 90.1344 71.0238 86.1748 71.0238C82.2152 71.0238 78.8621 73.6561 77.7635 77.2609C74.1586 78.3566 71.5264 81.7127 71.5264 85.6723C71.5264 90.5188 75.4689 94.4613 80.3154 94.4613H92.0342C96.8807 94.4613 100.823 90.5188 100.823 85.6723C100.823 81.7127 98.191 78.3566 94.5861 77.2609ZM23.883 71.4016C22.7844 67.7967 19.4312 65.1645 15.4717 65.1645C11.5121 65.1645 8.15898 67.7967 7.06035 71.4016C3.45547 72.4973 0.823242 75.8533 0.823242 79.8129C0.823242 84.6594 4.76582 88.602 9.6123 88.602H21.3311C26.1775 88.602 30.1201 84.6594 30.1201 79.8129C30.1201 75.8533 27.4879 72.4973 23.883 71.4016Z" fill="url(#paint0_linear)"/>
<path d="M62.542 82.7422H39.1045C37.4852 82.7422 36.1748 84.0525 36.1748 85.6719V97.7812C36.1748 99.4006 37.4852 100.711 39.1045 100.711H62.542C64.1613 100.711 65.4717 99.4006 65.4717 97.7812V85.6719C65.4717 84.0525 64.1613 82.7422 62.542 82.7422ZM50.8232 0.710938C33.0562 0.710938 18.5967 15.1678 18.5967 32.9375C18.5967 43.9523 23.2258 52.4439 27.7004 60.6521C29.2568 63.5074 30.8133 66.357 32.1578 69.3096C32.6328 70.3539 33.6742 71.0232 34.8242 71.0232H66.8219C67.9721 71.0232 69.0135 70.3537 69.4883 69.3096C70.833 66.357 72.3895 63.5074 73.9457 60.6521C78.4207 52.4439 83.0498 43.9523 83.0498 32.9375C83.0498 15.1678 68.5902 0.710938 50.8232 0.710938Z" fill="url(#paint1_linear)"/>
<defs>
<linearGradient id="paint0_linear" x1="50.8232" y1="94.4613" x2="50.8232" y2="65.1639" gradientUnits="userSpaceOnUse">
<stop stop-color="#FFBEF9"/>
<stop offset="1" stop-color="#FFF1FF"/>
</linearGradient>
<linearGradient id="paint1_linear" x1="50.8232" y1="100.711" x2="50.8232" y2="0.710824" gradientUnits="userSpaceOnUse">
<stop stop-color="#A93AFF"/>
<stop offset="1" stop-color="#FF81FF"/>
</linearGradient>
</defs>
</svg>
