<svg width="79" height="79" viewBox="0 0 79 79" fill="none" xmlns="http://www.w3.org/2000/svg">
<circle cx="39.9217" cy="39.2381" r="39.0038" fill="url(#paint0_linear)"/>
<g clip-path="url(#clip0)">
<path d="M55.8301 26.6629H55.7152V25.3987C55.7152 23.8612 54.4643 22.6102 52.9268 22.6102H50.2156V21.2937C50.2156 19.4258 48.6931 17.9062 46.8217 17.9062H33.0258C31.1544 17.9062 29.6319 19.4259 29.6319 21.2937V22.6102H26.9207C25.3832 22.6102 24.1322 23.8612 24.1322 25.3987V26.6629H24.0174C21.8539 26.6629 20.0938 28.4231 20.0938 30.5866V56.6492C20.0938 58.8127 21.8539 60.5729 24.0175 60.5729H55.8301C57.9936 60.5729 59.7537 58.8127 59.7537 56.6492V30.5867C59.7537 28.4231 57.9936 26.6629 55.8301 26.6629V26.6629ZM52.9268 24.2769C53.5453 24.2769 54.0485 24.7802 54.0485 25.3987V26.6629H50.2156V24.2769H52.9268ZM31.2986 21.2937C31.2986 20.3448 32.0734 19.5729 33.0258 19.5729H46.8217C47.7741 19.5729 48.5489 20.3449 48.5489 21.2937V26.6629H46.3309V22.6146C46.3309 22.1543 45.9577 21.7812 45.4976 21.7812H34.3499C33.8897 21.7812 33.5166 22.1543 33.5166 22.6146V26.663H31.2986V21.2937ZM35.1832 26.6629V23.4479H44.6642V26.663H35.1832V26.6629ZM25.7989 25.3987C25.7989 24.7802 26.3022 24.2769 26.9207 24.2769H29.6319V26.6629H25.7989V25.3987ZM58.0871 56.6492C58.0871 57.8938 57.0747 58.9062 55.8301 58.9062H24.0175C22.7729 58.9062 21.7605 57.8937 21.7605 56.6492V44.8609C23.2394 46.7889 25.5662 48.0342 28.1782 48.0342C28.2059 48.0342 28.2332 48.0327 28.2602 48.0302C28.2872 48.0328 28.3146 48.0342 28.3422 48.0342H28.3917V52.6572C28.3917 53.1175 28.7648 53.4906 29.2251 53.4906H32.7791C33.2393 53.4906 33.6124 53.1175 33.6124 52.6572V48.0342H33.6619C33.7322 48.0342 33.8006 48.0254 33.8659 48.009H36.1566C36.6168 48.009 36.9899 47.6359 36.9899 47.1757C36.9899 46.7154 36.6168 46.3423 36.1566 46.3423H34.4952V40.9762C34.4952 40.5159 34.1222 40.1428 33.6619 40.1428H28.3422C27.8819 40.1428 27.5088 40.5159 27.5088 40.9762V46.3328C24.2834 45.9971 21.7604 43.2625 21.7604 39.9497V30.5867C21.7604 29.3421 22.7729 28.3297 24.0174 28.3297H55.83C57.0746 28.3297 58.087 29.3422 58.087 30.5867V39.9497C58.087 43.2625 55.564 45.997 52.3387 46.3328V40.9762C52.3387 40.5159 51.9655 40.1428 51.5053 40.1428H46.1855C45.7253 40.1428 45.3522 40.5159 45.3522 40.9762V46.3423H43.6908C43.2307 46.3423 42.8575 46.7154 42.8575 47.1757C42.8575 47.6359 43.2307 48.009 43.6908 48.009H45.9815C46.0467 48.0254 46.1151 48.0342 46.1855 48.0342H46.2351V52.6572C46.2351 53.1175 46.6082 53.4906 47.0684 53.4906H50.6224C51.0826 53.4906 51.4557 53.1175 51.4557 52.6572V48.0342H51.5053C51.533 48.0342 51.5603 48.0327 51.5872 48.0302C51.6142 48.0328 51.6416 48.0342 51.6692 48.0342C54.2812 48.0342 56.6081 46.7889 58.087 44.8608V56.6492H58.0871ZM30.0583 48.0342H31.9457V51.8239H30.0583V48.0342ZM32.8286 46.3423H32.7571C32.6937 46.3423 32.6322 46.3494 32.5729 46.3628H29.2251C29.2084 46.3628 29.1919 46.3634 29.1756 46.3643V41.8096H32.8287V46.3423H32.8286ZM50.672 46.3643C50.6556 46.3633 50.6391 46.3628 50.6224 46.3628H47.2746C47.2153 46.3495 47.1537 46.3423 47.0904 46.3423H47.0189V41.8095H50.6721V46.3643H50.672ZM47.9017 48.0342H49.7891V51.8239H47.9017V48.0342Z" fill="white"/>
<path d="M39.9064 48.008C39.5635 48.008 39.247 47.7896 39.1264 47.4683C39.0031 47.1398 39.1033 46.7579 39.3738 46.5338C39.6321 46.3199 40.003 46.2834 40.2987 46.4403C40.6097 46.6053 40.7867 46.9634 40.7281 47.3108C40.661 47.708 40.3098 48.008 39.9064 48.008V48.008Z" fill="white"/>
</g>
<defs>
<linearGradient id="paint0_linear" x1="20.1439" y1="15.6608" x2="68.0158" y2="55.8184" gradientUnits="userSpaceOnUse">
<stop stop-color="#FF637B"/>
<stop offset="1" stop-color="#F90217"/>
</linearGradient>
<clipPath id="clip0">
<rect width="42.6667" height="42.6667" fill="white" transform="translate(18.5898 17.9062)"/>
</clipPath>
</defs>
</svg>
