<svg width="79" height="79" viewBox="0 0 79 79" fill="none" xmlns="http://www.w3.org/2000/svg">
<circle cx="39.9217" cy="39.3241" r="39.0038" fill="url(#paint0_linear)"/>
<g clip-path="url(#clip0)">
<path d="M55.8301 26.7489H55.7152V25.4846C55.7152 23.9471 54.4643 22.6962 52.9268 22.6962H50.2156V21.3797C50.2156 19.5118 48.6931 17.9922 46.8217 17.9922H33.0258C31.1544 17.9922 29.6319 19.5119 29.6319 21.3797V22.6962H26.9207C25.3832 22.6962 24.1322 23.9471 24.1322 25.4846V26.7489H24.0174C21.8539 26.7489 20.0938 28.509 20.0938 30.6725V56.7351C20.0938 58.8987 21.8539 60.6589 24.0175 60.6589H55.8301C57.9936 60.6589 59.7537 58.8987 59.7537 56.7352V30.6726C59.7537 28.509 57.9936 26.7489 55.8301 26.7489V26.7489ZM52.9268 24.3629C53.5453 24.3629 54.0485 24.8661 54.0485 25.4846V26.7489H50.2156V24.3629H52.9268ZM31.2986 21.3797C31.2986 20.4308 32.0734 19.6589 33.0258 19.6589H46.8217C47.7741 19.6589 48.5489 20.4309 48.5489 21.3797V26.7489H46.3309V22.7005C46.3309 22.2403 45.9577 21.8672 45.4976 21.8672H34.3499C33.8897 21.8672 33.5166 22.2403 33.5166 22.7005V26.7489H31.2986V21.3797ZM35.1832 26.7489V23.5339H44.6642V26.7489H35.1832V26.7489ZM25.7989 25.4846C25.7989 24.8661 26.3022 24.3629 26.9207 24.3629H29.6319V26.7489H25.7989V25.4846ZM58.0871 56.7352C58.0871 57.9798 57.0747 58.9922 55.8301 58.9922H24.0175C22.7729 58.9922 21.7605 57.9797 21.7605 56.7352V44.9469C23.2394 46.8749 25.5662 48.1201 28.1782 48.1201C28.2059 48.1201 28.2332 48.1187 28.2602 48.1161C28.2872 48.1188 28.3146 48.1201 28.3422 48.1201H28.3917V52.7432C28.3917 53.2034 28.7648 53.5765 29.2251 53.5765H32.7791C33.2393 53.5765 33.6124 53.2034 33.6124 52.7432V48.1201H33.6619C33.7322 48.1201 33.8006 48.1114 33.8659 48.0949H36.1566C36.6168 48.0949 36.9899 47.7219 36.9899 47.2616C36.9899 46.8014 36.6168 46.4283 36.1566 46.4283H34.4952V41.0621C34.4952 40.6019 34.1222 40.2288 33.6619 40.2288H28.3422C27.8819 40.2288 27.5088 40.6019 27.5088 41.0621V46.4188C24.2834 46.083 21.7604 43.3484 21.7604 40.0357V30.6726C21.7604 29.428 22.7729 28.4156 24.0174 28.4156H55.83C57.0746 28.4156 58.087 29.4281 58.087 30.6726V40.0357C58.087 43.3484 55.564 46.0829 52.3387 46.4188V41.0621C52.3387 40.6019 51.9655 40.2288 51.5053 40.2288H46.1855C45.7253 40.2288 45.3522 40.6019 45.3522 41.0621V46.4283H43.6908C43.2307 46.4283 42.8575 46.8014 42.8575 47.2616C42.8575 47.7219 43.2307 48.0949 43.6908 48.0949H45.9815C46.0467 48.1114 46.1151 48.1201 46.1855 48.1201H46.2351V52.7432C46.2351 53.2034 46.6082 53.5765 47.0684 53.5765H50.6224C51.0826 53.5765 51.4557 53.2034 51.4557 52.7432V48.1201H51.5053C51.533 48.1201 51.5603 48.1187 51.5872 48.1161C51.6142 48.1188 51.6416 48.1201 51.6692 48.1201C54.2812 48.1201 56.6081 46.8749 58.087 44.9468V56.7352H58.0871ZM30.0583 48.1201H31.9457V51.9099H30.0583V48.1201ZM32.8286 46.4283H32.7571C32.6937 46.4283 32.6322 46.4354 32.5729 46.4488H29.2251C29.2084 46.4488 29.1919 46.4494 29.1756 46.4503V41.8955H32.8287V46.4283H32.8286ZM50.672 46.4503C50.6556 46.4493 50.6391 46.4488 50.6224 46.4488H47.2746C47.2153 46.4354 47.1537 46.4283 47.0904 46.4283H47.0189V41.8954H50.6721V46.4503H50.672ZM47.9017 48.1201H49.7891V51.9099H47.9017V48.1201Z" fill="white"/>
<path d="M39.9064 48.094C39.5635 48.094 39.247 47.8755 39.1264 47.5542C39.0031 47.2257 39.1033 46.8439 39.3738 46.6198C39.6321 46.4058 40.003 46.3693 40.2987 46.5263C40.6097 46.6913 40.7867 47.0494 40.7281 47.3968C40.661 47.794 40.3098 48.094 39.9064 48.094V48.094Z" fill="white"/>
</g>
<defs>
<linearGradient id="paint0_linear" x1="20.1439" y1="15.7467" x2="68.0158" y2="55.9043" gradientUnits="userSpaceOnUse">
<stop stop-color="#FF637B"/>
<stop offset="1" stop-color="#F90217"/>
</linearGradient>
<clipPath id="clip0">
<rect width="42.6667" height="42.6667" fill="white" transform="translate(18.5898 17.9922)"/>
</clipPath>
</defs>
</svg>
