<svg width="79" height="79" viewBox="0 0 79 79" fill="none" xmlns="http://www.w3.org/2000/svg">
<circle cx="39.9217" cy="39.6952" r="39.0038" fill="url(#paint0_linear)"/>
<g clip-path="url(#clip0)">
<path d="M59.9219 30.7135C59.9219 28.5295 58.1451 26.7528 55.9611 26.7528H48.1572V25.4979C48.1572 23.595 46.6091 22.0469 44.7062 22.0469H35.1376C33.2347 22.0469 31.6866 23.595 31.6866 25.4979V26.7528H23.8827C21.6987 26.7528 19.9219 28.5295 19.9219 30.7135V39.6939H22.2748V53.3802C22.2748 55.5642 24.0516 57.341 26.2356 57.341H53.6082C55.7922 57.341 57.5689 55.5642 57.5689 53.3802V39.6939H59.9219V30.7135ZM34.0395 25.4979C34.0395 24.8924 34.5321 24.3998 35.1376 24.3998H44.7062C45.3117 24.3998 45.8042 24.8924 45.8042 25.4979V26.7528H34.0395V25.4979ZM30.5101 54.9881V49.1057H43.4513V52.6351H45.8042V49.1057H49.3336V54.9881H30.5101ZM55.216 53.3802C55.216 54.2668 54.4947 54.9881 53.6082 54.9881H51.6866V46.7528H28.1572V54.9881H26.2356C25.349 54.9881 24.6278 54.2668 24.6278 53.3802V39.6939H28.1572V40.8704C28.1572 42.8165 29.7405 44.3998 31.6866 44.3998C33.6327 44.3998 35.216 42.8165 35.216 40.8704V39.6939H44.6278V40.8704C44.6278 42.8165 46.211 44.3998 48.1572 44.3998C50.1034 44.3998 51.6866 42.8165 51.6866 40.8704V39.6939H55.216V53.3802ZM30.5101 40.8704V37.341H32.8631V40.8704C32.8631 41.5191 32.3353 42.0469 31.6866 42.0469C31.0379 42.0469 30.5101 41.5191 30.5101 40.8704ZM46.9807 40.8704V37.341H49.3336V40.8704C49.3336 41.5191 48.806 42.0469 48.1572 42.0469C47.5084 42.0469 46.9807 41.5191 46.9807 40.8704ZM57.5689 37.341H51.6866V34.9881H44.6278V37.341H35.216V34.9881H28.1572V37.341H22.2748V30.7135C22.2748 29.827 22.9961 29.1057 23.8827 29.1057H55.9611C56.8477 29.1057 57.5689 29.827 57.5689 30.7135V37.341Z" fill="white"/>
</g>
<defs>
<linearGradient id="paint0_linear" x1="20.1439" y1="16.1178" x2="68.0158" y2="56.2754" gradientUnits="userSpaceOnUse">
<stop stop-color="#FF637B"/>
<stop offset="1" stop-color="#F90217"/>
</linearGradient>
<clipPath id="clip0">
<rect width="40" height="40" fill="white" transform="translate(19.9219 19.6953)"/>
</clipPath>
</defs>
</svg>
