<svg width="79" height="79" viewBox="0 0 79 79" fill="none" xmlns="http://www.w3.org/2000/svg">
<circle cx="39.9217" cy="39.1522" r="39.0038" fill="url(#paint0_linear)"/>
<g clip-path="url(#clip0)">
<path d="M59.9219 21.4453H43.0469C41.8164 21.4453 40.7059 21.966 39.9219 22.7977C39.1378 21.966 38.0273 21.4453 36.7969 21.4453H19.9219V49.6224H28.9041C30.752 53.878 34.9947 56.862 39.9219 56.862C44.8491 56.862 49.0918 53.878 50.9396 49.6224H59.9219V21.4453ZM57.5781 47.2787H51.6816C51.8425 46.4962 51.9271 45.6862 51.9271 44.8568C51.9271 43.9164 51.8181 43.0011 51.6127 42.1224H54.3359V39.7787H50.7984C50.3477 38.8172 49.7734 37.925 49.0956 37.1224H54.3359V34.7787H46.4381C44.8695 33.7609 43.0497 33.0993 41.0938 32.9089V25.7422C41.0938 24.6652 41.9699 23.7891 43.0469 23.7891H57.5781V47.2787ZM39.9219 54.5183C34.5945 54.5183 30.2604 50.1841 30.2604 44.8568C30.2604 39.5295 34.5945 35.1953 39.9219 35.1953C45.2492 35.1953 49.5834 39.5295 49.5834 44.8568C49.5834 50.1841 45.2492 54.5183 39.9219 54.5183ZM22.2656 23.7891H36.7969C37.8738 23.7891 38.75 24.6652 38.75 25.7422V32.9088C36.7941 33.0992 34.9742 33.7609 33.4055 34.7786H25.5078V37.1223H30.748C30.0704 37.9249 29.4959 38.8171 29.0452 39.7786H25.5078V42.1223H28.2311C28.0256 43.001 27.9166 43.9163 27.9166 44.8567C27.9166 45.6861 28.0012 46.4961 28.1622 47.2786H22.2656V23.7891Z" fill="white"/>
<path d="M25.5078 29.7773H35.5078V32.1211H25.5078V29.7773Z" fill="white"/>
<path d="M44.3359 29.7773H54.3359V32.1211H44.3359V29.7773Z" fill="white"/>
<path d="M45.5078 45.8724V43.8427L37.3906 39.1562L35.6328 40.1711V49.544L37.3906 50.5588L45.5078 45.8724ZM37.9766 42.2009L42.5781 44.8576L37.9766 47.5143V42.2009Z" fill="white"/>
</g>
<defs>
<linearGradient id="paint0_linear" x1="20.1439" y1="15.5748" x2="68.0158" y2="55.7324" gradientUnits="userSpaceOnUse">
<stop stop-color="#FF637B"/>
<stop offset="1" stop-color="#F90217"/>
</linearGradient>
<clipPath id="clip0">
<rect width="40" height="40" fill="white" transform="translate(19.9219 19.1523)"/>
</clipPath>
</defs>
</svg>
