<svg width="79" height="79" viewBox="0 0 79 79" fill="none" xmlns="http://www.w3.org/2000/svg">
<circle cx="39.9217" cy="39.7811" r="39.0038" fill="url(#paint0_linear)"/>
<g clip-path="url(#clip0)">
<path d="M56.7437 20.5H23.1027C20.6143 20.5 18.5898 22.5245 18.5898 25.0128V43.4743V46.3462C18.5898 48.8345 20.6143 50.859 23.1027 50.859H33.9993L32.6864 57.4231H28.436C27.9828 57.4231 27.6155 57.7904 27.6155 58.2436C27.6155 58.6968 27.9828 59.0641 28.436 59.0641H51.4103C51.8635 59.0641 52.2308 58.6968 52.2308 58.2436C52.2308 57.7904 51.8635 57.4231 51.4103 57.4231H47.1599L45.8471 50.859H56.7437C59.232 50.859 61.2565 48.8346 61.2565 46.3462V43.4743V25.0128C61.2565 22.5245 59.2321 20.5 56.7437 20.5ZM34.3599 57.4231L35.6728 50.859H44.1736L45.4864 57.4231H34.3599ZM59.6155 46.3462C59.6155 47.9297 58.3273 49.218 56.7437 49.218H23.1027C21.5192 49.218 20.2308 47.9298 20.2308 46.3462V44.2949H59.6154V46.3462H59.6155ZM59.6155 42.6539H20.2308V41.0129H25.1539C25.6071 41.0129 25.9744 40.6456 25.9744 40.1924C25.9744 39.7393 25.6071 39.3719 25.1539 39.3719H20.2308V25.0128C20.2308 23.4293 21.5191 22.141 23.1027 22.141H56.7437C58.3272 22.141 59.6155 23.4293 59.6155 25.0128V42.6539Z" fill="white"/>
<path d="M39.9223 45.1172C39.0174 45.1172 38.2812 45.8534 38.2812 46.7582C38.2812 47.663 39.0174 48.3992 39.9223 48.3992C40.8271 48.3992 41.5633 47.663 41.5633 46.7582C41.5633 45.8534 40.8271 45.1172 39.9223 45.1172Z" fill="white"/>
<path d="M46.6397 36.2151L44.8991 34.4745L46.3496 33.0241C46.5605 32.8132 46.6404 32.5044 46.5581 32.2177C46.4759 31.931 46.2445 31.7115 45.9539 31.6443L38.4113 29.9038C38.1358 29.8403 37.8468 29.923 37.6466 30.1231C37.4466 30.3232 37.3637 30.6121 37.4273 30.8878L39.168 38.4303C39.2351 38.7208 39.4546 38.9523 39.7413 39.0345C40.0282 39.1167 40.3368 39.0368 40.5478 38.826L41.9982 37.3755L43.7388 39.1161C43.899 39.2763 44.109 39.3564 44.3189 39.3564C44.5289 39.3564 44.7389 39.2763 44.8991 39.1161L46.6397 37.3755C46.96 37.0551 46.96 36.5356 46.6397 36.2151ZM44.3189 37.3755L42.5784 35.6349C42.4181 35.4747 42.2081 35.3946 41.9982 35.3946C41.7883 35.3946 41.5782 35.4747 41.418 35.6349L40.4342 36.6188L39.3217 31.7981L44.1424 32.9105L43.1585 33.8943C42.8381 34.2148 42.8381 34.7343 43.1585 35.0548L44.8991 36.7953L44.3189 37.3755Z" fill="white"/>
<path d="M36.5454 27.8616L35.7249 27.0411C35.4045 26.7207 34.8849 26.7207 34.5645 27.0411C34.2441 27.3615 34.2441 27.881 34.5645 28.2015L35.3851 29.022C35.5454 29.1823 35.7554 29.2623 35.9653 29.2623C36.1752 29.2623 36.3853 29.1823 36.5454 29.022C36.8659 28.7017 36.8659 28.1821 36.5454 27.8616Z" fill="white"/>
<path d="M34.9457 30.082H33.7853C33.3322 30.082 32.9648 30.4494 32.9648 30.9025C32.9648 31.3557 33.3322 31.723 33.7853 31.723H34.9457C35.3988 31.723 35.7662 31.3557 35.7662 30.9025C35.7662 30.4494 35.3988 30.082 34.9457 30.082Z" fill="white"/>
<path d="M36.5454 32.7833C36.225 32.4629 35.7055 32.4629 35.385 32.7833L34.5645 33.6038C34.2441 33.9242 34.2441 34.4438 34.5645 34.7642C34.7248 34.9244 34.9348 35.0045 35.1447 35.0045C35.3546 35.0045 35.5647 34.9244 35.7249 34.7642L36.5454 33.9437C36.8658 33.6234 36.8658 33.1038 36.5454 32.7833Z" fill="white"/>
<path d="M42.2916 27.0411C41.9712 26.7207 41.4516 26.7207 41.1311 27.0411L40.3106 27.8616C39.9902 28.182 39.9902 28.7016 40.3106 29.022C40.4709 29.1823 40.6809 29.2623 40.8909 29.2623C41.1009 29.2623 41.3109 29.1823 41.4711 29.022L42.2916 28.2015C42.612 27.8812 42.612 27.3616 42.2916 27.0411Z" fill="white"/>
<path d="M38.426 25.4414C37.9728 25.4414 37.6055 25.8087 37.6055 26.2619V27.4222C37.6055 27.8754 37.9728 28.2427 38.426 28.2427C38.8791 28.2427 39.2465 27.8754 39.2465 27.4222V26.2619C39.2465 25.8087 38.8791 25.4414 38.426 25.4414Z" fill="white"/>
<path d="M28.4215 40.0313C28.4116 39.9788 28.3952 39.9271 28.3747 39.877C28.3542 39.8278 28.3288 39.7802 28.2992 39.7358C28.2697 39.6907 28.2352 39.6488 28.1975 39.6111C28.1597 39.5733 28.1179 39.5389 28.0727 39.5093C28.0284 39.4798 27.9808 39.4543 27.9308 39.4338C27.8815 39.4133 27.8299 39.3969 27.7774 39.3871C27.6715 39.3658 27.5632 39.3658 27.4574 39.3871C27.4049 39.3969 27.3532 39.4133 27.304 39.4338C27.2539 39.4543 27.2063 39.4798 27.162 39.5093C27.1169 39.5388 27.075 39.5733 27.0373 39.6111C26.9995 39.6488 26.9651 39.6907 26.9355 39.7358C26.906 39.7802 26.8805 39.8278 26.86 39.877C26.8395 39.9271 26.8231 39.9788 26.8133 40.0313C26.8026 40.0838 26.7969 40.1379 26.7969 40.1913C26.7969 40.2446 26.8026 40.2988 26.8133 40.3513C26.8231 40.4038 26.8395 40.4554 26.86 40.5047C26.8805 40.5548 26.906 40.6023 26.9355 40.6466C26.965 40.6918 26.9995 40.7336 27.0373 40.7713C27.075 40.8091 27.1169 40.8435 27.162 40.8731C27.2064 40.9026 27.254 40.9281 27.304 40.9486C27.3532 40.9691 27.4049 40.9855 27.4574 40.9962C27.5099 41.0068 27.564 41.0118 27.6174 41.0118C27.6707 41.0118 27.7249 41.0068 27.7774 40.9962C27.8299 40.9855 27.8815 40.9691 27.9308 40.9486C27.9809 40.9281 28.0285 40.9027 28.0727 40.8731C28.1179 40.8436 28.1597 40.8091 28.1975 40.7713C28.2352 40.7336 28.2696 40.6918 28.2992 40.6466C28.3287 40.6023 28.3542 40.5547 28.3747 40.5047C28.3952 40.4554 28.4116 40.4038 28.4215 40.3513C28.4321 40.2988 28.4379 40.2446 28.4379 40.1913C28.4379 40.1379 28.4321 40.0838 28.4215 40.0313Z" fill="white"/>
</g>
<defs>
<linearGradient id="paint0_linear" x1="20.1439" y1="16.2037" x2="68.0158" y2="56.3614" gradientUnits="userSpaceOnUse">
<stop stop-color="#FF637B"/>
<stop offset="1" stop-color="#F90217"/>
</linearGradient>
<clipPath id="clip0">
<rect width="42.6667" height="42.6667" fill="white" transform="translate(18.5898 18.4492)"/>
</clipPath>
</defs>
</svg>
