<svg width="186" height="46" viewBox="0 0 186 46" fill="none" xmlns="http://www.w3.org/2000/svg">
<g clip-path="url(#clip0)">
<path d="M132.739 23.5495L132.741 0.92709H136.305V17.675L152.032 0.90918L154.838 0.911418V23.5495H151.257L151.22 6.85749L135.545 23.5495H132.739Z" fill="#1D1D1B"/>
<path d="M182.23 23.5492L182.232 4.08794H170.566V23.5358L166.989 23.5492L166.993 0.895508H185.766V23.538L182.23 23.5492Z" fill="#1D1D1B"/>
<path d="M71.8099 23.5491L64.9604 14.818L58.07 23.5491H53.4468L62.8478 12.2144L53.4581 0.915527H58.0722L64.9854 9.57269L71.8895 0.915527H76.4717L67.0935 12.2211L76.4922 23.5491H71.8099Z" fill="#1D1D1B"/>
<path d="M0.817871 23.5491L9.40703 0.915527H12.9387L21.4732 23.5491H17.6073L14.9262 15.8613H7.43541L4.70653 23.558L0.817871 23.5491ZM13.8096 12.6308L11.1876 5.26538C10.278 7.81305 9.43204 10.2085 8.57017 12.6308H13.8096Z" fill="#1D1D1B"/>
<path d="M31.3132 23.5491C31.3132 23.5491 31.3132 8.98615 31.3132 2.35279V0.915527H34.2172C36.2411 0.915527 38.1377 0.915527 40.2503 1.36327C43.8479 2.13563 45.3556 5.29896 45.0259 8.6481C44.6961 12.0644 42.4971 14.283 38.9837 14.8158C38.1195 14.9456 37.2372 14.9703 36.3617 15.0195C35.8773 15.0464 35.3906 15.0195 34.8471 15.0195V23.5446L31.3132 23.5491ZM34.8767 11.7868C34.8767 11.7868 37.4987 11.8898 38.7426 11.4264C40.057 10.9406 40.9303 10.063 41.1304 8.66153C41.3305 7.26009 41.069 5.93476 39.8205 5.02136C38.3265 3.9311 34.8699 4.12587 34.8699 4.12587L34.8767 11.7868Z" fill="#1D1D1B"/>
<path d="M113.703 23.5491L113.707 4.10344H109.009V0.904297H121.86V4.08777H117.282V23.5356L113.703 23.5491Z" fill="#1D1D1B"/>
<path d="M90.5003 10.5756H95.5214V13.842H90.4935V20.3499H97.6409V23.5536H86.8914V0.915527H96.9223V4.09452H90.5003V10.5756Z" fill="#1D1D1B"/>
<path d="M39.0564 40.4494H43.3203L41.1895 35.6943L39.0564 40.4494Z" fill="#1D1D1B"/>
<path d="M28.6252 38.694H31.3132L29.9647 35.7993L28.6252 38.694Z" fill="#1D1D1B"/>
<path d="M83.3144 35.7996C83.0301 36.0078 82.8709 36.3459 82.8914 36.6951C82.8778 37.0511 83.0506 37.3869 83.3462 37.5906C83.701 37.8167 84.1194 37.9264 84.5401 37.9062H86.514V35.4884H84.5174C84.0921 35.4616 83.6714 35.569 83.3144 35.7996Z" fill="#1D1D1B"/>
<path d="M0.765625 30.2432V44.8957H93.2656V33.5274H185.766V30.2432H0.765625ZM11.3742 41.5667L10.5828 39.8205H6.88969L6.08467 41.5667H4.6793L8.11541 34.2729H9.38889L12.8182 41.5667H11.3742ZM21.7075 41.5667L18.6489 38.466H17.7575V41.5667H16.393V34.3311H17.7575V37.3399H18.6148L21.5506 34.3311H23.2789L19.72 37.8257L23.4699 41.5667H21.7075ZM32.6071 41.5667L31.8158 39.8205H28.1227L27.3199 41.5667H25.9123L29.3507 34.2729H30.6219L34.058 41.5599L32.6071 41.5667ZM45.5511 43.0554H44.2572V41.5667H38.165V43.0554H36.871V40.4092H37.6396L40.4845 34.2729H41.9263L44.762 40.4025H45.542L45.5511 43.0554ZM55.0022 41.5667H49.1555V34.3311H54.9453V35.4684H50.5268V37.3399H54.445V38.4974H50.5268V40.4294H55.0022V41.5667ZM66.5385 41.5667H65.1741V36.3773L62.709 39.7891H62.6635L60.2189 36.3974V41.5667H58.8703V34.3311H60.3303L62.709 37.7519L65.0854 34.3311H66.5453L66.5385 41.5667ZM77.5859 41.5667H76.2215V36.337L71.9803 41.5667H70.7865V34.3311H72.1509V39.422L76.2647 34.3311H77.5814L77.5859 41.5667ZM87.8852 41.5667H86.5207V39.0436H84.8834L82.8981 41.5667H81.2449L83.4098 38.8802C83.1437 38.8153 82.8868 38.7168 82.6457 38.5891C82.4206 38.475 82.2159 38.3227 82.0431 38.1414C81.8748 37.9556 81.7406 37.7429 81.6474 37.5101C81.5473 37.2593 81.4973 36.9907 81.5019 36.7198V36.7086C81.495 36.3527 81.5724 36.0012 81.7293 35.681C81.8771 35.39 82.0954 35.1348 82.3615 34.9423C82.6571 34.7318 82.9937 34.5796 83.3484 34.4945C83.7714 34.3893 84.2057 34.34 84.6424 34.3445H87.8852V41.5667Z" fill="#1D1D1B"/>
<path d="M7.38989 38.694H10.0801L8.72932 35.7993L7.38989 38.694Z" fill="#1D1D1B"/>
</g>
<defs>
<clipPath id="clip0">
<rect width="185" height="44" fill="white" transform="translate(0.765625 0.895508)"/>
</clipPath>
</defs>
</svg>
