<svg width="93" height="67" viewBox="0 0 93 67" fill="none" xmlns="http://www.w3.org/2000/svg">
<g clip-path="url(#clip0)">
<path d="M92.9992 58.9989L92.9992 7.9989C92.9992 3.58062 89.4175 -0.00109863 84.9992 -0.00109863L7.99921 -0.00109863C3.58092 -0.00109863 -0.000793457 3.58062 -0.000793457 7.9989L-0.000793457 58.9989C-0.000793457 63.4172 3.58092 66.9989 7.99921 66.9989L84.9992 66.9989C89.4175 66.9989 92.9992 63.4172 92.9992 58.9989Z" fill="#F9103D"/>
<path d="M18.1312 13.2107H15.1469V59.3726H18.1312V13.2107Z" fill="white"/>
<path d="M24.0977 8.6813V59.3726H21.1133V10.2155H12.1602V59.3726H9.17584V8.68358L10.6198 7.24316H22.656L24.0977 8.6813Z" fill="white"/>
<path d="M27.0821 7.24316V59.3726H36.0352V7.24316H27.0821ZM33.0508 56.4003H30.0665V10.2155H33.0508V56.4003Z" fill="white"/>
<path d="M46.5287 7.24316H39.0196V59.3726H46.5287L47.9727 57.9344V8.6813L46.5287 7.24316ZM44.9883 56.4003H42.004V10.2155H44.9883V56.4003Z" fill="white"/>
<path d="M59.9102 7.24316V59.3726H56.9258V33.3079H53.9529V30.3127H56.9258V10.2155H53.9415V33.3124H50.9571V8.66986L52.3896 7.24316H59.9102Z" fill="white"/>
<path d="M74.8321 7.24316V10.2155H80.8008V59.3726H83.7852V8.6813L82.3412 7.24316H74.8321Z" fill="white"/>
<path d="M53.9529 36.2916H50.9456V59.3726H53.9529V36.2916Z" fill="white"/>
<path d="M77.8394 10.2155H74.8321V59.3726H77.8394V10.2155Z" fill="white"/>
<path d="M71.8615 36.2916H68.8542V59.3726H71.8615V36.2916Z" fill="white"/>
<path d="M71.8477 8.6813V33.3124H68.8633V10.2155H65.879V30.3127H68.8519V33.3079H65.879V59.3726H62.8946V7.24316H70.406L71.8477 8.6813Z" fill="white"/>
</g>
<defs>
<clipPath id="clip0">
<rect width="93" height="67" fill="white"/>
</clipPath>
</defs>
</svg>
