<svg width="17" height="16" viewBox="0 0 17 16" fill="none" xmlns="http://www.w3.org/2000/svg">
<path d="M1.13647 1.41846H5.41425C6.17061 1.41846 6.89599 1.71892 7.43082 2.25375C7.96564 2.78857 8.2661 3.51395 8.2661 4.27031V14.2518C8.2661 13.6845 8.04076 13.1405 7.63964 12.7394C7.23852 12.3382 6.69448 12.1129 6.12722 12.1129H1.13647V1.41846Z" stroke="#1A1A18" stroke-width="1.5" stroke-linecap="round" stroke-linejoin="round"/>
<path d="M15.3957 1.41846H11.118C10.3616 1.41846 9.63623 1.71892 9.1014 2.25375C8.56658 2.78857 8.26611 3.51395 8.26611 4.27031V14.2518C8.26611 13.6845 8.49146 13.1405 8.89258 12.7394C9.2937 12.3382 9.83773 12.1129 10.405 12.1129H15.3957V1.41846Z" stroke="#1A1A18" stroke-width="1.5" stroke-linecap="round" stroke-linejoin="round"/>
</svg>
