<svg width="16" height="16" viewBox="0 0 16 16" fill="none" xmlns="http://www.w3.org/2000/svg">
<path d="M13.1938 7.83496V14.328H2.80493V7.83496" stroke="#1A1A18" stroke-width="1.5" stroke-linecap="round" stroke-linejoin="round"/>
<path d="M14.4929 4.58838H1.50684V7.83491H14.4929V4.58838Z" stroke="#1A1A18" stroke-width="1.5" stroke-linecap="round" stroke-linejoin="round"/>
<path d="M7.99951 14.328V4.58838" stroke="#1A1A18" stroke-width="1.5" stroke-linecap="round" stroke-linejoin="round"/>
<path d="M7.99997 4.58833H5.0781C4.64758 4.58833 4.2347 4.4173 3.93028 4.11288C3.62586 3.80846 3.45483 3.39558 3.45483 2.96506C3.45483 2.53454 3.62586 2.12166 3.93028 1.81724C4.2347 1.51282 4.64758 1.3418 5.0781 1.3418C7.35067 1.3418 7.99997 4.58833 7.99997 4.58833Z" stroke="#1A1A18" stroke-width="1.5" stroke-linecap="round" stroke-linejoin="round"/>
<path d="M7.99951 4.58833H10.9214C11.3519 4.58833 11.7648 4.4173 12.0692 4.11288C12.3736 3.80846 12.5447 3.39558 12.5447 2.96506C12.5447 2.53454 12.3736 2.12166 12.0692 1.81724C11.7648 1.51282 11.3519 1.3418 10.9214 1.3418C8.64882 1.3418 7.99951 4.58833 7.99951 4.58833Z" stroke="#1A1A18" stroke-width="1.5" stroke-linecap="round" stroke-linejoin="round"/>
</svg>
