<svg width="16" height="16" viewBox="0 0 16 16" fill="none" xmlns="http://www.w3.org/2000/svg">
<path fill-rule="evenodd" clip-rule="evenodd" d="M7.7918 0.66407C8.07055 0.447263 8.46089 0.447263 8.73964 0.66407L15.687 6.06758C16.0235 6.32932 16.0842 6.8143 15.8224 7.15082C15.5607 7.48734 15.0757 7.54797 14.7392 7.28623L8.26572 2.25132L1.79227 7.28623C1.45575 7.54797 0.970766 7.48734 0.709027 7.15082C0.447289 6.8143 0.507912 6.32932 0.844433 6.06758L7.7918 0.66407Z" fill="#1A1A18"/>
<path fill-rule="evenodd" clip-rule="evenodd" d="M2.86221 4.74708C3.28854 4.74708 3.63414 5.09268 3.63414 5.51901V13.6243H6.72186V11.3085C6.72186 10.8822 7.06747 10.5366 7.49379 10.5366H9.03765C9.46398 10.5366 9.80958 10.8822 9.80958 11.3085V13.6243H12.8973V5.90497C12.8973 5.47865 13.2429 5.13304 13.6692 5.13304C14.0956 5.13304 14.4412 5.47865 14.4412 5.90497V14.3962C14.4412 14.8225 14.0956 15.1681 13.6692 15.1681H2.86221C2.43589 15.1681 2.09028 14.8225 2.09028 14.3962V5.51901C2.09028 5.09268 2.43589 4.74708 2.86221 4.74708Z" fill="#1A1A18"/>
</svg>
