<svg width="31" height="30" viewBox="0 0 31 30" fill="none" xmlns="http://www.w3.org/2000/svg">
<path d="M19.9917 12.0015C19.9917 10.808 19.5176 9.6634 18.6737 8.81948C17.8298 7.97557 16.6852 7.50146 15.4917 7.50146C14.2982 7.50146 13.1536 7.97557 12.3097 8.81948C11.4658 9.6634 10.9917 10.808 10.9917 12.0015C10.9917 17.2515 8.7417 18.7515 8.7417 18.7515H22.2417C22.2417 18.7515 19.9917 17.2515 19.9917 12.0015Z" stroke="#1A1A18" stroke-width="1.5" stroke-linecap="round" stroke-linejoin="round"/>
<path d="M16.7888 21.7515C16.657 21.9788 16.4677 22.1675 16.24 22.2986C16.0123 22.4298 15.7541 22.4988 15.4913 22.4988C15.2286 22.4988 14.9704 22.4298 14.7427 22.2986C14.515 22.1675 14.3257 21.9788 14.1938 21.7515" stroke="#1A1A18" stroke-width="1.5" stroke-linecap="round" stroke-linejoin="round"/>
</svg>
