<svg width="83" height="72" viewBox="0 0 83 72" fill="none" xmlns="http://www.w3.org/2000/svg">
<path d="M82.7656 35.8272L75.5054 23.335L65.9761 28.8655L70.0602 35.8272L65.9761 42.9195L75.5054 48.3849L82.7656 35.8272Z" fill="white"/>
<path d="M17.2936 42.9208L13.2745 35.9589L17.2936 28.9318L7.76439 23.4014L0.568848 36.024L7.76439 48.4513L17.2936 42.9208Z" fill="#FFB31B"/>
<path d="M35.5747 0.235352H21.054L13.8584 12.7928L23.3876 18.3232L27.4068 11.2312H35.5747V0.235352Z" fill="#FFB31B"/>
<path d="M62.1524 0.172852H47.7612V11.2338H55.7997L59.8835 18.3258L69.4128 12.7953L62.1524 0.172852Z" fill="#FFB31B"/>
<path d="M35.5747 60.6193H27.5364L23.3876 53.5273L13.8584 59.0578L21.1836 71.6802L35.5747 71.6151V60.6193Z" fill="#FFB31B"/>
<path d="M59.9485 53.5273L55.9291 60.5543H47.7612V71.6151L62.2821 71.5501L69.4775 58.9927L59.9485 53.5273Z" fill="#FFB31B"/>
<path d="M47.8898 24.1816H34.3414L27.5347 35.9583L34.3414 47.7349H47.8898L54.6962 35.9583L47.8898 24.1816Z" fill="#FFBB32"/>
</svg>
