<svg width="137" height="34" viewBox="0 0 137 34" fill="none" xmlns="http://www.w3.org/2000/svg">
<path d="M34.7227 22.037V2.28906H41.3788C43.7021 2.28906 45.5022 2.75125 46.7999 3.65461C48.0976 4.55797 48.7465 5.90251 48.7465 7.70923C48.7465 8.61259 48.4953 9.43192 48.0139 10.1672C47.5325 10.8815 46.8208 11.4277 45.9208 11.7849C47.0929 12.037 47.993 12.5832 48.5791 13.4025C49.1651 14.2428 49.4582 15.1882 49.4582 16.3017C49.4582 18.1924 48.8302 19.621 47.5953 20.5874C46.3604 21.5538 44.5812 22.037 42.2997 22.037H34.7227ZM38.6577 10.5454H41.5044C42.5509 10.5454 43.3672 10.3353 43.9324 9.8941C44.4975 9.45293 44.7905 8.82267 44.7905 8.00335C44.7905 7.09998 44.4975 6.40671 43.9324 5.98654C43.3672 5.54537 42.509 5.33528 41.3788 5.33528H38.6787V10.5454H38.6577ZM38.6577 13.2975V18.9907H42.2997C43.3463 18.9907 44.1417 18.7596 44.6859 18.2975C45.2301 17.8353 45.5022 17.163 45.5022 16.2807C45.5022 15.3143 45.2719 14.579 44.7905 14.0748C44.33 13.5706 43.5765 13.3185 42.5718 13.3185H38.6577V13.2975Z" fill="white"/>
<path d="M68.0451 2.26855V15.3778C68.0451 17.5837 67.3125 19.3064 65.8474 20.5039C64.3822 21.7013 62.4775 22.3106 60.1123 22.3106C57.768 22.3106 55.8633 21.7013 54.419 20.5039C52.9748 19.3064 52.2422 17.5837 52.2422 15.3778V2.26855H56.1982V15.3778C56.1982 16.6803 56.554 17.6467 57.2447 18.298C57.9354 18.9492 58.8983 19.2644 60.1123 19.2644C61.3472 19.2644 62.31 18.9492 63.0217 18.298C63.7333 17.6467 64.0682 16.6803 64.0682 15.3778V2.28956H68.0451V2.26855Z" fill="white"/>
<path d="M78.3643 11.3857H78.448L82.7389 2.28906H87.0507L80.2899 15.1042V22.058H76.3758V14.9151L69.7407 2.31007H74.0734L78.3643 11.3857Z" fill="white"/>
<path d="M102.833 5.33528H97.2649V22.0369H93.3089V5.33528H87.7622V2.28906H102.812V5.33528H102.833Z" fill="white"/>
<path d="M117.128 13.34H108.986V18.9702H118.51V22.0165H105.03V2.26855H118.489V5.31477H108.986V10.2728H117.128V13.34Z" fill="white"/>
<path d="M127.866 9.26435L131.55 2.26855H136.155L130.315 12.0585L136.49 22.0165H131.717L127.929 14.8946L124.14 22.0165H119.535L125.522 12.0585L119.682 2.26855H124.245L127.866 9.26435Z" fill="white"/>
<path d="M40.8978 33.698H40.3117L36.272 27.5846H36.2511V33.698H35.665V26.5762H36.2511L40.2908 32.6896H40.3117V26.5762H40.8978V33.698Z" fill="white"/>
<path d="M55.7376 30.2527H52.3258V33.1938H56.2399V33.698H51.7397V26.5762H56.1981V27.0804H52.3049V29.7485H55.7167V30.2527H55.7376Z" fill="white"/>
<path d="M71.3312 27.0804H68.8822V33.698H68.2961V27.0804H65.8472V26.5762H71.3102V27.0804H71.3312Z" fill="white"/>
<path d="M82.7806 31.7017L82.99 32.7942H83.0109L83.283 31.7017L84.79 26.5967H85.3342L86.8413 31.7017L87.0924 32.7942H87.1134L87.3436 31.7017L88.6204 26.5967H89.2065L87.3855 33.7185H86.8413L85.2505 28.2563L85.0621 27.5H85.0412L84.8528 28.2563L83.2411 33.7185H82.676L80.855 26.5967H81.462L82.7806 31.7017Z" fill="white"/>
<path d="M115.726 30.4837V33.698H115.14V26.5762H117.547C118.3 26.5762 118.887 26.7443 119.305 27.0804C119.724 27.4165 119.912 27.8997 119.912 28.551C119.912 28.9291 119.807 29.2653 119.577 29.5594C119.347 29.8535 119.054 30.0846 118.656 30.2106C119.096 30.3157 119.41 30.5258 119.598 30.7989C119.787 31.072 119.891 31.4501 119.891 31.8703V32.5426C119.891 32.7737 119.912 32.9627 119.975 33.1308C120.017 33.2989 120.121 33.4459 120.226 33.551V33.677H119.64C119.514 33.551 119.431 33.4039 119.389 33.1728C119.347 32.9627 119.326 32.7316 119.326 32.5216V31.8703C119.326 31.4291 119.18 31.093 118.907 30.8409C118.635 30.5888 118.238 30.4627 117.735 30.4627H115.726V30.4837ZM115.726 29.9795H117.484C118.133 29.9795 118.593 29.8535 118.887 29.5804C119.18 29.3283 119.326 28.9711 119.326 28.53C119.326 28.0678 119.18 27.6896 118.887 27.4375C118.593 27.1854 118.154 27.0594 117.547 27.0594H115.726V29.9795Z" fill="white"/>
<path d="M132.261 30.3577H131.278V33.698H130.692V26.5762H131.278V29.8535H132.241L135.024 26.5762H135.673V26.5972L132.743 30.0846L135.883 33.677V33.698H135.192L132.261 30.3577Z" fill="white"/>
<path d="M27.4387 11.89L25.0945 7.85645L22.0176 9.64217L23.3363 11.89L22.0176 14.18L25.0945 15.9447L27.4387 11.89Z" fill="white"/>
<path d="M6.29864 14.1805L5.00092 11.9326L6.29864 9.66364L3.22178 7.87793L0.898438 11.9536L3.22178 15.9662L6.29864 14.1805Z" fill="#FFB31B"/>
<path d="M12.2013 0.398438H7.5128L5.18945 4.45305L8.26631 6.23876L9.56404 3.94885H12.2013V0.398438Z" fill="#FFB31B"/>
<path d="M20.7829 0.37793H16.1362V3.94936H18.7317L20.0503 6.23928L23.1272 4.45356L20.7829 0.37793Z" fill="#FFB31B"/>
<path d="M12.2013 19.8954H9.6059L8.26631 17.6055L5.18945 19.3912L7.55466 23.4668L12.2013 23.4458V19.8954Z" fill="#FFB31B"/>
<path d="M20.0713 17.6055L18.7735 19.8744H16.1362V23.4458L20.8248 23.4248L23.1481 19.3702L20.0713 17.6055Z" fill="#FFB31B"/>
<path d="M16.1779 8.12988H11.8033L9.60547 11.9324L11.8033 15.7349H16.1779L18.3756 11.9324L16.1779 8.12988Z" fill="#FFBB32"/>
<path d="M104.005 26.3857H99.6303L97.4326 30.1883L99.6303 33.9908H104.005L106.182 30.1883L104.005 26.3857Z" fill="#FFB31B"/>
</svg>
