<svg width="198" height="33" viewBox="0 0 198 33" fill="none" xmlns="http://www.w3.org/2000/svg">
<path d="M20.32 14.44C21.8667 15.0267 23.08 15.9067 23.96 17.08C24.84 18.2533 25.28 19.6 25.28 21.12C25.28 22.8533 24.6933 24.36 23.52 25.64C22.3467 26.92 20.76 27.9067 18.76 28.6C16.76 29.2667 14.56 29.6 12.16 29.6C10.2667 29.6 8.33333 29.3733 6.36 28.92C4.41333 28.4667 2.54667 27.7867 0.76 26.88L3.12 21.36C4.37333 22 5.70667 22.4933 7.12 22.84C8.56 23.16 9.94667 23.32 11.28 23.32C13.04 23.32 14.48 23.04 15.6 22.48C16.72 21.8933 17.28 21.08 17.28 20.04C17.28 19.2133 16.9333 18.6 16.24 18.2C15.5467 17.8 14.6133 17.6 13.44 17.6H6.28V11.8H12.8C13.8667 11.8 14.6933 11.5867 15.28 11.16C15.8667 10.7333 16.16 10.16 16.16 9.44C16.16 8.53333 15.7067 7.84 14.8 7.36C13.8933 6.85333 12.72 6.6 11.28 6.6C10.1067 6.6 8.86667 6.77333 7.56 7.12C6.25333 7.44 5.01333 7.90667 3.84 8.52L1.52 2.52C4.50667 1.08 7.78667 0.359999 11.36 0.359999C13.6533 0.359999 15.7733 0.693332 17.72 1.36C19.6933 2 21.2533 2.93333 22.4 4.16C23.5733 5.38666 24.16 6.84 24.16 8.52C24.16 9.82667 23.8133 11 23.12 12.04C22.4533 13.0533 21.52 13.8533 20.32 14.44ZM54.8025 29L54.7625 14.16L47.5625 26.24H44.0425L36.8425 14.48V29H29.5625V0.999998H36.0825L45.9225 17.16L55.5225 0.999998H62.0425L62.1225 29H54.8025Z" fill="#3C39D0"/>
<path d="M76.4781 6.96C80.0781 6.96 82.8248 7.78667 84.7181 9.44C86.6115 11.0667 87.5581 13.5733 87.5581 16.96V29H80.4781V26.2C79.3848 28.3067 77.2515 29.36 74.0781 29.36C72.3981 29.36 70.9448 29.0667 69.7181 28.48C68.4915 27.8933 67.5581 27.1067 66.9181 26.12C66.3048 25.1067 65.9981 23.96 65.9981 22.68C65.9981 20.6267 66.7848 19.04 68.3581 17.92C69.9315 16.7733 72.3581 16.2 75.6381 16.2H79.9581C79.8248 13.9067 78.2915 12.76 75.3581 12.76C74.3181 12.76 73.2648 12.9333 72.1981 13.28C71.1315 13.6 70.2248 14.0533 69.4781 14.64L66.9181 9.48C68.1181 8.68 69.5715 8.06667 71.2781 7.64C73.0115 7.18667 74.7448 6.96 76.4781 6.96ZM76.1981 24.56C77.0781 24.56 77.8515 24.3467 78.5181 23.92C79.1848 23.4933 79.6648 22.8667 79.9581 22.04V20.16H76.6781C74.4648 20.16 73.3581 20.8933 73.3581 22.36C73.3581 23.0267 73.6115 23.56 74.1181 23.96C74.6248 24.36 75.3181 24.56 76.1981 24.56ZM103.01 29.36C100.61 29.36 98.4636 28.88 96.5703 27.92C94.677 26.96 93.197 25.6267 92.1303 23.92C91.0903 22.2133 90.5703 20.28 90.5703 18.12C90.5703 15.96 91.0903 14.04 92.1303 12.36C93.197 10.6533 94.677 9.33333 96.5703 8.4C98.4636 7.44 100.61 6.96 103.01 6.96C105.464 6.96 107.584 7.49333 109.37 8.56C111.157 9.6 112.424 11.0533 113.17 12.92L107.29 15.92C106.304 13.9733 104.864 13 102.97 13C101.61 13 100.477 13.4533 99.5703 14.36C98.6903 15.2667 98.2503 16.52 98.2503 18.12C98.2503 19.7467 98.6903 21.0267 99.5703 21.96C100.477 22.8667 101.61 23.32 102.97 23.32C104.864 23.32 106.304 22.3467 107.29 20.4L113.17 23.4C112.424 25.2667 111.157 26.7333 109.37 27.8C107.584 28.84 105.464 29.36 103.01 29.36ZM126.509 21.28H123.949V29H116.349V7.32H123.949V15.32H126.669L131.989 7.32H140.029L132.749 17.72L140.509 29H131.549L126.509 21.28ZM143.029 7.32H150.589V18.68L159.669 7.32H166.669V29H159.069V17.6L150.069 29H143.029V7.32ZM171.577 29.144C171.085 29.144 170.671 28.976 170.335 28.64C169.999 28.304 169.831 27.884 169.831 27.38C169.831 26.864 169.999 26.45 170.335 26.138C170.671 25.814 171.085 25.652 171.577 25.652C172.069 25.652 172.483 25.814 172.819 26.138C173.155 26.45 173.323 26.864 173.323 27.38C173.323 27.884 173.155 28.304 172.819 28.64C172.483 28.976 172.069 29.144 171.577 29.144ZM180.986 19.172C181.886 19.172 182.702 19.382 183.434 19.802C184.178 20.21 184.76 20.792 185.18 21.548C185.6 22.292 185.81 23.162 185.81 24.158C185.81 25.154 185.6 26.03 185.18 26.786C184.76 27.53 184.178 28.112 183.434 28.532C182.702 28.94 181.886 29.144 180.986 29.144C179.75 29.144 178.778 28.754 178.07 27.974V32.492H175.262V19.316H177.944V20.432C178.64 19.592 179.654 19.172 180.986 19.172ZM180.5 26.84C181.22 26.84 181.808 26.6 182.264 26.12C182.732 25.628 182.966 24.974 182.966 24.158C182.966 23.342 182.732 22.694 182.264 22.214C181.808 21.722 181.22 21.476 180.5 21.476C179.78 21.476 179.186 21.722 178.718 22.214C178.262 22.694 178.034 23.342 178.034 24.158C178.034 24.974 178.262 25.628 178.718 26.12C179.186 26.6 179.78 26.84 180.5 26.84ZM197.216 19.316L192.842 29.594C192.398 30.71 191.846 31.496 191.186 31.952C190.538 32.408 189.752 32.636 188.828 32.636C188.324 32.636 187.826 32.558 187.334 32.402C186.842 32.246 186.44 32.03 186.128 31.754L187.154 29.756C187.37 29.948 187.616 30.098 187.892 30.206C188.18 30.314 188.462 30.368 188.738 30.368C189.122 30.368 189.434 30.272 189.674 30.08C189.914 29.9 190.13 29.594 190.322 29.162L190.358 29.072L186.164 19.316H189.062L191.78 25.886L194.516 19.316H197.216Z" fill="#2B2A2A"/>
</svg>
