<svg width="44" height="47" viewBox="0 0 44 47" fill="none" xmlns="http://www.w3.org/2000/svg">
<ellipse cx="21.8652" cy="23.071" rx="10" ry="21.8571" transform="rotate(40.8765 21.8652 23.071)" fill="#4945FF" fill-opacity="0.1"/>
<path d="M21 36.1562C20.5687 36.1562 20.2188 36.5062 20.2188 36.9375C20.2188 37.3687 20.5687 37.7188 21 37.7188C21.4312 37.7188 21.7812 37.3687 21.7812 36.9375C21.7812 36.5062 21.4312 36.1562 21 36.1562Z" fill="#4945FF"/>
<path d="M37.6474 10.7945C35.7249 10.0202 33.2254 9.59375 30.6094 9.59375C27.9934 9.59375 25.4938 10.0202 23.5713 10.7945C22.4352 11.2521 21.5678 11.8113 21 12.4388C20.4322 11.8113 19.5648 11.2522 18.4287 10.7946C16.5062 10.0202 14.0066 9.59375 11.3906 9.59375C8.77461 9.59375 6.27508 10.0202 4.35258 10.7945C2.19062 11.6653 1 12.9036 1 14.2812V33.0312C1 34.4089 2.19062 35.6472 4.35258 36.518C6.14062 37.2381 8.42797 37.6569 10.8438 37.712V37.7188C10.8438 40.3911 15.21 42.4062 21 42.4062C26.79 42.4062 31.1562 40.3911 31.1562 37.7188V37.712C33.572 37.6569 35.8594 37.2381 37.6474 36.518C39.8094 35.6472 41 34.4089 41 33.0312V14.2812C41 12.9036 39.8094 11.6653 37.6474 10.7945ZM39.4375 28.3438C39.4375 29.0107 38.5279 29.7913 37.0637 30.3811C35.4789 31.0194 33.3512 31.4055 31.1562 31.461V28.3438C31.1562 28.3415 31.1561 28.3392 31.1561 28.337C33.572 28.282 35.8593 27.8632 37.6475 27.143C38.3493 26.8603 38.948 26.5387 39.4376 26.1864L39.4375 28.3438ZM20.2188 18.9688C20.2188 19.6357 19.3091 20.4163 17.8449 21.0061C16.1288 21.6973 13.7762 22.0938 11.3906 22.0938C9.005 22.0938 6.6525 21.6973 4.93633 21.0061C3.47211 20.4163 2.5625 19.6357 2.5625 18.9688V16.8114C3.05211 17.1638 3.65078 17.4853 4.35258 17.768C6.27508 18.5423 8.77461 18.9688 11.3906 18.9688C14.0066 18.9688 16.5062 18.5423 18.4287 17.768C19.1305 17.4853 19.7291 17.1638 20.2188 16.8114V18.9688ZM4.35258 22.4555C6.27508 23.2298 8.77461 23.6562 11.3906 23.6562C14.0066 23.6562 16.5062 23.2298 18.4287 22.4555C19.1305 22.1728 19.7291 21.8512 20.2188 21.4989V23.6701C18.1977 23.7385 16.2594 24.0702 14.6916 24.6223C13.1192 25.1762 11.9877 25.9147 11.3724 26.781C8.99305 26.779 6.64812 26.383 4.93633 25.6936C3.47211 25.1038 2.5625 24.3232 2.5625 23.6562V21.4989C3.05211 21.8512 3.65078 22.1728 4.35258 22.4555ZM2.5625 26.1864C3.05211 26.5387 3.65078 26.8603 4.35258 27.143C6.1407 27.8631 8.42812 28.2819 10.844 28.337C10.844 28.3393 10.8438 28.3416 10.8438 28.3438V31.461C8.64875 31.4055 6.52117 31.0194 4.93641 30.3811C3.47211 29.7913 2.5625 29.0107 2.5625 28.3438V26.1864ZM12.4889 27.9599C13.0679 26.6125 16.4097 25.2188 21 25.2188C25.5903 25.2188 28.9321 26.6125 29.5105 27.9584C29.5666 28.0897 29.5938 28.2157 29.5938 28.3438C29.5938 29.0306 28.747 29.7936 27.3285 30.3846C25.6507 31.0837 23.4032 31.4688 21 31.4688C18.5968 31.4688 16.3493 31.0837 14.6715 30.3846C13.253 29.7936 12.4062 29.0306 12.4062 28.3438C12.4062 28.2157 12.4335 28.0897 12.4889 27.9599ZM39.4375 23.6562C39.4375 24.3232 38.5279 25.1038 37.0637 25.6936C35.352 26.383 33.0071 26.779 30.6278 26.781C30.013 25.9152 28.8813 25.1763 27.3084 24.6223C25.7406 24.0702 23.8023 23.7385 21.7812 23.6701V21.4989C22.2709 21.8512 22.8695 22.1728 23.5713 22.4555C25.4938 23.2298 27.9934 23.6562 30.6094 23.6562C33.2254 23.6562 35.7249 23.2298 37.6474 22.4555C38.3492 22.1728 38.9479 21.8512 39.4375 21.4989V23.6562ZM39.4375 18.9688C39.4375 19.6357 38.5279 20.4163 37.0637 21.0061C35.3475 21.6973 32.995 22.0938 30.6094 22.0938C28.2237 22.0938 25.8713 21.6973 24.1551 21.0061C22.6909 20.4163 21.7812 19.6357 21.7812 18.9688V16.8114C22.2709 17.1638 22.8695 17.4853 23.5713 17.768C25.4938 18.5423 27.9934 18.9688 30.6094 18.9688C33.2254 18.9688 35.7249 18.5423 37.6474 17.768C38.3492 17.4853 38.9479 17.1638 39.4375 16.8114V18.9688ZM24.1551 12.2439C25.8713 11.5527 28.2237 11.1562 30.6094 11.1562C32.995 11.1562 35.3475 11.5527 37.0637 12.2439C38.5279 12.8337 39.4375 13.6143 39.4375 14.2812C39.4375 14.9482 38.5279 15.7288 37.0637 16.3186C35.3475 17.0098 32.995 17.4062 30.6094 17.4062C28.2237 17.4062 25.8713 17.0098 24.1551 16.3186C22.6909 15.7288 21.7812 14.9482 21.7812 14.2812C21.7812 13.6143 22.6909 12.8337 24.1551 12.2439ZM4.93633 12.2439C6.6525 11.5527 9.005 11.1562 11.3906 11.1562C13.7762 11.1562 16.1288 11.5527 17.8449 12.2439C19.3091 12.8337 20.2188 13.6143 20.2188 14.2812C20.2188 14.9482 19.3091 15.7288 17.8449 16.3186C16.1288 17.0098 13.7762 17.4062 11.3906 17.4062C9.005 17.4062 6.6525 17.0098 4.93633 16.3186C3.47211 15.7288 2.5625 14.9482 2.5625 14.2812C2.5625 13.6143 3.47211 12.8337 4.93633 12.2439ZM4.93633 35.0686C3.47211 34.4788 2.5625 33.6982 2.5625 33.0312V30.8739C3.05211 31.2262 3.65078 31.5478 4.35258 31.8305C6.14062 32.5506 8.42797 32.9694 10.8438 33.0245V36.1486C8.64867 36.093 6.52109 35.707 4.93633 35.0686ZM27.3285 39.7596C25.6507 40.4587 23.4032 40.8438 21 40.8438C18.5968 40.8438 16.3493 40.4587 14.6715 39.7596C13.253 39.1686 12.4062 38.4056 12.4062 37.7188V35.607C12.5832 35.735 12.7788 35.8623 12.9956 35.9877C14.2088 36.6898 15.8595 37.2091 17.7694 37.4894C17.8079 37.495 17.846 37.4977 17.8838 37.4977C18.2651 37.4977 18.5988 37.2183 18.6558 36.8298C18.7184 36.403 18.4231 36.0061 17.9963 35.9434C14.3655 35.4104 12.4062 34.0452 12.4062 33.0312V30.9125C14.1745 32.2064 17.2959 33.0312 21 33.0312C24.7041 33.0312 27.8255 32.2064 29.5938 30.9125V33.0312C29.5938 34.0452 27.6345 35.4104 24.0037 35.9434C23.5768 36.0061 23.2815 36.403 23.3442 36.8298C23.4013 37.2184 23.7349 37.4977 24.1162 37.4977C24.1539 37.4977 24.1922 37.495 24.2306 37.4894C26.1404 37.2091 27.7911 36.6898 29.0044 35.9877C29.2212 35.8623 29.4168 35.735 29.5938 35.607V37.7188C29.5938 38.4056 28.747 39.1686 27.3285 39.7596ZM37.0637 35.0686C35.4789 35.7069 33.3512 36.093 31.1562 36.1485V33.0245C33.572 32.9693 35.8594 32.5505 37.6474 31.8304C38.3492 31.5477 38.9479 31.2262 39.4375 30.8738V33.0312C39.4375 33.6982 38.5279 34.4788 37.0637 35.0686Z" fill="#4945FF"/>
</svg>
