<svg width="44" height="47" viewBox="0 0 44 47" fill="none" xmlns="http://www.w3.org/2000/svg">
<ellipse cx="21.8652" cy="23.071" rx="10" ry="21.8571" transform="rotate(40.8765 21.8652 23.071)" fill="#4945FF" fill-opacity="0.1"/>
<g clip-path="url(#clip0)">
<path d="M42.6422 22.4774L39.9185 21.2986L37.6055 16.7977C36.9804 15.5653 35.7122 14.7972 34.328 14.8062H30.345V13.6809C30.345 11.6448 28.7197 9.98373 26.6836 9.98373H7.64391C5.60778 9.98373 4.0003 11.6537 4.0003 13.6809V30.9167C3.98244 32.158 4.97371 33.1761 6.21504 33.1939C6.22397 33.1939 6.2329 33.1939 6.25077 33.1939H6.72408C6.72408 33.2832 6.71515 33.3189 6.71515 33.3725C6.70622 35.9266 8.76915 38.0074 11.3232 38.0163C13.8773 38.0253 15.9581 35.9623 15.9671 33.4082C15.9671 33.3904 15.9671 33.3815 15.9671 33.3636C15.9671 33.3011 15.9671 33.2743 15.9581 33.185H31.3453C31.3453 33.2743 31.3453 33.31 31.3453 33.3636C31.3363 35.9177 33.3993 37.9985 35.9534 38.0074C38.5075 38.0163 40.5882 35.9534 40.5972 33.3993C40.5972 33.3815 40.5972 33.3725 40.5972 33.3547C40.5972 33.2921 40.5972 33.2654 40.5972 33.1761H41.7492C42.9905 33.1761 43.9997 32.1669 43.9997 30.9256C43.9997 30.9167 43.9997 30.9077 43.9997 30.8899V24.5493C44.0175 23.6741 43.4817 22.8435 42.6422 22.4774ZM11.35 36.2392C9.77828 36.2392 8.51016 34.9711 8.51016 33.3993C8.51016 31.8276 9.77828 30.5594 11.35 30.5594C12.9218 30.5594 14.1899 31.8276 14.1899 33.3993C14.1899 34.9621 12.9129 36.2392 11.35 36.2392ZM28.559 31.4257H15.5384C14.7883 29.7914 13.1451 28.7466 11.35 28.7555C9.54609 28.7466 7.91182 29.7825 7.16167 31.4257H6.25077C5.97392 31.4257 5.78638 31.2114 5.78638 30.9345V26.3353H28.559V31.4257ZM28.559 13.6899V24.5493H5.78638V13.6899C5.78638 12.645 6.59905 11.7787 7.64391 11.7787H26.6836C27.7284 11.7877 28.5679 12.645 28.559 13.6809V13.6899ZM30.345 16.6012H34.328C35.0335 16.5923 35.6944 16.9763 36.0248 17.6103L37.8109 21.0664H30.345V16.6012V16.6012ZM35.9801 36.2392C34.4084 36.2392 33.1403 34.9711 33.1403 33.3993C33.1403 31.8276 34.4084 30.5594 35.9801 30.5594C37.5519 30.5594 38.82 31.8276 38.82 33.3993C38.82 34.9621 37.5519 36.2392 35.9801 36.2392ZM42.2225 30.9345C42.2225 31.2114 42.035 31.4257 41.7581 31.4257H40.1685C39.0879 29.1127 36.3374 28.1125 34.0244 29.1931C33.042 29.6485 32.2472 30.4433 31.7918 31.4257H30.345V22.8525H39.0969L41.9367 24.1027C42.1153 24.192 42.2314 24.3885 42.2225 24.585V30.9345Z" fill="#4945FF"/>
</g>
<defs>
<clipPath id="clip0">
<rect width="40" height="40" fill="white" transform="translate(4 4)"/>
</clipPath>
</defs>
</svg>
