<svg width="44" height="47" viewBox="0 0 44 47" fill="none" xmlns="http://www.w3.org/2000/svg">
<ellipse cx="21.8652" cy="23.071" rx="10" ry="21.8571" transform="rotate(40.8765 21.8652 23.071)" fill="#4945FF" fill-opacity="0.1"/>
<path d="M33.9337 12.8578L22.4494 8.08958C22.1617 7.97017 21.8383 7.97011 21.5506 8.08958L10.0663 12.8578C9.62887 13.0394 9.34375 13.4664 9.34375 13.9401V19.7364C9.34375 27.7177 14.1677 34.897 21.5571 37.9131C21.841 38.0289 22.159 38.0289 22.4429 37.9131C29.8322 34.897 34.6562 27.7177 34.6562 19.7364V13.9401C34.6562 13.4664 34.3712 13.0394 33.9337 12.8578ZM32.3125 19.7364C32.3125 26.5213 28.3281 32.7672 22 35.5552C15.841 32.8417 11.6875 26.7052 11.6875 19.7364V14.7224L22 10.4407L32.3125 14.7224V19.7364ZM20.7047 23.6865L25.7417 18.6496C26.1993 18.192 26.9413 18.1919 27.3989 18.6496C27.8566 19.1073 27.8566 19.8492 27.3989 20.3068L21.5334 26.1724C21.0756 26.6301 20.3337 26.6299 19.8761 26.1724L16.6011 22.8973C16.1434 22.4397 16.1434 21.6977 16.6011 21.2401C17.0587 20.7825 17.8007 20.7824 18.2583 21.2401L20.7047 23.6865Z" fill="#4945FF"/>
</svg>
