<svg width="44" height="47" viewBox="0 0 44 47" fill="none" xmlns="http://www.w3.org/2000/svg">
<ellipse cx="21.8652" cy="23.071" rx="10" ry="21.8571" transform="rotate(40.8765 21.8652 23.071)" fill="#4945FF" fill-opacity="0.1"/>
<path d="M39.2375 10.65L38.35 9.76251C37.2953 8.70913 35.8656 8.11746 34.375 8.11746C32.8844 8.11746 31.4547 8.70913 30.4 9.76251L27.3062 12.8563L26.2687 11.8188C25.9585 11.5126 25.5521 11.323 25.1182 11.282C24.6843 11.241 24.2496 11.3511 23.8875 11.5938L18.6125 15.1813C15.2959 17.4353 12.4353 20.2959 10.1812 23.6125L6.59373 28.8875C6.35112 29.2496 6.241 29.6843 6.28199 30.1182C6.32299 30.5521 6.51259 30.9586 6.81873 31.2688L7.85623 32.3063L4.76248 35.4C3.7091 36.4547 3.11743 37.8844 3.11743 39.375C3.11743 40.8656 3.7091 42.2953 4.76248 43.35L5.64998 44.2375C6.70508 45.2901 8.13461 45.8813 9.62498 45.8813C11.1154 45.8813 12.5449 45.2901 13.6 44.2375L16.6937 41.1438L17.7312 42.1813C17.9064 42.355 18.1142 42.4925 18.3427 42.5858C18.5711 42.6791 18.8157 42.7264 19.0625 42.725C19.4362 42.7245 19.8015 42.6136 20.1125 42.4063L25.3875 38.8188C28.7041 36.5647 31.5647 33.7041 33.8187 30.3875L37.4062 25.1125C37.6136 24.8015 37.7244 24.4363 37.725 24.0625C37.7264 23.8157 37.6791 23.5711 37.5858 23.3427C37.4925 23.1142 37.355 22.9065 37.1812 22.7313L36.1437 21.6938L39.2375 18.6C40.2909 17.5453 40.8825 16.1156 40.8825 14.625C40.8825 13.1344 40.2909 11.7047 39.2375 10.65ZM12.7187 43.35C11.8977 44.1695 10.785 44.6298 9.62498 44.6298C8.46494 44.6298 7.35229 44.1695 6.53123 43.35L5.64998 42.4688C4.83048 41.6477 4.37023 40.5351 4.37023 39.375C4.37023 38.215 4.83048 37.1023 5.64998 36.2813L8.74373 33.1875L9.18123 33.6313L6.08748 36.725C5.38523 37.4281 4.99078 38.3813 4.99078 39.375C4.99078 40.3688 5.38523 41.3219 6.08748 42.025L6.97498 42.9125C7.679 43.6131 8.63178 44.0064 9.62498 44.0064C10.6182 44.0064 11.571 43.6131 12.275 42.9125L15.3687 39.8188L15.8125 40.2563L12.7187 43.35ZM10.0687 34.5125L14.4875 38.9313L11.3937 42.025C10.9242 42.4932 10.2881 42.7562 9.62498 42.7562C8.96187 42.7562 8.3258 42.4932 7.85623 42.025L6.97498 41.1438C6.50676 40.6742 6.24383 40.0381 6.24383 39.375C6.24383 38.7119 6.50676 38.0758 6.97498 37.6063L10.0687 34.5125ZM36.2937 23.6188C36.3967 23.7216 36.4606 23.8572 36.4742 24.0021C36.4879 24.147 36.4506 24.2922 36.3687 24.4125L32.7875 29.6813C30.6188 32.8687 27.8687 35.6188 24.6812 37.7875L19.4125 41.3688C19.2921 41.4506 19.147 41.488 19.0021 41.4743C18.8572 41.4606 18.7216 41.3967 18.6187 41.2938L15.8125 38.4938V38.4875L13.1625 35.8375L7.70623 30.3813C7.60326 30.2784 7.53942 30.1428 7.52573 29.9979C7.51204 29.853 7.54935 29.7079 7.63123 29.5875L11.2125 24.3188C13.3812 21.1313 16.1313 18.3812 19.3187 16.2125L24.5875 12.6313C24.6923 12.5597 24.8168 12.5226 24.9437 12.525C25.1077 12.5257 25.2648 12.5908 25.3812 12.7063L28.1875 15.5063V15.5125L36.2937 23.6188ZM29.5125 15.0688L32.6062 11.975C33.0758 11.5068 33.7119 11.2439 34.375 11.2439C35.0381 11.2439 35.6742 11.5068 36.1437 11.975L37.025 12.8563C37.4932 13.3258 37.7561 13.9619 37.7561 14.625C37.7561 15.2881 37.4932 15.9242 37.025 16.3938L33.9312 19.4875L29.5125 15.0688ZM35.2562 20.8125L34.8187 20.3688L37.9125 17.275C38.6147 16.5719 39.0092 15.6188 39.0092 14.625C39.0092 13.6313 38.6147 12.6781 37.9125 11.975L37.025 11.0875C36.321 10.3869 35.3682 9.99364 34.375 9.99364C33.3818 9.99364 32.429 10.3869 31.725 11.0875L28.6312 14.1813L28.1875 13.7438L31.2812 10.65C32.1023 9.83051 33.2149 9.37026 34.375 9.37026C35.535 9.37026 36.6477 9.83051 37.4687 10.65L38.35 11.5313C39.1695 12.3523 39.6297 13.465 39.6297 14.625C39.6297 15.7851 39.1695 16.8977 38.35 17.7188L35.2562 20.8125Z" fill="#4945FF"/>
<path d="M30.3968 21.255C30.2796 21.1378 30.1207 21.072 29.955 21.072C29.7892 21.072 29.6303 21.1378 29.5131 21.255L16.255 34.5131C16.1953 34.5708 16.1476 34.6398 16.1149 34.716C16.0821 34.7923 16.0649 34.8743 16.0642 34.9573C16.0635 35.0402 16.0793 35.1225 16.1107 35.1994C16.1421 35.2762 16.1885 35.346 16.2472 35.4046C16.3059 35.4633 16.3757 35.5097 16.4525 35.5412C16.5293 35.5726 16.6116 35.5884 16.6946 35.5877C16.7776 35.5869 16.8596 35.5697 16.9358 35.537C17.0121 35.5042 17.081 35.4566 17.1387 35.3969L30.3968 22.1388C30.514 22.0216 30.5798 21.8626 30.5798 21.6969C30.5798 21.5312 30.514 21.3722 30.3968 21.255Z" fill="#4945FF"/>
<path d="M27.745 18.6032C27.6278 18.486 27.4688 18.4202 27.3031 18.4202C27.1374 18.4202 26.9784 18.486 26.8612 18.6032L13.6031 31.8613C13.5434 31.9189 13.4958 31.9879 13.463 32.0642C13.4303 32.1404 13.413 32.2224 13.4123 32.3054C13.4116 32.3884 13.4274 32.4707 13.4588 32.5475C13.4903 32.6243 13.5367 32.6941 13.5954 32.7528C13.654 32.8115 13.7238 32.8579 13.8006 32.8893C13.8774 32.9207 13.9597 32.9365 14.0427 32.9358C14.1257 32.9351 14.2077 32.9178 14.284 32.8851C14.3602 32.8523 14.4292 32.8047 14.4868 32.745L27.745 19.4869C27.8621 19.3697 27.928 19.2108 27.928 19.045C27.928 18.8793 27.8621 18.7204 27.745 18.6032Z" fill="#4945FF"/>
<path d="M25.0931 15.9512C24.9759 15.8341 24.817 15.7682 24.6512 15.7682C24.4855 15.7682 24.3266 15.8341 24.2094 15.9512L10.9512 29.21C10.8915 29.2676 10.8439 29.3366 10.8112 29.4128C10.7784 29.4891 10.7612 29.5711 10.7605 29.6541C10.7597 29.7371 10.7756 29.8194 10.807 29.8962C10.8384 29.973 10.8848 30.0428 10.9435 30.1015C11.0022 30.1602 11.072 30.2066 11.1488 30.238C11.2256 30.2694 11.3079 30.2852 11.3909 30.2845C11.4739 30.2838 11.5559 30.2665 11.6321 30.2338C11.7084 30.201 11.7773 30.1534 11.835 30.0937L25.0931 16.835C25.2103 16.7178 25.2761 16.5588 25.2761 16.3931C25.2761 16.2274 25.2103 16.0684 25.0931 15.9512Z" fill="#4945FF"/>
<path d="M18.9069 37.165C18.8472 37.2227 18.7996 37.2916 18.7668 37.3679C18.7341 37.4441 18.7168 37.5262 18.7161 37.6091C18.7154 37.6921 18.7312 37.7744 18.7626 37.8512C18.794 37.9281 18.8404 37.9978 18.8991 38.0565C18.9578 38.1152 19.0276 38.1616 19.1044 38.193C19.1812 38.2245 19.2635 38.2403 19.3465 38.2396C19.4295 38.2388 19.5115 38.2216 19.5877 38.1888C19.664 38.1561 19.733 38.1085 19.7906 38.0488L33.0487 24.79C33.1084 24.7324 33.156 24.6634 33.1888 24.5872C33.2216 24.5109 33.2388 24.4289 33.2395 24.3459C33.2402 24.2629 33.2244 24.1806 33.193 24.1038C33.1616 24.027 33.1152 23.9572 33.0565 23.8985C32.9978 23.8399 32.928 23.7935 32.8512 23.762C32.7744 23.7306 32.6921 23.7148 32.6091 23.7155C32.5261 23.7162 32.4441 23.7335 32.3679 23.7662C32.2916 23.799 32.2226 23.8466 32.165 23.9063L18.9069 37.165Z" fill="#4945FF"/>
</svg>
