<?xml version="1.0" encoding="UTF-8"?>
<svg xmlns="http://www.w3.org/2000/svg" xmlns:xlink="http://www.w3.org/1999/xlink" viewBox="0 0 100 100" version="1.1">
<g >
<path style=" stroke:none;fill-rule:nonzero;fill:rgb(0%,0%,0%);fill-opacity:1;" d="M 12.5 20.832031 C 10.996094 20.8125 9.601562 21.601562 8.84375 22.898438 C 8.085938 24.199219 8.085938 25.800781 8.84375 27.101562 C 9.601562 28.398438 10.996094 29.1875 12.5 29.167969 L 87.5 29.167969 C 89.003906 29.1875 90.398438 28.398438 91.15625 27.101562 C 91.914062 25.800781 91.914062 24.199219 91.15625 22.898438 C 90.398438 21.601562 89.003906 20.8125 87.5 20.832031 Z M 12.5 45.832031 C 10.996094 45.8125 9.601562 46.601562 8.84375 47.898438 C 8.085938 49.199219 8.085938 50.800781 8.84375 52.101562 C 9.601562 53.398438 10.996094 54.1875 12.5 54.167969 L 87.5 54.167969 C 89.003906 54.1875 90.398438 53.398438 91.15625 52.101562 C 91.914062 50.800781 91.914062 49.199219 91.15625 47.898438 C 90.398438 46.601562 89.003906 45.8125 87.5 45.832031 Z M 12.5 70.832031 C 10.996094 70.8125 9.601562 71.601562 8.84375 72.898438 C 8.085938 74.199219 8.085938 75.800781 8.84375 77.101562 C 9.601562 78.398438 10.996094 79.1875 12.5 79.167969 L 87.5 79.167969 C 89.003906 79.1875 90.398438 78.398438 91.15625 77.101562 C 91.914062 75.800781 91.914062 74.199219 91.15625 72.898438 C 90.398438 71.601562 89.003906 70.8125 87.5 70.832031 Z M 12.5 70.832031 "/>
</g>
</svg>
