<svg width="21" height="21" viewBox="0 0 21 21" fill="none" xmlns="http://www.w3.org/2000/svg">
<path d="M17.1964 8.25893C17.1964 8.48661 17.1161 8.70089 16.9554 8.86161L9.68304 16.1339C9.52232 16.2946 9.29464 16.3884 9.06696 16.3884C8.85268 16.3884 8.625 16.2946 8.46429 16.1339L3.61607 11.2857C3.45536 11.125 3.375 10.9107 3.375 10.683C3.375 10.4554 3.45536 10.2277 3.61607 10.067L4.83482 8.86161C4.99554 8.70089 5.20982 8.60714 5.4375 8.60714C5.66518 8.60714 5.87946 8.70089 6.04018 8.86161L9.06696 11.8884L14.5312 6.4375C14.692 6.27678 14.9062 6.18303 15.1339 6.18303C15.3616 6.18303 15.5759 6.27678 15.7366 6.4375L16.9554 7.64286C17.1161 7.80357 17.1964 8.03125 17.1964 8.25893ZM20.5714 10.4286C20.5714 4.75 15.9643 0.142856 10.2857 0.142856C4.60714 0.142856 0 4.75 0 10.4286C0 16.1071 4.60714 20.7143 10.2857 20.7143C15.9643 20.7143 20.5714 16.1071 20.5714 10.4286Z" fill="#4945FF"/>
</svg>
