<svg width="70" height="71" viewBox="0 0 70 71" fill="none" xmlns="http://www.w3.org/2000/svg">
<ellipse rx="15.4959" ry="33.6009" transform="matrix(0.773751 0.63349 -0.675043 0.737778 34.7862 34.6065)" fill="#4945FF" fill-opacity="0.1"/>
<path d="M59.5273 21.0188L58.2372 19.7984C56.7041 18.35 54.626 17.5365 52.4593 17.5365C50.2925 17.5365 48.2144 18.35 46.6813 19.7984L42.1843 24.0523L40.6763 22.6258C40.2253 22.2048 39.6346 21.9441 39.0039 21.8878C38.3731 21.8314 37.7412 21.9828 37.2149 22.3164L29.5473 27.2492C24.7265 30.3486 20.5683 34.2819 17.2919 38.8422L12.0772 46.0953C11.7246 46.5932 11.5645 47.1909 11.6241 47.7875C11.6837 48.3842 11.9593 48.943 12.4043 49.3695L13.9124 50.7961L9.41537 55.05C7.88421 56.5002 7.02417 58.466 7.02417 60.5156C7.02417 62.5652 7.88421 64.5311 9.41537 65.9813L10.7054 67.2016C12.2391 68.6489 14.317 69.4617 16.4834 69.4617C18.6497 69.4617 20.7277 68.6489 22.2613 67.2016L26.7583 62.9477L28.2664 64.3742C28.521 64.6132 28.8231 64.8022 29.1551 64.9305C29.4872 65.0588 29.8428 65.1238 30.2014 65.1219C30.7447 65.1211 31.2757 64.9686 31.7277 64.6836L39.3953 59.7508C44.2162 56.6515 48.3743 52.7181 51.6507 48.1578L56.8654 40.9047C57.1667 40.4771 57.3279 39.9748 57.3287 39.4609C57.3308 39.1216 57.2621 38.7853 57.1264 38.4712C56.9908 38.1571 56.791 37.8714 56.5384 37.6305L55.0303 36.2039L59.5273 31.95C61.0584 30.4998 61.9185 28.534 61.9185 26.4844C61.9185 24.4348 61.0584 22.469 59.5273 21.0188ZM20.9803 65.9813C19.7869 67.1081 18.1696 67.7409 16.4834 67.7409C14.7972 67.7409 13.1798 67.1081 11.9864 65.9813L10.7054 64.7695C9.51422 63.6406 8.8452 62.1107 8.8452 60.5156C8.8452 58.9206 9.51422 57.3907 10.7054 56.2617L15.2024 52.0078L15.8383 52.618L11.3414 56.8719C10.3206 57.8387 9.74722 59.1492 9.74722 60.5156C9.74722 61.882 10.3206 63.1926 11.3414 64.1594L12.6314 65.3797C13.6547 66.343 15.0397 66.8838 16.4834 66.8838C17.927 66.8838 19.312 66.343 20.3353 65.3797L24.8323 61.1258L25.4773 61.7273L20.9803 65.9813ZM17.1284 53.8297L23.5514 59.9055L19.0544 64.1594C18.3718 64.8032 17.4473 65.1647 16.4834 65.1647C15.5195 65.1647 14.5949 64.8032 13.9124 64.1594L12.6314 62.9477C11.9508 62.302 11.5686 61.4274 11.5686 60.5156C11.5686 59.6038 11.9508 58.7293 12.6314 58.0836L17.1284 53.8297ZM55.2483 38.8508C55.398 38.9922 55.4908 39.1787 55.5107 39.3779C55.5306 39.5772 55.4763 39.7767 55.3573 39.9422L50.1517 47.1867C46.9993 51.5695 43.0019 55.3508 38.3687 58.3328L30.7102 63.257C30.5353 63.3696 30.3243 63.4209 30.1137 63.4021C29.903 63.3833 29.706 63.2955 29.5564 63.1539L25.4773 59.3039V59.2953L21.6254 55.6516L13.6943 48.1492C13.5446 48.0078 13.4519 47.8213 13.4319 47.6221C13.412 47.4229 13.4663 47.2233 13.5853 47.0578L18.7909 39.8133C21.9433 35.4305 25.9407 31.6492 30.5739 28.6672L38.2324 23.743C38.3848 23.6446 38.5658 23.5935 38.7503 23.5969C38.9886 23.5978 39.217 23.6873 39.3862 23.8461L43.4653 27.6961V27.7047L55.2483 38.8508ZM45.3913 27.0945L49.8883 22.8406C50.5708 22.1968 51.4954 21.8353 52.4593 21.8353C53.4232 21.8353 54.3477 22.1968 55.0303 22.8406L56.3112 24.0523C56.9918 24.698 57.374 25.5726 57.374 26.4844C57.374 27.3962 56.9918 28.2708 56.3112 28.9164L51.8142 33.1703L45.3913 27.0945ZM53.7402 34.9922L53.1043 34.382L57.6013 30.1281C58.6221 29.1613 59.1954 27.8508 59.1954 26.4844C59.1954 25.118 58.6221 23.8074 57.6013 22.8406L56.3112 21.6203C55.2879 20.657 53.903 20.1163 52.4593 20.1163C51.0156 20.1163 49.6306 20.657 48.6073 21.6203L44.1103 25.8742L43.4653 25.2727L47.9623 21.0188C49.1557 19.8919 50.7731 19.2591 52.4593 19.2591C54.1455 19.2591 55.7628 19.8919 56.9563 21.0188L58.2372 22.2305C59.4284 23.3594 60.0974 24.8893 60.0974 26.4844C60.0974 28.0794 59.4284 29.6093 58.2372 30.7383L53.7402 34.9922Z" fill="#4945FF"/>
<path d="M46.6768 35.6006C46.5065 35.4395 46.2754 35.349 46.0345 35.349C45.7936 35.349 45.5626 35.4395 45.3922 35.6006L26.1206 53.8305C26.0338 53.9098 25.9646 54.0046 25.917 54.1095C25.8694 54.2143 25.8443 54.3271 25.8433 54.4412C25.8422 54.5553 25.8652 54.6685 25.9109 54.7741C25.9566 54.8797 26.024 54.9757 26.1093 55.0563C26.1946 55.137 26.2961 55.2008 26.4077 55.2441C26.5194 55.2873 26.639 55.309 26.7596 55.308C26.8803 55.307 26.9995 55.2833 27.1103 55.2383C27.2212 55.1932 27.3214 55.1278 27.4052 55.0457L46.6768 36.8158C46.8471 36.6546 46.9428 36.4361 46.9428 36.2082C46.9428 35.9803 46.8471 35.7618 46.6768 35.6006Z" fill="#4945FF"/>
<path d="M42.8221 31.9543C42.6517 31.7932 42.4207 31.7027 42.1798 31.7027C41.9389 31.7027 41.7079 31.7932 41.5375 31.9543L22.2659 50.1842C22.1791 50.2635 22.1099 50.3583 22.0623 50.4632C22.0147 50.568 21.9896 50.6808 21.9886 50.7949C21.9875 50.909 22.0105 51.0222 22.0562 51.1278C22.1019 51.2334 22.1693 51.3294 22.2546 51.41C22.3399 51.4907 22.4413 51.5545 22.553 51.5978C22.6646 51.641 22.7843 51.6627 22.9049 51.6617C23.0255 51.6607 23.1447 51.637 23.2556 51.592C23.3664 51.5469 23.4667 51.4815 23.5505 51.3994L42.8221 33.1695C42.9924 33.0083 43.0881 32.7898 43.0881 32.5619C43.0881 32.334 42.9924 32.1155 42.8221 31.9543Z" fill="#4945FF"/>
<path d="M38.9674 28.3079C38.797 28.1468 38.566 28.0563 38.3251 28.0563C38.0842 28.0563 37.8531 28.1468 37.6828 28.3079L18.4111 46.5387C18.3244 46.618 18.2552 46.7128 18.2075 46.8177C18.1599 46.9225 18.1349 47.0353 18.1338 47.1494C18.1328 47.2635 18.1558 47.3766 18.2014 47.4823C18.2471 47.5879 18.3146 47.6838 18.3999 47.7645C18.4852 47.8452 18.5866 47.909 18.6983 47.9522C18.8099 47.9954 18.9295 48.0172 19.0502 48.0162C19.1708 48.0152 19.29 47.9915 19.4008 47.9465C19.5117 47.9014 19.6119 47.8359 19.6957 47.7539L38.9674 29.5231C39.1377 29.3619 39.2333 29.1434 39.2333 28.9155C39.2333 28.6877 39.1377 28.4691 38.9674 28.3079Z" fill="#4945FF"/>
<path d="M29.9751 57.4769C29.8883 57.5562 29.8191 57.651 29.7715 57.7558C29.7239 57.8607 29.6988 57.9734 29.6978 58.0876C29.6967 58.2017 29.7197 58.3148 29.7654 58.4204C29.8111 58.5261 29.8785 58.622 29.9638 58.7027C30.0491 58.7834 30.1506 58.8472 30.2622 58.8904C30.3739 58.9336 30.4935 58.9554 30.6141 58.9544C30.7348 58.9534 30.854 58.9297 30.9648 58.8846C31.0756 58.8396 31.1759 58.7741 31.2597 58.692L50.5313 40.4613C50.6181 40.382 50.6873 40.2872 50.7349 40.1823C50.7825 40.0775 50.8076 39.9647 50.8086 39.8506C50.8097 39.7365 50.7867 39.6233 50.741 39.5177C50.6953 39.4121 50.6279 39.3162 50.5426 39.2355C50.4573 39.1548 50.3559 39.091 50.2442 39.0478C50.1326 39.0045 50.0129 38.9828 49.8923 38.9838C49.7717 38.9848 49.6525 39.0085 49.5416 39.0535C49.4308 39.0986 49.3305 39.164 49.2467 39.2461L29.9751 57.4769Z" fill="#4945FF"/>
</svg>
