<svg width="70" height="70" viewBox="0 0 70 70" fill="none" xmlns="http://www.w3.org/2000/svg">
<ellipse rx="15.4959" ry="33.6009" transform="matrix(0.773751 0.63349 -0.675043 0.737778 34.7862 34.6065)" fill="#4945FF" fill-opacity="0.1"/>
<g clip-path="url(#clip0)">
<path d="M61.0599 36.9618L55.1547 22.438C54.0356 19.6924 50.7755 18.3249 47.8731 19.3834C47.8309 19.3988 47.7889 19.4146 47.7471 19.4309L18.2365 31.0027C15.4265 32.0931 14.0455 35.1018 15.1219 37.7884L15.9333 39.8372H14.072C11.0356 39.8404 8.57494 42.1681 8.57153 45.0403V63.7716C8.57494 66.6438 11.0356 68.9715 14.072 68.9747H51.4751C54.5114 68.9715 56.9721 66.6438 56.9755 63.7716V45.0403C56.9738 44.7579 56.9473 44.4761 56.8963 44.1978L57.9181 43.8066C60.7531 42.7073 62.1465 39.6718 61.0599 36.9618ZM14.072 41.5023H51.4751C53.4504 41.5076 55.0799 42.9669 55.1934 44.8323H10.3537C10.4672 42.9668 12.0967 41.5075 14.072 41.5023ZM22.9176 36.4873L28.8 33.7043L30.0092 36.5656L24.1268 39.3478L22.9176 36.4873ZM55.2154 63.7717C55.213 65.7248 53.5398 67.3075 51.4751 67.3098H14.072C12.0072 67.3075 10.3341 65.7248 10.3317 63.7717V53.1573H55.2154V63.7717ZM55.2154 51.4923H10.3317V46.4973H55.2154V51.4923ZM57.258 42.2682L56.3384 42.6203C55.3884 40.9112 53.5164 39.84 51.4751 39.8373H27.0284L31.5212 37.7119C31.9309 37.5185 32.1153 37.0602 31.9454 36.658L30.0788 32.2457C29.8982 31.8189 29.3861 31.6112 28.9349 31.7818C28.9121 31.7905 28.8898 31.7999 28.8679 31.8103L21.4057 35.3418C20.9964 35.5356 20.8124 35.9937 20.9824 36.3957L22.4381 39.8373H17.8123L16.7703 37.2083C16.0316 35.3624 16.9804 33.2957 18.9106 32.5463L48.4203 20.9745C50.3931 20.2007 52.6556 21.0862 53.4737 22.9523C53.4865 22.9813 53.4988 23.0106 53.5107 23.0399L59.416 37.5637C60.163 39.4259 59.2061 41.5122 57.258 42.2682Z" fill="#4945FF"/>
<path d="M40.2293 64.9688C41.8693 65.8701 43.8945 65.8701 45.5345 64.9688C48.0561 66.3546 51.288 65.5443 52.753 63.159C54.218 60.7736 53.3613 57.7165 50.8397 56.3307C50.0304 55.8859 49.1107 55.6526 48.1747 55.6547C47.2469 55.6551 46.3358 55.8883 45.5345 56.3307C43.0129 54.9449 39.781 55.7551 38.3161 58.1404C36.8511 60.5259 37.7077 63.5829 40.2293 64.9688ZM47.006 57.5229C47.3804 57.3924 47.7757 57.3238 48.1747 57.3198C50.1189 57.3198 51.695 58.8107 51.695 60.6498C51.695 62.4889 50.1189 63.9798 48.1747 63.9798C47.7757 63.9759 47.3804 63.9072 47.006 63.7767C48.5642 61.9526 48.5642 59.3469 47.006 57.5229ZM45.5345 58.4703C46.708 59.7114 46.708 61.5882 45.5345 62.8293C44.3611 61.5882 44.3611 59.7113 45.5345 58.4703ZM42.8943 57.3198C43.2933 57.3237 43.6887 57.3924 44.063 57.5229C42.5049 59.3469 42.5049 61.9527 44.063 63.7767C43.6887 63.9072 43.2933 63.9759 42.8943 63.9798C40.9501 63.9798 39.374 62.4889 39.374 60.6498C39.374 58.8106 40.9501 57.3198 42.8943 57.3198Z" fill="#4945FF"/>
<path d="M45.6949 36.2061L46.4099 37.7276L54.8059 34.1972L54.0909 32.6757L45.6949 36.2061Z" fill="#4945FF"/>
<path d="M52.2173 29.1511L40.0901 34.446L40.8274 35.9571L52.9546 30.6622L52.2173 29.1511Z" fill="#4945FF"/>
</g>
<defs>
<clipPath id="clip0">
<rect width="52.8571" height="50" fill="white" transform="translate(8.57153 19)"/>
</clipPath>
</defs>
</svg>
