<svg width="70" height="70" viewBox="0 0 70 70" fill="none" xmlns="http://www.w3.org/2000/svg">
<ellipse rx="15.4959" ry="33.6009" transform="matrix(0.773751 0.63349 -0.675043 0.737778 34.7859 34.6065)" fill="#4945FF" fill-opacity="0.1"/>
<path d="M56.3211 58.6563C56.4136 58.411 56.4731 58.15 56.4731 57.875C56.4731 57.6 56.4136 57.3391 56.3211 57.0938H58.1249V55.5313H56.4731V51.625C56.4731 51.193 56.1039 50.8438 55.6472 50.8438H53.1695V46.9375C53.1695 46.5055 52.8004 46.1563 52.3436 46.1563H51.5178V36C51.5178 35.568 51.1486 35.2188 50.6919 35.2188H19.3079C18.8512 35.2188 18.482 35.568 18.482 36V58.6563H15.1785V29.9789L34.9999 18.1735L54.8213 29.9797V49.2813H56.4731V30.9633L56.8588 31.193C56.9951 31.2735 57.147 31.3125 57.2982 31.3125C57.5509 31.3125 57.7978 31.2031 57.9597 31L60.4374 27.875C60.5761 27.7008 60.6307 27.4797 60.5894 27.2656C60.5481 27.0516 60.4134 26.8633 60.2194 26.7469L35.4426 11.9031C35.1733 11.7414 34.8281 11.7414 34.5589 11.9031L9.78208 26.7469C9.588 26.8633 9.45338 27.0516 9.41208 27.2656C9.36914 27.4797 9.42365 27.7008 9.5624 27.875L12.0401 31C12.2978 31.3258 12.7768 31.4094 13.141 31.193L13.5267 30.9633V58.6563H9.39722V60.2188H60.6026V58.6563H56.3211ZM12.9048 29.4867L11.4198 27.6141L34.9999 13.4875L58.58 27.6141L57.095 29.4867L35.4401 16.5883C35.3055 16.5086 35.1527 16.4688 34.9999 16.4688C34.8471 16.4688 34.6943 16.5086 34.5597 16.5883L12.9048 29.4867ZM54.8213 57.875C54.8213 58.3063 54.4513 58.6563 53.9954 58.6563C53.5395 58.6563 53.1695 58.3063 53.1695 57.875C53.1695 57.4438 53.5395 57.0938 53.9954 57.0938C54.4513 57.0938 54.8213 57.4438 54.8213 57.875ZM44.9106 57.875C44.9106 57.4438 45.2806 57.0938 45.7365 57.0938C46.1924 57.0938 46.5624 57.4438 46.5624 57.875C46.5624 58.3063 46.1924 58.6563 45.7365 58.6563C45.2806 58.6563 44.9106 58.3063 44.9106 57.875ZM43.2588 52.4063H44.9106V53.9688H46.5624V52.4063H48.2142V55.5313H43.2588V52.4063ZM48.0622 57.0938H51.6705C51.5772 57.3391 51.5178 57.6 51.5178 57.875C51.5178 58.15 51.5772 58.411 51.6697 58.6563H48.0614C48.1547 58.411 48.2142 58.15 48.2142 57.875C48.2142 57.6 48.1547 57.3391 48.0622 57.0938ZM54.8213 55.5313H49.866V52.4063H51.5178V53.9688H53.1695V52.4063H54.8213V55.5313ZM46.5624 50.8438V47.7188H48.2142V49.2813H49.866V47.7188H51.5178V50.8438H46.5624ZM45.7365 46.1563C45.2798 46.1563 44.9106 46.5055 44.9106 46.9375V50.8438H43.2588V45.375C43.2588 44.943 42.8896 44.5938 42.4329 44.5938H39.1294V46.1563H41.607V56.3125C41.607 56.7446 41.9762 57.0938 42.4329 57.0938H43.4108C43.3183 57.3391 43.2588 57.6 43.2588 57.875C43.2588 58.15 43.3183 58.411 43.4108 58.6563H39.9553V54.75C39.9553 54.318 39.5861 53.9688 39.1294 53.9688H33.3481V50.0625C33.3481 49.6305 32.9789 49.2813 32.5222 49.2813H26.741V45.375C26.741 44.943 26.3718 44.5938 25.9151 44.5938H20.1338V43.0313H49.866V46.1563H45.7365ZM20.1338 53.9688V50.8438H21.7856V52.4063H23.4374V50.8438H25.0892V53.9688H20.1338ZM23.4374 47.7188V46.1563H25.0892V49.2813H20.1338V46.1563H21.7856V47.7188H23.4374ZM30.0445 52.4063V50.8438H31.6963V53.9688H26.741V50.8438H28.3928V52.4063H30.0445ZM26.741 55.5313H28.3928V57.0938H30.0445V55.5313H31.6963V58.6563H26.741V55.5313ZM33.3481 55.5313H34.9999V57.0938H36.6517V55.5313H38.3035V58.6563H33.3481V55.5313ZM49.866 41.4688H20.1338V39.9063H49.866V41.4688ZM49.866 36.7813V38.3438H20.1338V36.7813H49.866ZM20.1338 55.5313H21.7856V57.0938H23.4374V55.5313H25.0892V58.6563H20.1338V55.5313Z" fill="#4945FF"/>
<path d="M25.0891 27.4062C24.6324 27.4062 24.2632 27.7555 24.2632 28.1875V32.875C24.2632 33.307 24.6324 33.6562 25.0891 33.6562H44.9105C45.3672 33.6562 45.7364 33.307 45.7364 32.875V28.1875C45.7364 27.7555 45.3672 27.4062 44.9105 27.4062H25.0891ZM44.0846 32.0938H25.915V28.9688H44.0846V32.0938Z" fill="#4945FF"/>
</svg>
