<svg width="44" height="47" viewBox="0 0 44 47" fill="none" xmlns="http://www.w3.org/2000/svg">
<path d="M8.25006 26.8333C5.72375 26.8333 3.66675 28.8903 3.66675 31.4166C3.66675 33.9429 5.72375 36 8.25006 36C10.7764 36 12.8334 33.943 12.8334 31.4167C12.8334 28.8904 10.7764 26.8333 8.25006 26.8333ZM8.25006 34.1667C6.73386 34.1667 5.50005 32.9329 5.50005 31.4167C5.50005 29.9005 6.73386 28.6667 8.25006 28.6667C9.76625 28.6667 11.0001 29.9005 11.0001 31.4167C11.0001 32.9328 9.76625 34.1667 8.25006 34.1667Z" fill="#4945FF"/>
<path d="M35.7501 26.8333C33.2237 26.8333 31.1667 28.8903 31.1667 31.4166C31.1667 33.9429 33.2237 36 35.7501 36C38.2764 36 40.3334 33.943 40.3334 31.4167C40.3334 28.8904 38.2764 26.8333 35.7501 26.8333ZM35.7501 34.1667C34.2339 34.1667 33.0001 32.9329 33.0001 31.4167C33.0001 29.9005 34.2339 28.6667 35.7501 28.6667C37.2662 28.6667 38.5001 29.9005 38.5001 31.4167C38.5001 32.9328 37.2662 34.1667 35.7501 34.1667Z" fill="#4945FF"/>
<path d="M38.5 21.3333H36.949C36.3825 21.3333 35.827 21.139 35.3833 20.7833L28.16 15.0046C27.3497 14.3575 26.3322 14 25.2963 14H12.045C10.5087 14 9.0842 14.7627 8.2317 16.0405L6.6715 18.3835C6.204 19.082 5.423 19.5 4.5833 19.5C2.057 19.5 0 21.557 0 24.0833V27.75C0 30.2763 2.057 32.3333 4.5833 32.3333C5.0893 32.3333 5.5 31.9226 5.5 31.4166C5.5 30.9106 5.0893 30.5 4.5833 30.5C3.06711 30.5 1.8333 29.2662 1.8333 27.75V24.0833C1.8333 22.5671 3.06711 21.3333 4.5833 21.3333C6.039 21.3333 7.3883 20.611 8.1968 19.3991L9.757 17.0579C10.2685 16.2916 11.1247 15.8332 12.045 15.8332H25.2963C25.9196 15.8332 26.5283 16.0477 27.016 16.4364L34.2393 22.2132C35.0038 22.8274 35.9681 23.1665 36.9508 23.1665H38.5C41.1895 23.1665 42.1667 25.9073 42.1667 27.7498C42.1667 29.5556 40.7844 30.4998 39.4167 30.4998C38.9107 30.4998 38.5 30.9105 38.5 31.4165C38.5 31.9225 38.9107 32.3332 39.4167 32.3332C42.0292 32.3333 44 30.3625 44 27.75C44 24.6388 42.0732 21.3333 38.5 21.3333Z" fill="#4945FF"/>
<path d="M32.0833 30.5H11.9167C11.4107 30.5 11 30.9107 11 31.4167C11 31.9227 11.4107 32.3334 11.9167 32.3334H32.0834C32.5894 32.3334 33.0001 31.9227 33.0001 31.4167C33.0001 30.9107 32.5893 30.5 32.0833 30.5Z" fill="#4945FF"/>
<path d="M30.25 21.3333H22V18.5833C22 18.0773 21.5893 17.6666 21.0833 17.6666C20.5773 17.6666 20.1666 18.0773 20.1666 18.5833V22.25C20.1666 22.756 20.5773 23.1667 21.0833 23.1667H30.25C30.756 23.1667 31.1667 22.756 31.1667 22.25C31.1667 21.744 30.756 21.3333 30.25 21.3333Z" fill="#4945FF"/>
<path d="M17.4168 21.3333H11.5666L12.7381 18.994C12.9636 18.5412 12.7803 17.9912 12.3274 17.7638C11.8727 17.5383 11.3246 17.7198 11.0972 18.1745L9.26387 21.8412C9.12087 22.1235 9.13737 22.4627 9.30417 22.7322C9.47098 23.0017 9.76618 23.1667 10.0834 23.1667H17.4167C17.9227 23.1667 18.3334 22.756 18.3334 22.25C18.3334 21.744 17.9228 21.3333 17.4168 21.3333Z" fill="#4945FF"/>
<path d="M24.75 25H22.9167C22.4107 25 22 25.4107 22 25.9167C22 26.4227 22.4107 26.8334 22.9167 26.8334H24.75C25.256 26.8334 25.6667 26.4227 25.6667 25.9167C25.6667 25.4107 25.256 25 24.75 25Z" fill="#4945FF"/>
<ellipse cx="21.8653" cy="23.071" rx="10" ry="21.8571" transform="rotate(40.8765 21.8653 23.071)" fill="#4945FF" fill-opacity="0.1"/>
</svg>
