<svg width="44" height="47" viewBox="0 0 44 47" fill="none" xmlns="http://www.w3.org/2000/svg">
<ellipse cx="21.8653" cy="23.071" rx="10" ry="21.8571" transform="rotate(40.8765 21.8653 23.071)" fill="#4945FF" fill-opacity="0.1"/>
<path d="M8.76837 27.7408C8.42402 27.9024 8.27209 28.3091 8.42555 28.6567L9.99845 32.0333C10.0757 32.2014 10.2167 32.3323 10.3901 32.3969C10.466 32.4245 10.5466 32.4387 10.6276 32.4387C10.729 32.4396 10.829 32.4179 10.9212 32.3761L22.8051 26.8253L21.7287 38.0799C21.7079 38.3014 21.7933 38.5192 21.959 38.6672C22.48 39.0985 23.1293 39.3441 23.8049 39.3662C23.9912 39.366 24.1764 39.3426 24.357 39.2966C25.3217 39.0449 26.0698 38.1852 26.5801 36.7169L31.2567 22.8689L40.5189 18.5484C43.2453 17.2763 44.6503 14.6968 43.7068 12.6835C43.1713 11.6312 42.1457 10.9153 40.9734 10.775C39.6709 10.5784 38.3397 10.7833 37.1566 11.3626L26.468 16.3746L14.9759 11.8796C13.5286 11.3345 12.3824 11.3485 11.5786 11.9289C10.9041 12.4823 10.5203 13.3142 10.5368 14.1865C10.5438 14.4079 10.6552 14.6125 10.8373 14.7391L18.5757 20.0587L14.144 22.1559L6.71277 20.2682C6.40826 20.1933 6.09128 20.3306 5.93694 20.6038L4.08471 23.9381C3.98861 24.1147 3.97351 24.3244 4.04334 24.5131C4.11273 24.7021 4.26028 24.8516 4.44833 24.9238L9.94985 27.1959L8.76837 27.7408ZM11.9695 13.8372C12.0107 13.5416 12.1602 13.2726 12.3892 13.0821C12.7878 12.7953 13.5149 12.8374 14.4864 13.2008L24.7206 17.1924L20.0507 19.3735L11.9695 13.8372ZM5.6784 23.9313L6.89469 21.7712L14.0459 23.5466C14.2001 23.5856 14.3627 23.5709 14.5076 23.505L37.751 12.6487C38.675 12.1929 39.7157 12.027 40.7359 12.1732C41.4513 12.2391 42.0886 12.652 42.4417 13.2776C43.0283 14.5361 41.8751 16.3746 39.9246 17.2833L31.8716 21.0585L32.3611 19.611C32.4848 19.2386 32.2828 18.8363 31.9104 18.7128C31.5376 18.5893 31.1354 18.7914 31.012 19.1638L25.2587 36.2833C24.9161 37.2552 24.4896 37.8356 24.0144 37.961C23.7199 38.0177 23.4152 37.9599 23.1615 37.8006L24.5597 23.1202C24.5963 22.7342 24.3132 22.3916 23.9268 22.3551C23.5409 22.3181 23.1983 22.6016 23.1615 22.9875L22.945 25.2314L10.949 30.8238L9.96386 28.7266L11.9347 27.8041C12.1885 27.6922 12.352 27.4413 12.352 27.1644C12.352 26.8873 12.1885 26.6364 11.9347 26.5247L5.6784 23.9313Z" fill="#4945FF"/>
</svg>
