<svg width="24" height="22" viewBox="0 0 24 22" fill="none" xmlns="http://www.w3.org/2000/svg">
<g clip-path="url(#clip0)">
<path d="M7.0143 16.2988C6.01469 16.2497 6.03352 14.8978 7.01426 14.8508C9.79239 14.8601 17.1199 14.8533 19.9864 14.8553C20.7704 14.8553 21.4412 14.3422 21.6175 13.6078L23.2452 6.83054C23.3384 6.4425 23.2444 6.04087 22.9872 5.72871C22.73 5.41655 22.345 5.235 21.9308 5.235C20.7777 5.235 10.9893 5.19239 5.97566 5.17317L5.18092 2.33775C4.99013 1.66016 4.34705 1.18695 3.61701 1.18695H1.07106C0.700671 1.18695 0.400391 1.47568 0.400391 1.83182C0.400391 2.18797 0.700671 2.4767 1.07106 2.4767H3.61701C3.74269 2.4767 3.85335 2.55817 3.88603 2.67412L6.93825 13.5629C6.40158 13.5816 5.90171 13.7915 5.52265 14.1613C5.12436 14.5499 4.91046 15.0644 4.92034 15.6099C4.9401 16.7009 5.87944 17.5885 7.0143 17.5885H7.99223C7.84687 17.8819 7.76527 18.2099 7.76527 18.5559C7.76527 19.8005 8.81831 20.813 10.1127 20.813C11.4071 20.813 12.4601 19.8005 12.4601 18.5559C12.4601 18.2098 12.3785 17.8819 12.2331 17.5885H16.468C16.3228 17.8818 16.2412 18.2096 16.2412 18.5555C16.2412 19.8001 17.2943 20.8127 18.5886 20.8127C19.883 20.8127 20.9361 19.8001 20.9361 18.5555C20.9361 18.1961 20.8478 17.8563 20.6918 17.5545C20.9572 17.4685 21.1486 17.2278 21.1486 16.9437C21.1486 16.5875 20.8483 16.2988 20.4779 16.2988H7.0143ZM11.1188 18.5559C11.1188 19.0893 10.6674 19.5233 10.1127 19.5233C9.55788 19.5233 9.10657 19.0893 9.10657 18.5559C9.10657 18.0228 9.55743 17.589 10.1118 17.5885H10.1135C10.6679 17.589 11.1188 18.0228 11.1188 18.5559ZM18.5887 19.523C18.0339 19.523 17.5826 19.089 17.5826 18.5556C17.5826 18.0274 18.0251 17.597 18.5723 17.5885H18.605C19.1523 17.597 19.5948 18.0274 19.5948 18.5556C19.5948 19.089 19.1434 19.523 18.5887 19.523ZM21.9357 6.52947C21.9397 6.53429 21.9391 6.53657 21.9383 6.54026L21.2525 9.39598H18.9301L19.3255 6.51456L21.9255 6.52462C21.9294 6.5247 21.9318 6.5247 21.9357 6.52947ZM15.0214 13.5655V10.6857H17.4001L17.0049 13.5655H15.0214ZM11.6957 13.5655L11.2972 10.6857H13.68V13.5655H11.6957ZM8.60821 13.5655H8.60611C8.44265 13.5654 8.29863 13.4594 8.25611 13.3084L7.52097 10.6857H9.94401L10.3425 13.5655H8.60821ZM11.1187 9.39602L10.7154 6.48124L13.68 6.49272V9.39602H11.1187ZM15.0214 9.39602V6.49792L17.9733 6.50935L17.5771 9.39602H15.0214ZM9.36146 6.47595L9.76552 9.39598H7.15944L6.33764 6.46421L9.36146 6.47595ZM19.9864 13.5655H18.3578L18.753 10.6857H20.9427L20.3106 13.3175C20.2755 13.4635 20.1422 13.5655 19.9864 13.5655Z" fill="#F7F7F8"/>
</g>
<defs>
<clipPath id="clip0">
<rect width="22.88" height="22" fill="white" transform="translate(0.400391)"/>
</clipPath>
</defs>
</svg>
