<svg width="128" height="20" viewBox="0 0 128 20" fill="none" xmlns="http://www.w3.org/2000/svg">
<path d="M10 0L12.2451 6.90983H19.5106L13.6327 11.1803L15.8779 18.0902L10 13.8197L4.12215 18.0902L6.36729 11.1803L0.489435 6.90983H7.75486L10 0Z" fill="#FFCF53"/>
<path d="M37 0L39.2451 6.90983H46.5106L40.6327 11.1803L42.8779 18.0902L37 13.8197L31.1221 18.0902L33.3673 11.1803L27.4894 6.90983H34.7549L37 0Z" fill="#FFCF53"/>
<path d="M64 0L66.2451 6.90983H73.5106L67.6327 11.1803L69.8779 18.0902L64 13.8197L58.1221 18.0902L60.3673 11.1803L54.4894 6.90983H61.7549L64 0Z" fill="#FFCF53"/>
<path d="M91 0L93.2451 6.90983H100.511L94.6327 11.1803L96.8779 18.0902L91 13.8197L85.1221 18.0902L87.3673 11.1803L81.4894 6.90983H88.7549L91 0Z" fill="#FFCF53"/>
<path d="M118 0L120.245 6.90983H127.511L121.633 11.1803L123.878 18.0902L118 13.8197L112.122 18.0902L114.367 11.1803L108.489 6.90983H115.755L118 0Z" fill="#FFCF53"/>
</svg>
