<svg width="22" height="21" viewBox="0 0 22 21" fill="none" xmlns="http://www.w3.org/2000/svg">
<path d="M12.8928 1L18.4325 6.7" stroke="white" stroke-width="1.5" stroke-linecap="round" stroke-linejoin="round"/>
<path d="M9.29469 1L3.755 6.7" stroke="white" stroke-width="1.5" stroke-linecap="round" stroke-linejoin="round"/>
<path d="M11.0938 14.3V16.2" stroke="white" stroke-width="1.5" stroke-linecap="round" stroke-linejoin="round"/>
<path d="M14.7631 14.3V16.2" stroke="white" stroke-width="1.5" stroke-linecap="round" stroke-linejoin="round"/>
<path d="M7.42444 14.3V16.2" stroke="white" stroke-width="1.5" stroke-linecap="round" stroke-linejoin="round"/>
<path d="M1 10.3753V6.81282C1.00076 6.79566 1.0049 6.77882 1.01218 6.76326C1.01946 6.7477 1.02973 6.73373 1.04242 6.72215C1.0551 6.71057 1.06995 6.7016 1.0861 6.69576C1.10226 6.68993 1.1194 6.68733 1.13656 6.68813H21.0509C21.0681 6.68733 21.0852 6.68993 21.1014 6.69576C21.1176 6.7016 21.1324 6.71057 21.1451 6.72215C21.1578 6.73373 21.168 6.7477 21.1753 6.76326C21.1826 6.77882 21.1867 6.79566 21.1875 6.81282V10.3753C21.1867 10.3925 21.1826 10.4093 21.1753 10.4249C21.168 10.4404 21.1578 10.4544 21.1451 10.466C21.1324 10.4776 21.1176 10.4865 21.1014 10.4924C21.0852 10.4982 21.0681 10.5008 21.0509 10.5H1.13656C1.1194 10.5008 1.10226 10.4982 1.0861 10.4924C1.06995 10.4865 1.0551 10.4776 1.04242 10.466C1.02973 10.4544 1.01946 10.4404 1.01218 10.4249C1.0049 10.4093 1.00076 10.3925 1 10.3753V10.3753Z" stroke="white" stroke-width="1.5" stroke-linecap="round" stroke-linejoin="round"/>
<path d="M19.3528 10.5L17.6666 19.2341C17.6292 19.447 17.5185 19.6401 17.3537 19.78C17.1888 19.9199 16.9803 19.9977 16.7641 20H5.42347C5.20729 19.9977 4.99873 19.9199 4.8339 19.78C4.66908 19.6401 4.55837 19.447 4.52097 19.2341L2.83472 10.5" stroke="white" stroke-width="1.5" stroke-linejoin="round"/>
</svg>
