<svg width="16" height="19" viewBox="0 0 16 19" fill="none" xmlns="http://www.w3.org/2000/svg">
<path fill-rule="evenodd" clip-rule="evenodd" d="M12.5395 4.55921H14.25C15.1908 4.55921 15.9605 5.32895 15.9605 6.26974V16.5329C15.9605 17.4737 15.1908 18.2434 14.25 18.2434H2.27632C1.33553 18.2434 0.565796 17.4737 0.565796 16.5329V6.26974C0.565796 5.32895 1.33553 4.55921 2.27632 4.55921H3.98685C3.98685 2.19869 5.90264 0.282898 8.26316 0.282898C10.6237 0.282898 12.5395 2.19869 12.5395 4.55921ZM10.829 4.55922C10.829 3.13948 9.6829 1.99343 8.26316 1.99343C6.84343 1.99343 5.69738 3.13948 5.69738 4.55922H10.829ZM14.25 16.5329H2.27634V6.26973H14.25V16.5329ZM5.69736 7.125C5.69736 8.54474 6.84341 9.69079 8.26315 9.69079C9.68289 9.69079 10.8289 8.54474 10.8289 7.125H12.5395C12.5395 9.48553 10.6237 11.4013 8.26315 11.4013C5.90262 11.4013 3.98683 9.48553 3.98683 7.125H5.69736Z" fill="white"/>
</svg>
