<svg width="12" height="27" viewBox="0 0 12 27" fill="none" xmlns="http://www.w3.org/2000/svg">
<path d="M10.4661 11.976L10.4661 13.476L11.9661 13.476L11.9661 11.976L10.4661 11.976ZM10.4661 8.808L11.9661 8.808L11.9661 7.308L10.4661 7.308L10.4661 8.808ZM7.39411 8.808L5.89411 8.808L5.89411 10.308H7.39411L7.39411 8.808ZM10.4661 5.48L10.4661 6.98L11.9661 6.98L11.9661 5.48L10.4661 5.48ZM10.4661 1.96L11.9661 1.96L11.9661 0.459999L10.4661 0.459999L10.4661 1.96ZM3.23411 8.808L3.23411 10.308L4.73411 10.308L4.73411 8.808L3.23411 8.808ZM1.50611 8.808L1.50611 7.308L0.0061084 7.308L0.0061084 8.808L1.50611 8.808ZM1.50611 11.976L0.0061084 11.976L0.0061084 13.476L1.50611 13.476L1.50611 11.976ZM3.23411 11.976L4.73411 11.976L4.73411 10.476L3.23411 10.476L3.23411 11.976ZM3.23411 25L1.73411 25L1.73411 26.5L3.23411 26.5L3.23411 25ZM7.39411 25L7.39411 26.5H8.89411L8.89411 25H7.39411ZM7.39411 11.976L7.39411 10.476H5.89411L5.89411 11.976H7.39411ZM11.9661 11.976L11.9661 8.808L8.96611 8.808L8.96611 11.976L11.9661 11.976ZM10.4661 7.308L7.39411 7.308L7.39411 10.308L10.4661 10.308L10.4661 7.308ZM8.89411 8.808L8.89411 6.984L5.89411 6.984L5.89411 8.808L8.89411 8.808ZM8.89411 6.984C8.89411 6.92178 8.89777 6.87485 8.90222 6.84137C8.90667 6.80792 8.9115 6.7909 8.91269 6.78702C8.91378 6.78349 8.91087 6.79405 8.89985 6.81392C8.88852 6.83433 8.87071 6.86079 8.84497 6.8887C8.81906 6.91682 8.79055 6.9405 8.76243 6.95885C8.7347 6.97695 8.71324 6.98605 8.70322 6.98969C8.69375 6.99313 8.69755 6.99062 8.71901 6.98726C8.74071 6.98387 8.77812 6.98 8.83411 6.98L8.83411 3.98C8.06959 3.98 7.24728 4.19573 6.63924 4.85529C6.05217 5.49212 5.89411 6.29739 5.89411 6.984L8.89411 6.984ZM8.83411 6.98L10.4661 6.98L10.4661 3.98L8.83411 3.98L8.83411 6.98ZM11.9661 5.48L11.9661 1.96L8.96611 1.96L8.96611 5.48L11.9661 5.48ZM10.4661 0.459999L8.09811 0.459999L8.09811 3.46L10.4661 3.46L10.4661 0.459999ZM8.09811 0.459999C6.01873 0.459999 4.37638 1.21117 3.27023 2.46257C2.1923 3.68205 1.73411 5.2497 1.73411 6.728L4.73411 6.728C4.73411 5.8383 5.01192 5.02195 5.51799 4.44943C5.99583 3.90883 6.78549 3.46 8.09811 3.46L8.09811 0.459999ZM1.73411 6.728L1.73411 8.808L4.73411 8.808L4.73411 6.728L1.73411 6.728ZM3.23411 7.308L1.50611 7.308L1.50611 10.308H3.23411L3.23411 7.308ZM0.0061084 8.808L0.0061084 11.976L3.00611 11.976L3.00611 8.808L0.0061084 8.808ZM1.50611 13.476H3.23411L3.23411 10.476H1.50611L1.50611 13.476ZM1.73411 11.976L1.73411 25L4.73411 25L4.73411 11.976L1.73411 11.976ZM3.23411 26.5L7.39411 26.5L7.39411 23.5L3.23411 23.5L3.23411 26.5ZM8.89411 25L8.89411 11.976L5.89411 11.976L5.89411 25L8.89411 25ZM7.39411 13.476L10.4661 13.476L10.4661 10.476L7.39411 10.476L7.39411 13.476Z" fill="white"/>
</svg>
