<svg width="26" height="29" viewBox="0 0 26 29" fill="none" xmlns="http://www.w3.org/2000/svg">
<g id="icon/action/lock_open_24px" filter="url(#filter0_d)">
<path id="icon/action/lock_open_24px_2" fill-rule="evenodd" clip-rule="evenodd" d="M20.375 8.6875H19.5625V7.0625C19.5625 4.82 17.7425 3 15.5 3C13.2575 3 11.4375 4.82 11.4375 7.0625H13.0625C13.0625 5.71375 14.1512 4.625 15.5 4.625C16.8488 4.625 17.9375 5.71375 17.9375 7.0625V8.6875H10.625C9.73125 8.6875 9 9.41875 9 10.3125V18.4375C9 19.3312 9.73125 20.0625 10.625 20.0625H20.375C21.2688 20.0625 22 19.3312 22 18.4375V10.3125C22 9.41875 21.2688 8.6875 20.375 8.6875ZM10.625 18.4375V10.3125H20.375V18.4375H10.625ZM17.125 14.375C17.125 15.2688 16.3938 16 15.5 16C14.6062 16 13.875 15.2688 13.875 14.375C13.875 13.4812 14.6062 12.75 15.5 12.75C16.3938 12.75 17.125 13.4812 17.125 14.375Z" fill="white"/>
</g>
<defs>
<filter id="filter0_d" x="-4" y="0" width="32" height="32" filterUnits="userSpaceOnUse" color-interpolation-filters="sRGB">
<feFlood flood-opacity="0" result="BackgroundImageFix"/>
<feColorMatrix in="SourceAlpha" type="matrix" values="0 0 0 0 0 0 0 0 0 0 0 0 0 0 0 0 0 0 127 0"/>
<feOffset dy="4"/>
<feGaussianBlur stdDeviation="2"/>
<feColorMatrix type="matrix" values="0 0 0 0 0 0 0 0 0 0 0 0 0 0 0 0 0 0 0.25 0"/>
<feBlend mode="normal" in2="BackgroundImageFix" result="effect1_dropShadow"/>
<feBlend mode="normal" in="SourceGraphic" in2="effect1_dropShadow" result="shape"/>
</filter>
</defs>
</svg>
