<svg width="13" height="19" viewBox="0 0 13 19" fill="none" xmlns="http://www.w3.org/2000/svg">
<path fill-rule="evenodd" clip-rule="evenodd" d="M6.41667 0C2.86917 0 0 2.93325 0 6.55998C0 11.48 6.41667 18.7428 6.41667 18.7428C6.41667 18.7428 12.8333 11.48 12.8333 6.55998C12.8333 2.93325 9.96417 0 6.41667 0ZM1.8333 6.56007C1.8333 3.97351 3.88663 1.87427 6.41663 1.87427C8.94664 1.87427 11 3.97351 11 6.56007C11 9.25909 8.35997 13.2983 6.41663 15.8192C4.50997 13.317 1.8333 9.23098 1.8333 6.56007ZM4.125 6.56C4.125 5.26609 5.15101 4.21716 6.41666 4.21716C7.2354 4.21716 7.99194 4.6637 8.4013 5.38858C8.81067 6.11346 8.81067 7.00654 8.4013 7.73141C7.99194 8.45629 7.2354 8.90283 6.41666 8.90283C5.15101 8.90283 4.125 7.85391 4.125 6.56Z" fill="#E72929"/>
</svg>
