<svg width="14" height="15" viewBox="0 0 14 15" fill="none" xmlns="http://www.w3.org/2000/svg">
<path fill-rule="evenodd" clip-rule="evenodd" d="M0.74074 0.966431H3.33333C3.74073 0.966431 4.07407 1.30977 4.07407 1.72941C4.07407 2.68314 4.22222 3.59871 4.49629 4.45325C4.57777 4.72029 4.51851 5.01786 4.3111 5.23149L2.68148 6.91005C3.74814 9.06928 5.46666 10.8318 7.56295 11.9381L9.19258 10.2595C9.34073 10.1146 9.52591 10.0383 9.7185 10.0383C9.79258 10.0383 9.87406 10.0459 9.94813 10.0764C10.7778 10.3587 11.6741 10.5113 12.5926 10.5113C13 10.5113 13.3333 10.8547 13.3333 11.2743V13.9371C13.3333 14.3567 13 14.7001 12.5926 14.7001C5.63703 14.7001 0 8.8938 0 1.72941C0 1.30977 0.333333 0.966431 0.74074 0.966431ZM2.62217 2.49239C2.66662 3.17144 2.77773 3.83524 2.95551 4.46851L2.06662 5.38409C1.76292 4.46851 1.57033 3.49952 1.50366 2.49239H2.62217ZM9.92588 11.6634C10.5555 11.8465 11.2 11.961 11.8518 12.0068V13.1436C10.874 13.0749 9.93328 12.8766 9.03699 12.5714L9.92588 11.6634Z" fill="white"/>
</svg>
