<svg width="18" height="20" viewBox="0 0 18 20" fill="none" xmlns="http://www.w3.org/2000/svg">
<path fill-rule="evenodd" clip-rule="evenodd" d="M1 0H4.5C5.05 0 5.5 0.488116 5.5 1.0847C5.5 2.44058 5.7 3.74223 6.07 4.95709C6.18 5.33674 6.1 5.75977 5.82 6.06349L3.62 8.44984C5.06 11.5195 7.38 14.0252 10.21 15.598L12.41 13.2117C12.61 13.0056 12.86 12.8971 13.12 12.8971C13.22 12.8971 13.33 12.908 13.43 12.9514C14.55 13.3527 15.76 13.5696 17 13.5696C17.55 13.5696 18 14.0578 18 14.6543V18.44C18 19.0365 17.55 19.5247 17 19.5247C7.61 19.5247 0 11.2701 0 1.0847C0 0.488116 0.45 0 1 0ZM3.53998 2.16919C3.59998 3.13456 3.74998 4.07824 3.98997 4.97853L2.78998 6.28015C2.37998 4.97853 2.11998 3.60098 2.02998 2.16919H3.53998ZM13.4 15.2076C14.25 15.468 15.12 15.6307 16 15.6957V17.3119C14.68 17.2143 13.41 16.9323 12.2 16.4984L13.4 15.2076Z" fill="#E72929"/>
</svg>
