<svg width="28" height="17" viewBox="0 0 28 17" fill="none" xmlns="http://www.w3.org/2000/svg">
<path d="M22.1227 1.66479L21.4538 1.32539L22.1226 1.66482L22.1226 1.66494L22.1223 1.66542L22.1213 1.66735L22.1175 1.675L22.1022 1.70505L22.0438 1.82029L21.8307 2.24091C21.6519 2.59424 21.4074 3.07783 21.1447 3.59891C20.6181 4.64357 20.0225 5.83124 19.7346 6.4261L19.0595 6.09939L19.7346 6.42611C19.3273 7.2677 18.9314 7.88637 18.5429 8.30081C18.1735 8.69495 17.6894 9.02962 17.1204 8.9825C16.5132 8.93222 16.1575 8.48515 15.9829 8.11141C15.8032 7.72683 15.7295 7.26493 15.7295 6.81759V1.63954C15.7295 1.38999 15.6364 1.16003 15.485 0.998005C15.3352 0.837701 15.1432 0.758061 14.9548 0.758061H11.5386H11.5088L11.4791 0.755699C11.1895 0.732663 10.8979 0.779603 10.6251 0.894422C11.2142 1.35009 11.6054 2.15704 11.6054 3.40952C11.6054 4.02087 11.635 5.7952 11.6623 7.29505C11.6703 7.65697 11.5749 8.01656 11.3836 8.32601C11.1916 8.63659 10.9097 8.88531 10.5692 9.02963C10.2279 9.17431 9.85026 9.20419 9.49003 9.1131C9.13043 9.02217 8.81397 8.81745 8.57907 8.5363L8.55396 8.50624L8.53211 8.47372C7.10521 6.35017 5.92319 4.0515 5.01107 1.62754C4.98872 1.58099 4.95817 1.54779 4.9279 1.5271C4.89586 1.50519 4.86396 1.4968 4.83563 1.49684L4.83447 1.49684L4.82868 1.49684H4.82287H4.81704H4.81119H4.80532H4.79942H4.7935H4.78756H4.7816H4.77561H4.76961H4.76358H4.75753H4.75146H4.74537H4.73925H4.73312H4.72696H4.72078H4.71458H4.70836H4.70212H4.69586H4.68958H4.68328H4.67695H4.67061H4.66424H4.65786H4.65145H4.64503H4.63858H4.63212H4.62563H4.61913H4.6126H4.60606H4.59949H4.59291H4.58631H4.57969H4.57304H4.56638H4.5597H4.553H4.54628H4.53955H4.53279H4.52602H4.51922H4.51241H4.50558H4.49873H4.49186H4.48498H4.47808H4.47115H4.46421H4.45726H4.45028H4.44329H4.43628H4.42925H4.4222H4.41514H4.40806H4.40096H4.39384H4.38671H4.37956H4.37239H4.36521H4.35801H4.35079H4.34356H4.33631H4.32904H4.32175H4.31445H4.30714H4.29981H4.29246H4.28509H4.27771H4.27032H4.2629H4.25548H4.24803H4.24057H4.2331H4.22561H4.2181H4.21058H4.20305H4.1955H4.18793H4.18035H4.17276H4.16515H4.15752H4.14988H4.14223H4.13456H4.12688H4.11918H4.11147H4.10374H4.09601H4.08825H4.08049H4.0727H4.06491H4.0571H4.04928H4.04145H4.0336H4.02573H4.01786H4.00997H4.00207H3.99416H3.98623H3.97829H3.97034H3.96237H3.95439H3.9464H3.9384H3.93038H3.92236H3.91432H3.90626H3.8982H3.89012H3.88204H3.87394H3.86583H3.8577H3.84957H3.84142H3.83326H3.8251H3.81692H3.80873H3.80052H3.79231H3.78409H3.77585H3.76761H3.75935H3.75108H3.74281H3.73452H3.72622H3.71791H3.70959H3.70126H3.69292H3.68458H3.67622H3.66785H3.65947H3.65108H3.64269H3.63428H3.62586H3.61744H3.609H3.60056H3.59211H3.58364H3.57517H3.56669H3.5582H3.54971H3.5412H3.53269H3.52416H3.51563H3.50709H3.49855H3.48999H3.48143H3.47286H3.46428H3.45569H3.44709H3.43849H3.42988H3.42126H3.41264H3.40401H3.39537H3.38672H3.37807H3.36941H3.36074H3.35206H3.34338H3.33469H3.326H3.3173H3.30859H3.29988H3.29116H3.28243H3.2737H3.26496H3.25621H3.24746H3.23871H3.22994H3.22118H3.2124H3.20362H3.19484H3.18605H3.17726H3.16846H3.15965H3.15084H3.14203H3.13321H3.12438H3.11555H3.10672H3.09788H3.08904H3.08019H3.07134H3.06249H3.05363H3.04476H3.0359H3.02702H3.01815H3.00927H3.00039H2.9915H2.98261H2.97372H2.96482H2.95592H2.94702H2.93811H2.9292H2.92029H2.91138H2.90246H2.89354H2.88462H2.87569H2.86676H2.85783H2.8489H2.83997H2.83103H2.82209H2.81315H2.80421H2.79526H2.78632H2.77737H2.76842H2.75947H2.75052H2.74156H2.73261H2.72365H2.7147H2.70574H2.69678H2.68782H2.67886H2.6699H2.66094H2.65197H2.64301H2.63405H2.62508H2.61612H2.60716H2.59819H2.58923H2.58027H2.5713H2.56234H2.55338H2.54441H2.53545H2.52649H2.51753H2.50857H2.49961H2.49065H2.4817H2.47274H2.46378H2.45483H2.44588H2.43693H2.42798H2.41903H2.41008H2.40114H2.3922H2.38325H2.37432H2.36538H2.35644H2.34751H2.33858H2.32965H2.32073H2.3118H2.30288H2.29396H2.28505H2.27614H2.26723H2.25832H2.24942H2.24052H2.23162H2.22273H2.21384H2.20495H2.19607H2.18719H2.17831H2.16944H2.16057H2.15171H2.14285H2.13399H2.12514H2.11629H2.10745H2.09861H2.08977H2.08094H2.07212H2.0633H2.05448H2.04567H2.03687H2.02806H2.01927H2.01048H2.00169H1.99291H1.98414H1.97537H1.96661H1.95785H1.9491H1.94035H1.93161H1.92288H1.91415H1.90543H1.89672H1.88801H1.87931H1.87061H1.86192H1.85324H1.84456H1.83589H1.82723H1.81858H1.80993H1.80129H1.79265H1.78403H1.77541H1.7668H1.75819H1.7496H1.74101H1.73243H1.72385H1.71529H1.70673H1.69818H1.68964H1.68111H1.67259H1.66407H1.65556H1.64706H1.63857H1.63009H1.62162H1.61316H1.6047H1.59626H1.58782H1.57939H1.57097H1.56257H1.55417H1.54578H1.5374H1.52903H1.52067H1.51232H1.50398H1.49565H1.48733H1.47902H1.47072H1.46243H1.45415H1.44588H1.43762H1.42937H1.42114H1.41291H1.40469H1.39649H1.3883H1.38012H1.37195H1.36379H1.35564H1.3475H1.33938H1.33126H1.32316H1.31507H1.30699H1.29893H1.29087H1.28283H1.2748H1.26678H1.25878H1.25079H1.24281H1.23484H1.22688H1.21894H1.21101H1.20309H1.19519H1.1873H1.17942H1.17156H1.16371H1.15587H1.14805H1.14024H1.13244H1.12466H1.11689H1.10913H1.10139H1.09366H1.08595H1.07825H1.07056H1.06289H1.05524H1.04759H1.03997H1.03235H1.02476H1.01717H1.00961H1.00205H0.994514H0.986991H0.979483H0.97199H0.964513H0.957051H0.949605H0.942175H0.93476H0.927361H0.919977H0.91261H0.905259H0.897924H0.890605H0.883302H0.876015H0.868745H0.861492H0.854255H0.847034H0.839831H0.832644H0.825474H0.818321H0.811185H0.804067H0.796965H0.789881H0.782814H0.775765H0.768733H0.761718H0.754722H0.750002C0.749935 1.50294 0.75093 1.50853 0.752421 1.51283L0.753804 1.51681L0.753792 1.51681C1.36224 3.30266 2.99751 7.05068 5.23131 10.3375C6.3478 11.9803 7.59322 13.477 8.90948 14.5559C10.2297 15.638 11.5589 16.25 12.8605 16.25H15.4547C15.5105 16.25 15.5753 16.2267 15.6314 16.1667C15.689 16.105 15.7295 16.0111 15.7295 15.9034V14.2272C15.7295 13.8813 15.8239 13.5394 16.0057 13.2431C16.1879 12.9465 16.452 12.7056 16.7717 12.5576C17.0921 12.4093 17.4495 12.3634 17.7977 12.4285C18.1456 12.4936 18.4611 12.6649 18.7079 12.913L21.8129 16.0346C21.9562 16.1788 22.1352 16.25 22.3108 16.25C22.3109 16.25 22.3109 16.25 22.3109 16.25H26.3883C26.7962 16.25 27.0185 16.173 27.125 16.1096C27.2126 16.0575 27.2328 16.0113 27.2426 15.967C27.2758 15.8167 27.202 15.4145 26.7386 14.9262C26.3518 14.5186 25.4737 13.5421 24.7017 12.6784C24.3137 12.2442 23.9493 11.835 23.6819 11.5343L23.3628 11.1751L23.2749 11.0761L23.2519 11.0502L23.2483 11.0461L23.246 11.0435L23.2445 11.0418L23.2441 11.0414L23.244 11.0413L23.8052 10.5437C23.572 10.2852 23.4329 9.94602 23.4131 9.58739C23.3932 9.22877 23.4939 8.87437 23.697 8.58825L22.1227 1.66479ZM22.1227 1.66479L22.1242 1.66163C22.1537 1.60295 22.194 1.56068 22.2354 1.53418C22.2763 1.50803 22.3183 1.49684 22.3576 1.49684H26.9013C27.0669 1.49684 27.152 1.51717 27.1912 1.53263L22.1227 1.66479ZM0.706248 0.746841H4.83447C5.01757 0.746556 5.1969 0.802476 5.3512 0.907967C5.5055 1.01346 5.62827 1.16409 5.70497 1.342C6.59803 3.72028 7.75631 5.97441 9.15462 8.05543L0.706248 0.746841ZM0.706248 0.746841C0.592695 0.746014 0.480652 0.774698 0.379744 0.830428C0.278836 0.886157 0.192081 0.967267 0.126932 1.06679C0.0617823 1.16631 0.0201864 1.28127 0.00571759 1.40179C-0.00875121 1.5223 0.00433963 1.64478 0.0438655 1.75869L0.706248 0.746841ZM27.2201 1.54969C27.2193 1.55031 27.2139 1.54753 27.2066 1.53949C27.2173 1.54506 27.221 1.54908 27.2201 1.54969Z" stroke="white" stroke-width="1.5"/>
</svg>
