<svg width="415" height="548" viewBox="0 0 415 548" fill="none" xmlns="http://www.w3.org/2000/svg">
<g clip-path="url(#clip0)">
<path d="M165.933 32.0522C148.372 27.6017 120.586 27.4814 124.917 36.8635C129.127 46.2455 157.273 74.7526 169.902 67.1748C182.412 59.8375 183.013 36.3823 165.933 32.0522Z" fill="#EDEFF4"/>
<path opacity="0.75" d="M311.717 266.363C280.324 299.682 167.619 330.955 97.6139 267.325C27.7295 203.696 29.2932 118.415 28.0904 106.146C26.7673 93.7572 29.7743 31.3304 76.4441 32.0521C123.114 32.7738 138.149 124.55 188.909 78.361C237.383 34.2172 251.817 39.2691 268.416 63.9271C274.309 72.7077 284.173 84.8563 296.321 85.8186C312.199 87.1417 324.949 84.8563 342.63 78.361C365.725 69.8209 440.54 129.722 311.717 266.363Z" fill="#EDEFF4"/>
<path d="M169.061 219.814H144.042V548H169.061V219.814Z" fill="#5FCF8A"/>
<path d="M152.221 219.814H144.042V548H152.221V219.814Z" fill="#1C9D4D"/>
<path d="M189.75 527.791C189.75 527.791 184.217 486.293 177.962 485.331C171.708 484.369 168.58 494.954 170.986 527.791L181.571 545.112L189.75 527.791Z" fill="url(#paint0_linear)"/>
<path d="M177.842 547.878C180.969 535.97 182.533 526.107 183.375 519.732C186.141 498.322 183.615 481.482 192.997 467.168C197.087 460.914 201.538 459.591 203.823 459.711C207.913 459.831 212.483 462.598 213.446 469.815C216.573 493.631 193.719 547.878 193.719 547.878H177.842Z" fill="url(#paint1_linear)"/>
<path d="M189.749 547.879C189.749 547.879 193.117 499.766 211.159 488.82C229.202 477.994 231.126 495.315 221.023 512.155C205.145 538.617 205.867 547.759 205.867 547.759H189.749V547.879Z" fill="url(#paint2_linear)"/>
<path d="M205.988 535.249C205.988 535.249 221.745 514.801 230.646 516.725C239.547 518.65 227.278 547.758 227.278 547.758H196.847L205.988 535.249Z" fill="url(#paint3_linear)"/>
<path d="M230.646 547.879C230.646 547.879 237.141 529.355 244.839 529.355C252.537 529.355 248.929 547.879 248.929 547.879H230.646Z" fill="url(#paint4_linear)"/>
<path d="M185.902 547.879C185.902 547.879 184.699 521.898 177.963 509.749C171.227 497.721 159.319 502.893 163.048 516.485C167.378 532.362 169.543 547.758 169.543 547.758H185.902V547.879Z" fill="url(#paint5_linear)"/>
<path d="M244.601 536.812L240.872 547.878" stroke="#405CC6" stroke-width="1.20475" stroke-miterlimit="10" stroke-linecap="round"/>
<path d="M228.962 522.74C228.962 522.74 219.82 535.008 217.775 547.758" stroke="#405CC6" stroke-width="1.20475" stroke-miterlimit="10" stroke-linecap="round"/>
<path d="M218.618 495.555C218.618 495.555 204.665 516.966 196.847 547.758" stroke="#405CC6" stroke-width="1.20475" stroke-miterlimit="10" stroke-linecap="round"/>
<path d="M170.865 514.801C170.865 514.801 177.601 535.249 177.842 547.758" stroke="#405CC6" stroke-width="1.20475" stroke-miterlimit="10" stroke-linecap="round"/>
<path d="M119.503 527.912C119.503 527.912 125.036 486.414 131.291 485.452C137.545 484.49 140.673 495.075 138.267 527.912L127.682 545.233L119.503 527.912Z" fill="url(#paint6_linear)"/>
<path d="M131.293 547.999C128.166 536.091 126.602 526.228 125.76 519.853C122.994 498.443 125.52 481.603 116.138 467.29C112.048 461.035 107.598 459.712 105.312 459.832C101.223 459.952 96.6518 462.719 95.6895 469.936C92.5622 493.752 115.416 547.999 115.416 547.999H131.293Z" fill="url(#paint7_linear)"/>
<path d="M91.478 547.999C91.478 547.999 93.1619 493.992 81.1337 479.799C69.1054 465.606 58.6408 483.648 64.5346 498.323C73.195 520.214 76.8035 547.999 76.8035 547.999H91.478Z" fill="url(#paint8_linear)"/>
<path d="M241.834 106.147C216.935 106.748 197.089 127.196 197.089 152.095V219.814H90.999V152.095C90.999 126.715 111.567 106.027 137.067 106.027H240.631C241.112 106.027 241.473 106.027 241.834 106.147Z" fill="#1C9D4D"/>
<path d="M286.697 152.095V219.814H197.086V152.095C197.086 128.52 214.768 109.154 237.621 106.387C239.065 106.267 240.508 106.147 241.951 106.027C266.73 106.748 286.697 127.076 286.697 152.095Z" fill="#207B43"/>
<path d="M278.036 152.094V219.814H197.086V152.094C197.086 128.519 214.768 109.153 237.621 106.387C260.355 109.153 278.036 128.519 278.036 152.094Z" fill="#28563A"/>
<path d="M241.834 106.147C240.39 106.147 238.947 106.267 237.504 106.508C214.65 109.274 197.089 128.64 197.089 152.215V188.902H90.999V152.095C90.999 126.715 111.567 106.027 137.067 106.027H240.631C241.112 106.027 241.473 106.027 241.834 106.147Z" fill="url(#paint9_linear)"/>
<path d="M127.685 204.178C127.685 206.583 125.76 208.508 123.355 208.508C120.949 208.508 119.024 206.583 119.024 204.178C119.024 201.772 120.949 199.847 123.355 199.847C125.76 199.847 127.685 201.772 127.685 204.178Z" fill="#5FCF8A"/>
<path d="M144.042 204.178C144.042 206.583 142.118 208.508 139.712 208.508C137.306 208.508 135.382 206.583 135.382 204.178C135.382 201.772 137.306 199.847 139.712 199.847C142.118 199.847 144.042 201.772 144.042 204.178Z" fill="#5FCF8A"/>
<path d="M158.477 204.178C158.477 206.583 156.552 208.508 154.147 208.508C151.741 208.508 149.816 206.583 149.816 204.178C149.816 201.772 151.741 199.847 154.147 199.847C156.552 199.847 158.477 201.772 158.477 204.178Z" fill="#5FCF8A"/>
<path d="M286.698 219.814V275.746C286.698 298.118 268.535 316.281 246.163 316.281H237.502C215.13 316.281 196.967 298.118 196.967 275.746V219.814H286.698Z" fill="#48DF82"/>
<path d="M286.698 219.814V275.746C286.698 291.382 277.917 304.854 264.927 311.71C259.274 314.597 253.019 316.281 246.163 316.281H240.87C218.498 316.281 200.335 298.118 200.335 275.746V219.814H286.698Z" fill="#E0E3EA"/>
<path d="M119.505 548C119.505 548 116.137 499.887 98.0947 488.941C80.0522 478.116 78.1277 495.436 88.2315 512.276C104.109 538.738 103.387 547.88 103.387 547.88H119.505V548Z" fill="url(#paint10_linear)"/>
<path d="M103.147 535.37C103.147 535.37 87.3896 514.922 78.4886 516.846C69.5877 518.771 81.8566 547.879 81.8566 547.879H112.288L103.147 535.37Z" fill="url(#paint11_linear)"/>
<path d="M78.4882 548C78.4882 548 71.9929 529.476 64.2948 529.476C56.5967 529.476 60.2052 548 60.2052 548H78.4882Z" fill="url(#paint12_linear)"/>
<path d="M123.353 548C123.353 548 124.555 522.019 131.291 509.87C138.027 497.842 149.935 503.014 146.206 516.606C141.876 532.483 139.711 547.879 139.711 547.879H123.353V548Z" fill="url(#paint13_linear)"/>
<path d="M64.5361 536.933L68.3852 547.999" stroke="#405CC6" stroke-width="1.20475" stroke-miterlimit="10" stroke-linecap="round"/>
<path d="M80.1729 522.861C80.1729 522.861 89.3143 535.129 91.3592 547.879" stroke="#405CC6" stroke-width="1.20475" stroke-miterlimit="10" stroke-linecap="round"/>
<path d="M90.5176 495.677C90.5176 495.677 104.47 517.087 112.289 547.879" stroke="#405CC6" stroke-width="1.20475" stroke-miterlimit="10" stroke-linecap="round"/>
<path d="M138.268 514.921C138.268 514.921 131.533 535.369 131.292 547.879" stroke="#405CC6" stroke-width="1.20475" stroke-miterlimit="10" stroke-linecap="round"/>
<path d="M237.502 106.387C214.648 109.153 197.087 128.519 197.087 152.094V188.901H145.485C151.62 184.571 156.672 175.79 156.672 159.071V147.644C156.672 124.79 175.195 106.387 197.929 106.387H237.502Z" fill="url(#paint14_linear)"/>
<path d="M177.359 159.071C174.954 159.071 173.029 157.147 173.029 154.741V46.366H181.69V154.741C181.69 157.147 179.765 159.071 177.359 159.071Z" fill="#67F19C"/>
<path d="M181.692 46.366H149.096L181.692 73.0688V46.366Z" fill="#1CB858"/>
<path d="M264.927 311.59C259.274 314.477 253.019 316.16 246.163 316.16H240.87C218.498 316.16 200.335 297.998 200.335 275.625V219.694H206.71L264.927 311.59Z" fill="#CED1D8"/>
<path d="M269.38 215.002C269.38 216.566 268.659 218.009 267.456 218.972C266.854 219.453 266.133 219.693 265.411 219.814C265.17 219.814 264.93 219.934 264.689 219.934L208.758 220.174V161.476L264.329 161.236C266.133 161.236 267.576 162.198 268.418 163.521C268.899 164.243 269.14 165.085 269.14 166.047V168.934L269.38 215.002Z" fill="url(#paint15_linear)"/>
<path d="M269.138 168.814C269.138 168.814 269.138 168.934 269.138 168.814C256.869 175.189 227.881 198.403 224.874 198.764C223.431 198.884 216.695 194.674 208.516 189.141V161.476L264.086 161.236C265.891 161.236 267.334 162.198 268.176 163.521C268.657 164.243 268.898 165.085 268.898 166.047L269.138 168.814Z" fill="url(#paint16_linear)"/>
<path d="M268.418 163.521L226.199 191.307C225.838 191.547 225.357 191.788 224.996 191.908C224.755 192.028 224.395 192.028 224.154 192.149C223.312 192.269 222.47 192.269 221.748 192.028C221.628 192.028 221.388 191.908 221.267 191.908C220.906 191.788 220.546 191.547 220.305 191.427L211.645 185.774L209.961 184.691L208.758 183.849V161.477L264.329 161.236C266.012 161.116 267.576 162.078 268.418 163.521Z" fill="url(#paint17_linear)"/>
<path d="M257.592 214.762C257.592 216.325 256.871 217.769 255.668 218.731C255.066 219.212 254.345 219.453 253.623 219.573C253.382 219.573 253.142 219.693 252.901 219.693L196.97 219.934V161.236L252.54 160.995C254.345 160.995 255.788 161.957 256.63 163.28C257.111 164.002 257.352 164.844 257.352 165.806V168.693L257.592 214.762Z" fill="url(#paint18_linear)"/>
<path d="M257.35 168.573C257.35 168.573 257.35 168.693 257.35 168.573C245.081 174.948 216.093 198.163 213.086 198.523C211.643 198.644 204.907 194.434 196.728 188.901V161.236L252.298 160.995C254.102 160.995 255.546 161.957 256.388 163.28C256.869 164.002 257.11 164.844 257.11 165.806L257.35 168.573Z" fill="url(#paint19_linear)"/>
<path d="M256.63 163.281L214.411 191.186C214.05 191.427 213.569 191.667 213.208 191.788C212.967 191.908 212.607 191.908 212.366 192.028C211.524 192.149 210.682 192.149 209.96 191.908C209.84 191.908 209.599 191.788 209.479 191.788C209.118 191.667 208.757 191.427 208.517 191.307L199.857 185.653L198.173 184.571L196.97 183.729V161.236L252.54 160.995C254.224 160.875 255.788 161.837 256.63 163.281Z" fill="url(#paint20_linear)"/>
<path d="M274.911 166.768C274.911 166.768 275.994 166.648 277.798 166.047" stroke="#18317F" stroke-width="1.92765" stroke-miterlimit="10" stroke-linecap="round"/>
<path d="M284.414 163.641C296.082 158.348 313.282 144.877 305.704 112.28C294.638 64.5278 296.081 26.0373 324.228 10.6411C345.277 -0.785783 368.732 7.39345 379.438 12.4453" stroke="#14793B" stroke-width="1.92765" stroke-miterlimit="10" stroke-linecap="round" stroke-dasharray="5.87 5.87"/>
<path d="M382.685 14.009C384.369 14.851 385.331 15.4524 385.331 15.4524" stroke="#18317F" stroke-width="1.92765" stroke-miterlimit="10" stroke-linecap="round"/>
<path d="M387.496 17.7384L380.399 26.3988L414.921 39.2691L399.284 4.86816L392.067 14.2502L401.208 25.4365L387.496 17.7384Z" fill="url(#paint21_linear)"/>
<path d="M15.822 33.1347L26.4069 36.8635L26.888 0.0568848L-0.295898 26.3988L11.0107 30.0073L18.348 17.6182L15.822 33.1347Z" fill="url(#paint22_linear)"/>
<path d="M197.088 176.753C197.088 176.753 237.383 171.1 223.31 143.434C189.631 76.918 87.9918 150.291 46.9754 116.732C4.03437 81.4888 11.7325 32.0525 11.7325 32.0525" stroke="#14793B" stroke-width="1.92765" stroke-miterlimit="10" stroke-linecap="round" stroke-dasharray="6.02 6.02"/>
<path d="M286.939 46.3656C283.692 37.5849 272.746 43.4788 279.361 55.026C285.977 66.5731 293.074 62.7241 286.939 46.3656Z" fill="#EDEFF4"/>
<path d="M325.31 51.8986C319.777 50.9363 304.02 56.5896 304.02 68.4976C304.02 75.2335 316.048 80.5259 328.076 73.0684C340.104 65.6108 340.826 54.5448 325.31 51.8986Z" fill="#EDEFF4"/>
</g>
<defs>
<linearGradient id="paint0_linear" x1="179.967" y1="527.797" x2="179.605" y2="479.729" gradientUnits="userSpaceOnUse">
<stop stop-color="#404FD9"/>
<stop offset="1" stop-color="#658BFD"/>
</linearGradient>
<linearGradient id="paint1_linear" x1="195.74" y1="514.156" x2="203.51" y2="445.785" gradientUnits="userSpaceOnUse">
<stop stop-color="#4F6AD9"/>
<stop offset="1" stop-color="#658BFD"/>
</linearGradient>
<linearGradient id="paint2_linear" x1="204.394" y1="554.01" x2="210.178" y2="506.297" gradientUnits="userSpaceOnUse">
<stop stop-color="#546AEA"/>
<stop offset="1" stop-color="#658BFD"/>
</linearGradient>
<linearGradient id="paint3_linear" x1="213.074" y1="555.062" x2="218.858" y2="507.349" gradientUnits="userSpaceOnUse">
<stop stop-color="#546AEA"/>
<stop offset="1" stop-color="#658BFD"/>
</linearGradient>
<linearGradient id="paint4_linear" x1="238.604" y1="558.157" x2="244.387" y2="510.443" gradientUnits="userSpaceOnUse">
<stop stop-color="#546AEA"/>
<stop offset="1" stop-color="#658BFD"/>
</linearGradient>
<linearGradient id="paint5_linear" x1="171.537" y1="550.027" x2="177.321" y2="502.314" gradientUnits="userSpaceOnUse">
<stop stop-color="#546AEA"/>
<stop offset="1" stop-color="#658BFD"/>
</linearGradient>
<linearGradient id="paint6_linear" x1="129.215" y1="527.918" x2="129.577" y2="479.85" gradientUnits="userSpaceOnUse">
<stop stop-color="#404FD9"/>
<stop offset="1" stop-color="#658BFD"/>
</linearGradient>
<linearGradient id="paint7_linear" x1="113.444" y1="514.277" x2="105.674" y2="445.906" gradientUnits="userSpaceOnUse">
<stop stop-color="#4F6AD9"/>
<stop offset="1" stop-color="#658BFD"/>
</linearGradient>
<linearGradient id="paint8_linear" x1="78.8351" y1="521.356" x2="71.8784" y2="460.138" gradientUnits="userSpaceOnUse">
<stop stop-color="#4F6AD9"/>
<stop offset="1" stop-color="#658BFD"/>
</linearGradient>
<linearGradient id="paint9_linear" x1="217.793" y1="147.516" x2="66.4744" y2="147.516" gradientUnits="userSpaceOnUse">
<stop stop-color="#5FCF8A"/>
<stop offset="1" stop-color="#38EA7C"/>
</linearGradient>
<linearGradient id="paint10_linear" x1="104.789" y1="554.132" x2="99.0056" y2="506.418" gradientUnits="userSpaceOnUse">
<stop stop-color="#546AEA"/>
<stop offset="1" stop-color="#658BFD"/>
</linearGradient>
<linearGradient id="paint11_linear" x1="96.1101" y1="555.183" x2="90.3266" y2="507.47" gradientUnits="userSpaceOnUse">
<stop stop-color="#546AEA"/>
<stop offset="1" stop-color="#658BFD"/>
</linearGradient>
<linearGradient id="paint12_linear" x1="70.5795" y1="558.278" x2="64.7961" y2="510.564" gradientUnits="userSpaceOnUse">
<stop stop-color="#546AEA"/>
<stop offset="1" stop-color="#658BFD"/>
</linearGradient>
<linearGradient id="paint13_linear" x1="137.646" y1="550.148" x2="131.863" y2="502.435" gradientUnits="userSpaceOnUse">
<stop stop-color="#546AEA"/>
<stop offset="1" stop-color="#658BFD"/>
</linearGradient>
<linearGradient id="paint14_linear" x1="288.218" y1="162.381" x2="107.539" y2="134.918" gradientUnits="userSpaceOnUse">
<stop stop-color="#1E7841"/>
<stop offset="1" stop-color="#5FCF8A" stop-opacity="0"/>
</linearGradient>
<linearGradient id="paint15_linear" x1="268.85" y1="168.164" x2="213.347" y2="207.877" gradientUnits="userSpaceOnUse">
<stop stop-color="#5FCF8A"/>
<stop offset="1" stop-color="#61FF9D"/>
</linearGradient>
<linearGradient id="paint16_linear" x1="228.706" y1="155.096" x2="268.98" y2="242.036" gradientUnits="userSpaceOnUse">
<stop stop-color="#5FCF8A"/>
<stop offset="0.9961" stop-color="#1D8946"/>
</linearGradient>
<linearGradient id="paint17_linear" x1="243.238" y1="145.871" x2="227.757" y2="200.32" gradientUnits="userSpaceOnUse">
<stop stop-color="#60DC8F"/>
<stop offset="1" stop-color="#5FD88E"/>
</linearGradient>
<linearGradient id="paint18_linear" x1="257.043" y1="167.922" x2="201.54" y2="207.636" gradientUnits="userSpaceOnUse">
<stop stop-color="#FCEA45"/>
<stop offset="1" stop-color="#F9C53F"/>
</linearGradient>
<linearGradient id="paint19_linear" x1="216.899" y1="154.855" x2="257.173" y2="241.795" gradientUnits="userSpaceOnUse">
<stop stop-color="#F9A82C"/>
<stop offset="0.9961" stop-color="#FAA72C" stop-opacity="0"/>
</linearGradient>
<linearGradient id="paint20_linear" x1="231.431" y1="145.63" x2="215.95" y2="200.079" gradientUnits="userSpaceOnUse">
<stop stop-color="#FCEA45"/>
<stop offset="1" stop-color="#F9C53F"/>
</linearGradient>
<linearGradient id="paint21_linear" x1="380.436" y1="22.0998" x2="414.892" y2="22.0998" gradientUnits="userSpaceOnUse">
<stop stop-color="#5FCF8A"/>
<stop offset="1" stop-color="#24B75C"/>
</linearGradient>
<linearGradient id="paint22_linear" x1="-0.267294" y1="18.4935" x2="26.8654" y2="18.4935" gradientUnits="userSpaceOnUse">
<stop stop-color="#5FCF8A"/>
<stop offset="1" stop-color="#24B75C"/>
</linearGradient>
<clipPath id="clip0">
<rect width="415" height="548" fill="white"/>
</clipPath>
</defs>
</svg>
