<svg width="152" height="34" viewBox="0 0 152 34" fill="none" xmlns="http://www.w3.org/2000/svg">
<path d="M52.7377 17.2007L51.3666 18.6772V22.3335H48.7299V9.53662H51.3666V15.3374L52.5267 13.7466L55.7875 9.53662H59.0306L54.4867 15.2231L59.1625 22.3335H56.0248L52.7377 17.2007ZM67.3802 19.6968H62.7572L61.8783 22.3335H59.0746L63.8383 9.53662H66.2816L71.0717 22.3335H68.2679L67.3802 19.6968ZM63.4691 17.561H66.6683L65.0599 12.771L63.4691 17.561ZM78.9027 18.9761C78.9027 18.478 78.7269 18.0972 78.3754 17.8335C78.0238 17.564 77.391 17.2827 76.4769 16.9897C75.5629 16.6909 74.8392 16.3979 74.306 16.1108C72.8529 15.3257 72.1263 14.2681 72.1263 12.938C72.1263 12.2466 72.3197 11.6313 72.7064 11.0923C73.099 10.5474 73.6586 10.1226 74.3851 9.81787C75.1176 9.51318 75.9379 9.36084 76.8461 9.36084C77.7601 9.36084 78.5746 9.52783 79.2894 9.86182C80.0043 10.1899 80.558 10.6558 80.9506 11.2593C81.349 11.8628 81.5482 12.5483 81.5482 13.3159H78.9115C78.9115 12.73 78.7269 12.2759 78.3578 11.9536C77.9886 11.6255 77.4701 11.4614 76.8021 11.4614C76.1576 11.4614 75.6566 11.5991 75.2992 11.8745C74.9418 12.144 74.7631 12.5015 74.7631 12.9468C74.7631 13.3628 74.9711 13.7114 75.3871 13.9927C75.809 14.2739 76.4271 14.5376 77.2416 14.7837C78.7416 15.2349 79.8344 15.7944 80.5199 16.4624C81.2054 17.1304 81.5482 17.9624 81.5482 18.9585C81.5482 20.0659 81.1293 20.936 80.2914 21.5688C79.4535 22.1958 78.3256 22.5093 76.9076 22.5093C75.9232 22.5093 75.0267 22.3306 74.2181 21.9731C73.4095 21.6099 72.7914 21.1147 72.3636 20.4878C71.9418 19.8608 71.7308 19.1343 71.7308 18.3081H74.3763C74.3763 19.7202 75.2201 20.4263 76.9076 20.4263C77.5345 20.4263 78.0238 20.3003 78.3754 20.0483C78.7269 19.7905 78.9027 19.4331 78.9027 18.9761ZM85.9779 17.8247V22.3335H83.3412V9.53662H88.3334C89.2943 9.53662 90.1381 9.7124 90.8646 10.064C91.597 10.4155 92.1595 10.9165 92.5521 11.5669C92.9447 12.2114 93.141 12.9468 93.141 13.7729C93.141 15.0269 92.7103 16.0171 91.849 16.7437C90.9935 17.4644 89.807 17.8247 88.2894 17.8247H85.9779ZM85.9779 15.689H88.3334C89.0306 15.689 89.5609 15.5249 89.9242 15.1968C90.2933 14.8687 90.4779 14.3999 90.4779 13.7905C90.4779 13.1636 90.2933 12.6567 89.9242 12.27C89.5551 11.8833 89.0453 11.6841 88.3949 11.6724H85.9779V15.689ZM97.764 22.3335H95.1273V9.53662H97.764V22.3335ZM104.699 22.3335V9.53662H109.181C110.734 9.53662 111.911 9.83545 112.714 10.4331C113.517 11.0249 113.918 11.895 113.918 13.0435C113.918 13.6704 113.757 14.2241 113.435 14.7046C113.113 15.1792 112.664 15.5278 112.09 15.7505C112.746 15.9146 113.262 16.2456 113.637 16.7437C114.018 17.2417 114.208 17.8511 114.208 18.5718C114.208 19.8022 113.816 20.7339 113.031 21.3667C112.245 21.9995 111.126 22.3218 109.673 22.3335H104.699ZM107.335 16.7612V20.2153H109.594C110.215 20.2153 110.699 20.0688 111.044 19.7759C111.396 19.4771 111.572 19.0669 111.572 18.5454C111.572 17.3735 110.965 16.7788 109.752 16.7612H107.335ZM107.335 14.8979H109.286C110.617 14.8745 111.282 14.3442 111.282 13.3071C111.282 12.7271 111.112 12.311 110.772 12.0591C110.438 11.8013 109.908 11.6724 109.181 11.6724H107.335V14.8979ZM123.419 19.6968H118.796L117.917 22.3335H115.114L119.877 9.53662H122.321L127.111 22.3335H124.307L123.419 19.6968ZM119.508 17.561H122.707L121.099 12.771L119.508 17.561ZM138.712 22.3335H136.076L130.943 13.9136V22.3335H128.306V9.53662H130.943L136.084 17.9741V9.53662H138.712V22.3335ZM145.023 17.2007L143.652 18.6772V22.3335H141.015V9.53662H143.652V15.3374L144.812 13.7466L148.073 9.53662H151.316L146.772 15.2231L151.448 22.3335H148.31L145.023 17.2007Z" fill="black"/>
<path d="M7.3369 29.9573C9.11381 22.8075 7.00445 22.5629 7.00445 19.0936C7.00445 17.9372 7.94449 15.1684 8.08206 13.8229C8.40305 10.7317 7.61204 11.5546 9.93921 9.26396L10.0768 6.08378C11.2461 4.99407 11.8308 4.01556 13.2637 4.36026C14.135 6.87326 12.4842 6.08378 12.3237 9.01933C13.2981 10.2758 13.9516 10.3981 14.6853 11.9771C15.6138 13.9786 14.9489 13.9564 16.7029 15.6354C19.2823 15.9245 20.8414 15.9356 22.6871 14.1343C22.882 12.2106 21.7356 12.3774 22.9049 10.6094C23.7074 9.39739 24.4984 8.74134 26.0002 9.2306C26.4931 11.1209 24.2806 11.5101 24.9684 13.6117C27.9376 13.9008 28.6254 9.93112 30.8952 9.73097C30.8952 13.9675 26.3326 14.5235 26.2294 17.9705C26.1606 20.1277 28.1324 26.0655 30.1272 27.3331C31.8811 24.72 33.7727 21.8735 33.9905 18.7155C35.5152 -2.83405 6.12173 -6.75923 0.538804 12.1105C0.252206 13.0779 0.0802474 14.0565 0 15.035V17.5369C0.492948 23.7415 4.43653 29.1901 7.3369 29.9573V29.9573Z" fill="#EF4635"/>
<path d="M15.9349 32.8486C23.8794 33.7604 23.0425 31.3808 21.4719 22.6075C20.8529 19.1494 20.1307 17.3258 15.9005 17.6483C13.2638 20.6839 14.5936 26.5994 14.6853 29.1903C14.7541 31.2363 14.3987 31.3697 15.9349 32.8486V32.8486ZM25.0716 30.7359C26.4014 30.5802 26.6307 30.3134 27.7083 29.4794C27.8803 27.7114 26.6307 24.8648 24.6818 24.2977C23.7647 26.0101 24.0284 29.0569 25.0716 30.7359ZM11.9798 32.2037C11.9798 30.0465 12.2549 25.5876 11.1086 24.0531C9.58385 24.4867 10.0539 25.7544 10.0424 28.4564C10.0309 30.4357 9.65264 32.0035 11.9798 32.2037V32.2037Z" fill="#EF4635"/>
</svg>
