<svg width="49" height="46" viewBox="0 0 49 46" fill="none" xmlns="http://www.w3.org/2000/svg">
<path d="M10.6793 45.6756C13.2317 34.9948 10.2017 34.6294 10.2017 29.4468C10.2017 27.7192 11.552 23.5831 11.7497 21.5732C12.2107 16.9554 11.0745 18.1846 14.4174 14.7628L14.615 10.012C16.2947 8.38417 17.1345 6.92241 19.1929 7.43735C20.4444 11.1914 18.0731 10.012 17.8426 14.3973C19.2423 16.2743 20.181 16.4571 21.2349 18.8158C22.5687 21.8058 21.6136 21.7725 24.1331 24.2808C27.8383 24.7127 30.0779 24.7293 32.7291 22.0383C33.0091 19.1646 31.3623 19.4138 33.042 16.7727C34.1947 14.9621 35.331 13.982 37.4882 14.7129C38.1963 17.5368 35.0181 18.1181 36.0061 21.2576C40.2712 21.6895 41.2592 15.7594 44.5198 15.4604C44.5198 21.7892 37.9657 22.6197 37.8175 27.7691C37.7187 30.9916 40.5511 39.8618 43.4165 41.7554C45.936 37.8519 48.6531 33.5995 48.966 28.882C51.1561 -3.30989 8.93373 -9.17353 0.914104 19.0151C0.502419 20.4603 0.255408 21.922 0.140137 23.3838V27.1212C0.848235 36.3901 6.51302 44.5294 10.6793 45.6756Z" fill="#EF4635"/>
</svg>
