<svg width="120" height="44" viewBox="0 0 120 44" fill="none" xmlns="http://www.w3.org/2000/svg">
<g clip-path="url(#clip0)">
<path d="M62.7876 16.3346H58.8902L53.1572 22.0916V10.8347H50.0647V30.8199H53.1572V25.6344L55.0494 23.8344L59.4127 30.8199H63.2818L57.2804 21.6345L62.7876 16.3346ZM65.8518 20.7916H68.8595C69.1137 18.906 70.0033 18.206 72.0508 18.206C74.056 18.206 75.002 18.906 75.002 20.3916C75.002 20.9202 74.9456 21.263 74.8044 21.4345C74.4937 21.8487 73.8583 21.9916 71.6554 22.2773C68.7889 22.6487 65.2305 23.0059 65.2305 26.8486C65.2305 29.52 67.0944 31.1771 70.0739 31.1771C71.9661 31.1771 73.8018 30.7057 75.1009 29.4343C75.3268 30.6914 76.2164 31.1771 77.4308 31.1771C78.038 31.1771 78.4899 31.1199 79.4925 30.8628V28.62C79.0971 28.6771 78.9982 28.6771 78.7723 28.6771C78.1933 28.6771 78.0239 28.4486 78.0239 27.6057V20.2488C78.0239 17.1346 75.5245 15.8632 72.1355 15.8632C68.6336 15.8918 66.2189 17.2346 65.8518 20.7916V20.7916ZM74.9738 23.5487V25.2629C74.9738 26.1344 75.002 27.0915 74.3384 27.7629C73.6182 28.4914 72.3897 28.92 71.0906 28.92C69.4526 28.92 68.5065 28.1343 68.5065 26.7629C68.5065 24.8487 70.1727 24.5772 71.6554 24.3487C72.771 24.163 73.943 24.1344 74.9738 23.5487ZM93.8251 20.5488C93.8251 17.2631 91.0997 15.9203 87.8237 15.9203C84.1523 15.9203 81.9495 17.5489 81.9495 20.3059C81.9495 23.4201 84.5336 23.8487 87.8237 24.663C89.6312 25.1058 91.241 25.3629 91.241 26.82C91.241 28.1057 90.0124 28.92 88.1485 28.92C86.1716 28.92 84.8442 28.1057 84.6748 26.1915H81.6388C81.8083 29.5057 84.0252 31.2485 88.092 31.2485C91.9329 31.2485 94.3475 29.3914 94.3475 26.4772C94.3475 23.2773 91.2833 22.6344 88.7839 22.0487C86.4823 21.5202 85.1125 21.4059 85.1125 19.9488C85.1125 18.8774 86.0586 18.2631 87.6684 18.2631C89.3629 18.2631 90.5632 18.7917 90.7891 20.5631L93.8251 20.5488ZM100.928 16.3346H97.9483V36.177H101.097V28.9057C102.241 30.5057 103.823 31.1771 105.771 31.1771C109.64 31.1771 112.14 28.2057 112.14 23.6201C112.14 18.9345 109.584 15.906 105.602 15.906C103.738 15.906 101.93 16.6346 100.928 18.2631V16.3346ZM104.952 18.4917C107.395 18.4917 108.934 20.4916 108.934 23.6344C108.934 26.7201 107.438 28.6343 105.009 28.6343C102.481 28.6343 100.97 26.7201 100.97 23.5773C100.984 20.4059 102.453 18.4917 104.952 18.4917V18.4917ZM119.144 10.749H115.981V13.8918H119.144V10.749ZM119.144 16.3346H115.981V30.8199H119.144V16.3346Z" fill="#1C1B17"/>
<path d="M9.29793 39.1333C11.4867 29.9478 8.88843 29.6335 8.88843 25.1765C8.88843 23.6908 10.0463 20.1338 10.2158 18.4053C10.6112 14.4339 9.63683 15.491 12.5033 12.5483L12.6728 8.46264C14.1131 7.06268 14.8333 5.80557 16.5984 6.24841C17.6716 9.4769 15.6382 8.46264 15.4405 12.234C16.6407 13.8482 17.4456 14.0054 18.3494 16.0339C19.4931 18.6052 18.6741 18.5767 20.8346 20.7338C24.0118 21.1052 25.9322 21.1195 28.2057 18.8052C28.4457 16.3339 27.0336 16.5482 28.474 14.2768C29.4624 12.7197 30.4368 11.8768 32.2866 12.5054C32.8938 14.9339 30.1685 15.4339 31.0157 18.1338C34.673 18.5052 35.5202 13.4054 38.3162 13.1482C38.3162 18.591 32.6961 19.3052 32.569 23.7337C32.4843 26.505 34.913 34.1334 37.3701 35.762C39.5305 32.4049 41.8605 28.7478 42.1288 24.6908C44.0068 -2.99422 7.80112 -8.03694 0.924297 16.2053C0.571278 17.4481 0.359466 18.7052 0.26062 19.9624V23.1766C0.867814 31.1478 5.72537 38.1476 9.29793 39.1333V39.1333Z" fill="#EF4635"/>
<path d="M19.8886 42.8481C29.6743 44.0195 28.6435 40.9625 26.709 29.6913C25.9465 25.2486 25.0568 22.9058 19.8463 23.32C16.5985 27.2199 18.2365 34.8198 18.3495 38.1482C18.4342 40.7767 17.9964 40.9482 19.8886 42.8481V42.8481ZM31.1429 40.1339C32.7809 39.9339 33.0633 39.5911 34.3907 38.5197C34.6025 36.2483 33.0633 32.5912 30.6628 31.8627C29.5331 34.0626 29.8579 37.9768 31.1429 40.1339ZM15.017 42.0196C15.017 39.2482 15.3559 33.5198 13.9438 31.5484C12.0657 32.1055 12.6447 33.7341 12.6305 37.2054C12.6164 39.7482 12.1504 41.7624 15.017 42.0196V42.0196Z" fill="#EF4635"/>
</g>
<defs>
<clipPath id="clip0">
<rect width="118.883" height="43.0851" fill="white" transform="translate(0.26062 0.260864)"/>
</clipPath>
</defs>
</svg>
