<svg xmlns="http://www.w3.org/2000/svg" width="35" height="34" viewBox="0 0 35 34"><defs><clipPath id="i8uba"><path fill="#fff" d="M17.5 0C27.165 0 35 7.61 35 17s-7.835 17-17.5 17S0 26.389 0 17 7.835 0 17.5 0z"/></clipPath></defs><g><g><path fill="#4087fe" d="M17.5 5C24.403 5 30 10.372 30 17c0 6.627-5.597 12-12.5 12C10.596 29 5 23.627 5 17c0-6.628 5.596-12 12.5-12z"/></g><g><path fill="none" stroke="#070002" stroke-miterlimit="20" stroke-width="2" d="M17.5 0C27.165 0 35 7.61 35 17s-7.835 17-17.5 17S0 26.389 0 17 7.835 0 17.5 0z" clip-path="url(&quot;#i8uba&quot;)"/></g></g></svg>