<svg width="18" height="18" viewBox="0 0 18 18" fill="none" xmlns="http://www.w3.org/2000/svg">
<path d="M8.99781 0.692588C5.59375 0.692588 2.36125 0.389775 1.12656 3.55853C0.616564 4.86728 0.690626 6.56696 0.690626 9.00071C0.690626 11.1363 0.622189 13.1435 1.12656 14.442C2.35844 17.6126 5.61719 17.3088 8.99594 17.3088C12.2556 17.3088 15.6166 17.6482 16.8663 14.442C17.3772 13.1201 17.3022 11.4457 17.3022 9.00071C17.3022 5.75509 17.4813 3.65978 15.9072 2.08665C14.3134 0.4929 12.1581 0.692588 8.99406 0.692588H8.99781ZM8.25344 2.18978C15.3541 2.17853 16.2578 1.38915 15.7591 12.3551C15.5819 16.2335 12.6288 15.8079 8.99875 15.8079C2.38 15.8079 2.18969 15.6185 2.18969 8.99696C2.18969 2.29853 2.71469 2.19353 8.25344 2.1879V2.18978ZM13.4322 3.56884C12.8819 3.56884 12.4356 4.01509 12.4356 4.5654C12.4356 5.11571 12.8819 5.56196 13.4322 5.56196C13.9825 5.56196 14.4288 5.11571 14.4288 4.5654C14.4288 4.01509 13.9825 3.56884 13.4322 3.56884ZM8.99781 4.73415C6.64188 4.73415 4.73219 6.64478 4.73219 9.00071C4.73219 11.3567 6.64188 13.2663 8.99781 13.2663C11.3538 13.2663 13.2625 11.3567 13.2625 9.00071C13.2625 6.64478 11.3538 4.73415 8.99781 4.73415ZM8.99781 6.23134C12.6588 6.23134 12.6634 11.7701 8.99781 11.7701C5.33781 11.7701 5.33219 6.23134 8.99781 6.23134Z" fill="#272727"/>
</svg>
