<svg width="370" height="100" viewBox="0 0 370 100" fill="none" xmlns="http://www.w3.org/2000/svg">
<rect width="370" height="100" rx="11" fill="url(#paint0_linear)"/>
<path d="M178.754 59.8594L184.441 32.0312H190.814L182.283 69H176.139L169.105 42.0098L161.92 69H155.75L147.219 32.0312H153.592L159.33 59.8086L166.389 32.0312H171.771L178.754 59.8594ZM195.512 69V32.0312H208.182C212.363 32.0312 215.545 32.8691 217.729 34.5449C219.912 36.2207 221.004 38.7174 221.004 42.0352C221.004 43.7279 220.547 45.2513 219.633 46.6055C218.719 47.9596 217.382 49.0091 215.621 49.7539C217.618 50.2956 219.159 51.3197 220.242 52.8262C221.342 54.3158 221.893 56.11 221.893 58.209C221.893 61.679 220.775 64.3451 218.541 66.207C216.324 68.069 213.141 69 208.994 69H195.512ZM201.936 52.3184V63.8711H209.07C211.085 63.8711 212.659 63.3717 213.793 62.373C214.927 61.3743 215.494 59.9863 215.494 58.209C215.494 54.3665 213.531 52.403 209.604 52.3184H201.936ZM201.936 47.5957H208.232C210.23 47.5957 211.787 47.1471 212.904 46.25C214.038 45.3359 214.605 44.0495 214.605 42.3906C214.605 40.5625 214.081 39.2422 213.031 38.4297C211.999 37.6172 210.382 37.2109 208.182 37.2109H201.936V47.5957Z" fill="white"/>
<defs>
<linearGradient id="paint0_linear" x1="259.5" y1="-6.95373e-07" x2="222.809" y2="131.481" gradientUnits="userSpaceOnUse">
<stop stop-color="#56009B"/>
<stop offset="0.0423257" stop-color="#57009B"/>
<stop offset="0.0821954" stop-color="#5D009C"/>
<stop offset="0.174547" stop-color="#6D00A0"/>
<stop offset="0.971726" stop-color="#E700BF"/>
<stop offset="1" stop-color="#E700BF"/>
</linearGradient>
</defs>
</svg>
