<svg width="22" height="22" viewBox="0 0 22 22" fill="none" xmlns="http://www.w3.org/2000/svg">
<g clip-path="url(#clip0)">
<path d="M21.4655 3.79911C21.7363 4.49548 21.9254 5.29912 21.9769 6.46806C22.0284 7.64137 22.0328 8.01524 22.0328 11.0021C22.0328 13.9891 22.0199 14.3629 21.9683 15.5362C21.9168 16.7052 21.7276 17.5046 21.457 18.2052C20.8854 19.6835 19.7164 20.8525 18.2379 21.4241C17.5417 21.6949 16.7381 21.8839 15.5691 21.9355C14.3958 21.9872 14.0219 21.9999 11.035 21.9999C8.04814 21.9999 7.6741 21.9872 6.50096 21.9355C5.33185 21.8839 4.53258 21.6949 3.83202 21.4241C3.10141 21.1491 2.43526 20.715 1.88512 20.1563C1.32642 19.6061 0.892454 18.9444 0.613103 18.2052C0.342314 17.5088 0.153114 16.7052 0.101575 15.5362C0.0500361 14.3629 0.0371094 13.9891 0.0371094 11.0021C0.0371094 8.01524 0.0500361 7.64137 0.10594 6.4637C0.157479 5.29475 0.346511 4.49548 0.6173 3.79492C0.892454 3.0643 1.32642 2.39816 1.88512 1.84802C2.43526 1.28495 3.09704 0.855178 3.83638 0.575827C4.53258 0.305205 5.33622 0.116005 6.50516 0.0644657C7.67847 0.0129267 8.05233 0 11.0392 0C14.0261 0 14.4 0.0129267 15.5777 0.0688306C16.7466 0.12037 17.5461 0.309402 18.2465 0.580191C18.9771 0.855178 19.6432 1.28931 20.1934 1.84802C20.7564 2.39816 21.1862 3.05994 21.4655 3.79911Z" fill="white"/>
<path d="M11.0426 15.8C8.39211 15.8 6.24219 13.6503 6.24219 10.9996C6.24219 8.34892 8.39211 6.19922 11.0426 6.19922C13.6933 6.19922 15.843 8.34892 15.843 10.9996C15.843 13.6503 13.6933 15.8 11.0426 15.8Z" fill="#272727"/>
<path d="M18.2346 5.12699C18.2346 5.85559 17.6438 6.44635 16.9151 6.44635C16.1865 6.44635 15.5957 5.85559 15.5957 5.12699C15.5957 4.39822 16.1865 3.80762 16.9151 3.80762C17.6438 3.80762 18.2346 4.39822 18.2346 5.12699Z" fill="#272727"/>
</g>
<defs>
<clipPath id="clip0">
<rect width="22" height="22" fill="white"/>
</clipPath>
</defs>
</svg>
