<svg width="22" height="22" viewBox="0 0 22 22" fill="none" xmlns="http://www.w3.org/2000/svg">
<g clip-path="url(#clip0)">
<path d="M20.0364 19.6434C20.531 19.6434 20.9595 19.4801 21.3237 19.1577L15.0908 12.9245C14.9412 13.0316 14.7963 13.1357 14.6594 13.2348C14.1929 13.5784 13.8143 13.8466 13.5236 14.0388C13.233 14.2314 12.8463 14.4277 12.3635 14.6281C11.8805 14.8288 11.4304 14.9288 11.013 14.9288H11.0007H10.9885C10.571 14.9288 10.121 14.8288 9.63794 14.6281C9.15492 14.4277 8.7682 14.2314 8.47782 14.0388C8.18716 13.8466 7.80879 13.5785 7.3421 13.2348C7.21205 13.1394 7.06782 13.0348 6.91188 12.9229L0.677734 19.1577C1.04197 19.4801 1.47075 19.6434 1.96523 19.6434H20.0364Z" fill="white"/>
<path d="M1.24009 8.99888C0.773682 8.68793 0.36008 8.3318 0 7.93066V17.414L5.4937 11.9203C4.39465 11.153 2.97857 10.1803 1.24009 8.99888Z" fill="white"/>
<path d="M20.7717 8.99888C19.0995 10.1307 17.6782 11.105 16.5078 11.9225L21.9993 17.4142V7.93066C21.6473 8.32374 21.2381 8.67962 20.7717 8.99888Z" fill="white"/>
<path d="M20.0353 2.35742H1.96416C1.33371 2.35742 0.849013 2.57031 0.509464 2.99566C0.169635 3.4212 0 3.95339 0 4.59163C0 5.10717 0.225115 5.66576 0.675144 6.26757C1.12517 6.86914 1.60404 7.34166 2.11151 7.68536C2.38971 7.88192 3.22865 8.46515 4.62835 9.43487C5.38394 9.95847 6.04103 10.4149 6.60569 10.8087C7.087 11.144 7.50208 11.4345 7.84478 11.6755C7.88413 11.7031 7.946 11.7473 8.02812 11.806C8.11659 11.8696 8.22855 11.9502 8.36667 12.05C8.63264 12.2423 8.8536 12.3978 9.02959 12.5166C9.20534 12.6354 9.41827 12.7682 9.66807 12.9156C9.91767 13.0627 10.1531 13.1734 10.374 13.247C10.595 13.3206 10.7996 13.3575 10.9878 13.3575H11.0001H11.0123C11.2005 13.3575 11.4051 13.3206 11.6261 13.247C11.847 13.1734 12.0823 13.063 12.3321 12.9156C12.5816 12.7682 12.7943 12.6352 12.9706 12.5166C13.1466 12.3978 13.3675 12.2424 13.6335 12.05C13.7714 11.9502 13.8833 11.8696 13.9718 11.8062C14.054 11.7473 14.1158 11.7033 14.1554 11.6755C14.4224 11.4897 14.8384 11.2005 15.3977 10.8121C16.4156 10.1049 17.9145 9.06405 19.9009 7.68536C20.4983 7.26808 20.9975 6.76453 21.3986 6.17542C21.799 5.58631 21.9998 4.96837 21.9998 4.32178C21.9998 3.78156 21.8051 3.31931 21.4167 2.93431C21.0278 2.54978 20.5673 2.35742 20.0353 2.35742Z" fill="white"/>
</g>
<defs>
<clipPath id="clip0">
<rect width="22" height="22" fill="white"/>
</clipPath>
</defs>
</svg>
