<svg width="30" height="30" viewBox="0 0 30 30" fill="none" xmlns="http://www.w3.org/2000/svg">
<g clip-path="url(#clip0)">
<path d="M1.87522 2.04137C-0.482281 4.49012 0.000218555 7.09137 0.000218555 14.9939C0.000218555 21.5564 -1.14478 28.1351 4.84772 29.6839C6.71897 30.1651 23.299 30.1651 25.1677 29.6814C27.6627 29.0376 29.6927 27.0139 29.9702 23.4851C30.009 22.9926 30.009 7.00387 29.969 6.50137C29.674 2.74262 27.3602 0.576369 24.3115 0.137619C23.6127 0.036369 23.4727 0.00636902 19.8877 0.000119023C7.17147 0.00636902 4.38397 -0.559881 1.87522 2.04137Z" fill="url(#paint0_linear)"/>
<path d="M14.9971 3.92378C10.4583 3.92378 6.14833 3.52003 4.50208 7.74503C3.82208 9.49003 3.92083 11.7563 3.92083 15.0013C3.92083 17.8488 3.82958 20.525 4.50208 22.2563C6.14458 26.4838 10.4896 26.0788 14.9946 26.0788C19.3408 26.0788 23.8221 26.5313 25.4883 22.2563C26.1696 20.4938 26.0696 18.2613 26.0696 15.0013C26.0696 10.6738 26.3083 7.88003 24.2096 5.78253C22.0846 3.65753 19.2108 3.92378 14.9921 3.92378H14.9971ZM14.0046 5.92003C23.4721 5.90503 24.6771 4.85253 24.0121 19.4738C23.7758 24.645 19.8383 24.0775 14.9983 24.0775C6.17333 24.0775 5.91958 23.825 5.91958 14.9963C5.91958 6.06503 6.61959 5.92503 14.0046 5.91753V5.92003ZM20.9096 7.75878C20.1758 7.75878 19.5808 8.35378 19.5808 9.08753C19.5808 9.82128 20.1758 10.4163 20.9096 10.4163C21.6433 10.4163 22.2383 9.82128 22.2383 9.08753C22.2383 8.35378 21.6433 7.75878 20.9096 7.75878ZM14.9971 9.31253C11.8558 9.31253 9.30959 11.86 9.30959 15.0013C9.30959 18.1425 11.8558 20.6888 14.9971 20.6888C18.1383 20.6888 20.6833 18.1425 20.6833 15.0013C20.6833 11.86 18.1383 9.31253 14.9971 9.31253ZM14.9971 11.3088C19.8783 11.3088 19.8846 18.6938 14.9971 18.6938C10.1171 18.6938 10.1096 11.3088 14.9971 11.3088Z" fill="white"/>
</g>
<defs>
<linearGradient id="paint0_linear" x1="1.93274" y1="28.084" x2="29.8146" y2="3.95259" gradientUnits="userSpaceOnUse">
<stop stop-color="#FFDD55"/>
<stop offset="0.5" stop-color="#FF543E"/>
<stop offset="1" stop-color="#C837AB"/>
</linearGradient>
<clipPath id="clip0">
<rect width="30" height="30" fill="white"/>
</clipPath>
</defs>
</svg>
